<svg xmlns="http://www.w3.org/2000/svg" viewBox="0 0 543.29 260.84">
  <defs>
    <style>
      .cls-1 {
        fill: #010101;
      }

      .cls-2 {
        fill: #f4a7ac;
      }
    </style>
  </defs>
  <g id="Capa_2" data-name="Capa 2">
    <g id="Bantar_soluciones_logo" data-name="Bantar soluciones logo">
      <g>
        <path class="cls-1" d="M38.17,45c0,40.06,0,45.69,1.62,49.89a42.64,42.64,0,0,0,82.71-2.39,44.83,44.83,0,0,0-21.65-49.89,40.22,40.22,0,0,0-23.28-4.48,38.1,38.1,0,0,0-22.13,7.25l-4.87,3.34v7.72a52.49,52.49,0,0,0,0,7.73,31.78,31.78,0,0,0,4.11-4,32.24,32.24,0,0,1,57.23,19.08,45.31,45.31,0,0,1-.47,10.21,32.73,32.73,0,0,1-28.62,26.14A31,31,0,0,1,50.76,94.35c-1.71-5-1.81-5.25-2-49.71L48.48,0H37.31Z"/>
        <path class="cls-1" d="M318.92,60.19v43.5l2.29,5.06a25.91,25.91,0,0,0,11.73,12.12,59.94,59.94,0,0,0,20.42,3.91h5V114.47h-7.63c-10.4-.66-15.17-2.86-18.32-8.2l-2.29-3.91v-52H358.7V39.78H330.08V16.69H318.63Z"/>
        <path class="cls-1" d="M161.14,39.3a42.15,42.15,0,0,0-30.43,39.11A43.58,43.58,0,0,0,160.09,124,46.17,46.17,0,0,0,196,119.82c7.44-4.68,7.53-4.77,7.53-13.26V99l-5.24,5.34a32.91,32.91,0,0,1-39.5,7.44,34.82,34.82,0,0,1,4-61.81,33.84,33.84,0,0,1,22.13,0,32.44,32.44,0,0,1,15.45,14.69c4,8.11,4.58,12.4,4.58,37.2v22.9h11.16v-22.9c0-26.42-.85-32.43-5.15-41.21a39.21,39.21,0,0,0-8.39-11,38.17,38.17,0,0,0-30-11.54A64.51,64.51,0,0,0,161.14,39.3Z"/>
        <path class="cls-1" d="M256.34,39.21a33.57,33.57,0,0,0-22,22.8c-1.52,4.77-1.71,7.25-2,33.86v28.62h11.16V95.39c0-28.61,0-29.19,2.1-33.19a23.54,23.54,0,0,1,22.23-14.5,22.14,22.14,0,0,1,17.55,7.82c5.82,6.58,6,7.44,6.3,39.78v28.62h10.2v-27A299,299,0,0,0,301,65a35.16,35.16,0,0,0-19.08-24.23,28.69,28.69,0,0,0-13.26-2.57A48,48,0,0,0,256.34,39.21Z"/>
        <path class="cls-1" d="M395.14,39.4a41.78,41.78,0,0,0-30.05,39.68A42.64,42.64,0,0,0,394.66,124a46,46,0,0,0,35.78-4.19c7.44-4.68,7.53-4.77,7.53-13.26V99l-5.91,5.53a43.76,43.76,0,0,1-10.21,7.63,31.08,31.08,0,0,1-36.15-6,33.55,33.55,0,0,1-8.59-15.45,33.58,33.58,0,0,1,23-41.4l2.86-.67a30.53,30.53,0,0,1,35.8,24.13c0,.13.05.26.07.39v2.1A163.61,163.61,0,0,1,440,102.64v22.14h11.35V99.5A271,271,0,0,0,450,70.31a43,43,0,0,0-31.19-31A63.81,63.81,0,0,0,395.14,39.4Z"/>
        <path class="cls-1" d="M497,39.78a34.18,34.18,0,0,0-15.17,7.92l-3.33,3v-11h-10.4v85h10.3V97.88c0-25.57,0-26.91,2.1-31.2a29.87,29.87,0,0,1,11.92-14,19,19,0,0,1,11.45-2.48h7.73V44.93c0-4.58,0-5-1.72-5.53A41.84,41.84,0,0,0,497,39.78Z"/>
        <path class="cls-1" d="M437.61,166.34c0,21.75,0,22.32,1.62,22.32s1.62-.57,1.62-22.32,0-22.23-1.62-22.23S437.61,144.59,437.61,166.34Z"/>
        <path class="cls-1" d="M411.3,158.27a15.07,15.07,0,0,0-9.54,15.93,11.53,11.53,0,0,0,2.76,7.92,13.55,13.55,0,0,0,10.69,6.39,14.78,14.78,0,0,0,16.5-11.26c1.24-4.29,1.15-4.38-.95-4.38s-1.91.66-2.77,3.52a14.2,14.2,0,0,1-8.49,8.88,12.59,12.59,0,0,1-14.21-10.69,11.78,11.78,0,0,1,0-5.15,13.65,13.65,0,0,1,9-8.87,9.55,9.55,0,0,1,8.88,2.1l2.1,1.62-9,6.11-9.54,6.2a2,2,0,0,0,.86,1.52c.86.57,2.1.67,11.44-5.72l10.59-7.16c.86-.76-3.24-4.77-6.29-6.48A15,15,0,0,0,411.3,158.27Z"/>
        <path class="cls-2" d="M10.22,250.13a13.22,13.22,0,0,1-5.05-1,9.56,9.56,0,0,1-3.82-3.34A12.43,12.43,0,0,1,0,239.73V225.42a11,11,0,0,1,1.44-6,9.43,9.43,0,0,1,3.72-3.34,13,13,0,0,1,5.05-.95,12.2,12.2,0,0,1,5.53,1,8.36,8.36,0,0,1,3.34,3.25,7.51,7.51,0,0,1,1.24,4.29v1.72a2.09,2.09,0,0,1-1.52.47,3.45,3.45,0,0,1-1.43,0,2.33,2.33,0,0,1-.58-1,4.47,4.47,0,0,0,0-1.63,6.24,6.24,0,0,0-.85-1.81A4.18,4.18,0,0,0,14,220a9.47,9.47,0,0,0-3.25-.57A6.37,6.37,0,0,0,6.12,221a7.5,7.5,0,0,0-1.62,5.15v14.31a7.5,7.5,0,0,0,1.62,5.15A7,7,0,0,0,11,247.26a7.07,7.07,0,0,0,3.14-.57,3.59,3.59,0,0,0,1.72-1.43,6.41,6.41,0,0,0,.86-1.81,6.1,6.1,0,0,0,0-1.81,2.21,2.21,0,0,1,.57-1,1.78,1.78,0,0,1,1.43,0,2,2,0,0,1,1.53,0v1.81A7.51,7.51,0,0,1,19,246.69a8.27,8.27,0,0,1-3.53,3A12.28,12.28,0,0,1,10.22,250.13Z"/>
        <path class="cls-2" d="M33.12,250.22a9.32,9.32,0,0,1-7.92-4.67,8.23,8.23,0,0,1-1.34-4.49V229a1.34,1.34,0,0,1,.67-1A2.67,2.67,0,0,1,26,228a2.35,2.35,0,0,1,1.34,0,1.25,1.25,0,0,1,.57,1v12.4a5.14,5.14,0,0,0,.76,2.67,6.73,6.73,0,0,0,1.91,2.1,5.06,5.06,0,0,0,2.77.86,4.85,4.85,0,0,0,2.76-.86,5.58,5.58,0,0,0,2.1-2.39,4.21,4.21,0,0,0,0-2.67V229a1.09,1.09,0,0,1,.57-1,2.3,2.3,0,0,1,2.87,0,.88.88,0,0,1,0,1v12.4a8.51,8.51,0,0,1-1.24,4.58,9.48,9.48,0,0,1-2.2,3A8.46,8.46,0,0,1,33.12,250.22Z"/>
        <path class="cls-2" d="M48.76,221a2.48,2.48,0,0,1-1.81-.67,2.12,2.12,0,0,1-.67-1.62,1.92,1.92,0,0,1,.67-1.53,2.47,2.47,0,0,1,1.81-.66,2.3,2.3,0,0,1,1.72.66,2,2,0,0,1,.67,1.53,2.12,2.12,0,0,1-.67,1.62A2.27,2.27,0,0,1,48.76,221Zm0,28.62a1.87,1.87,0,0,1-1,0,1.14,1.14,0,0,1-1.05-1.23,1,1,0,0,1,.1-.39h0V229a1.15,1.15,0,0,1,.92-1.33h2.89a1.25,1.25,0,0,1,.58,1v19.08a1.06,1.06,0,0,1-.58.95,1.89,1.89,0,0,1-1.81.86Z"/>
        <path class="cls-2" d="M62.78,250.22a7.11,7.11,0,0,1-4.1-1.33A9.57,9.57,0,0,1,54.39,241V236.1a9.57,9.57,0,0,1,4.29-7.92,8.33,8.33,0,0,1,4.2-1.24,7,7,0,0,1,3.91,1.15,8.43,8.43,0,0,1,2.39,2.48V215a1.22,1.22,0,0,1,.57-1.05h2.86a1.25,1.25,0,0,1,.57,1.05v33a1,1,0,0,1-.57.95,1.63,1.63,0,0,1-1.43,0,2,2,0,0,1-1.24,0,1.24,1.24,0,0,1-.57-.95v-1.91a5.85,5.85,0,0,1-2.58,2.67A7.53,7.53,0,0,1,62.78,250.22Zm1-3.53a4.2,4.2,0,0,0,3-.86,6.11,6.11,0,0,0,1.91-1.91,2.82,2.82,0,0,0,.76-1.62v-6.2a5.23,5.23,0,0,0-.76-3,5.6,5.6,0,0,0-2-1.9,4.7,4.7,0,0,0-2.58-.67,5.76,5.76,0,0,0-2.77.76,6.09,6.09,0,0,0-2,2.1,5.22,5.22,0,0,0-.67,2.67V241a5.55,5.55,0,0,0,.67,2.76,5.32,5.32,0,0,0,2,2.1A6,6,0,0,0,63.83,246.69Z"/>
        <path class="cls-2" d="M82.72,250.22a6.76,6.76,0,0,1-4.58-1.53,6,6,0,0,1-1.9-4.77,5.4,5.4,0,0,1,1.43-4.1,8.05,8.05,0,0,1,3.91-2,29.83,29.83,0,0,1,5.82-.57h2.29v-1a7.61,7.61,0,0,0-.58-2.86,4.54,4.54,0,0,0-1.62-2.19,4.87,4.87,0,0,0-3-.86H81.77l-1.53.76h-1a1.14,1.14,0,0,1-1-.67,3.31,3.31,0,0,1,0-1.33,1.53,1.53,0,0,1,1-1.34,8.93,8.93,0,0,1,2.58-1.05h3.15a9.54,9.54,0,0,1,5.34,1.34,7.71,7.71,0,0,1,2.86,3.43A12.11,12.11,0,0,1,94,236v12a1.58,1.58,0,0,1,0,1.05,1.86,1.86,0,0,1-1.43,0,3.36,3.36,0,0,1-1.34,0A1.61,1.61,0,0,1,89.88,248v-1.91a11.29,11.29,0,0,1-3.06,2.57A6.88,6.88,0,0,1,82.72,250.22Zm1.15-3.15a5.69,5.69,0,0,0,2.76-.76,7.09,7.09,0,0,0,2.2-1.91,4,4,0,0,0,.86-2.19v-2.48H84.25a6.67,6.67,0,0,0-3,1.05,2.78,2.78,0,0,0-1.05,2.48A3.43,3.43,0,0,0,81.29,246,3.7,3.7,0,0,0,83.87,247.07Z"/>
        <path class="cls-2" d="M114.49,249.84a8.78,8.78,0,0,1-5.92-1.72,6.89,6.89,0,0,1-2-5.44V218.07a1,1,0,0,1,.57-.95,3,3,0,0,1,1.34,0,1.78,1.78,0,0,1,1.43,0,1,1,0,0,1,.57.95v9.54h6a1.14,1.14,0,0,1,1,.48,2.44,2.44,0,0,1,0,1.14,2.08,2.08,0,0,1,0,1.05h-7v12.31a3.9,3.9,0,0,0,1,2.86,4.38,4.38,0,0,0,3,.86h1.43a2.23,2.23,0,0,1,1.33.48,1.42,1.42,0,0,1,0,1.24,1.21,1.21,0,0,1,0,1.14,1.67,1.67,0,0,1-1.33.57Z"/>
        <path class="cls-2" d="M129.27,250.22a9.32,9.32,0,0,1-8.2-4.67,8.22,8.22,0,0,1-1.33-4.49V229a1.33,1.33,0,0,1,.66-1,2.35,2.35,0,0,1,1.34,0,2.49,2.49,0,0,1,1.43,0,1.26,1.26,0,0,1,.86,1v12.4a5.14,5.14,0,0,0,.76,2.67,6.73,6.73,0,0,0,1.91,2.1,5.06,5.06,0,0,0,2.77.86,4.87,4.87,0,0,0,2.76-.86,5.51,5.51,0,0,0,2.67-4.77V229a1.18,1.18,0,0,1,.67-1,2.35,2.35,0,0,1,1.34,0,2,2,0,0,1,1.43,0,1.08,1.08,0,0,1,.57,1v12.4a8.51,8.51,0,0,1-1.24,4.58,10.63,10.63,0,0,1-3.43,3.34A9.08,9.08,0,0,1,129.27,250.22Z"/>
        <path class="cls-2" d="M153.31,260.81a2.23,2.23,0,0,1-1.33-.48,1.6,1.6,0,0,1-.57-.95V229a1.21,1.21,0,0,1,.57-1,3,3,0,0,1,1.33,0,3,3,0,0,1,1.34,0,1.23,1.23,0,0,1,.57,1v1.91a9.4,9.4,0,0,1,2.39-2.48,7.47,7.47,0,0,1,4-1.15,8.27,8.27,0,0,1,4.3,1.24,9.57,9.57,0,0,1,4.29,7.92v4.86a9.56,9.56,0,0,1-4.29,7.92,6.69,6.69,0,0,1-4.2,1.34,7.67,7.67,0,0,1-3.82-1,6.78,6.78,0,0,1-2.48-2.67v12.87a1.24,1.24,0,0,1-.57,1A2.76,2.76,0,0,1,153.31,260.81Zm7.44-14.12a4.46,4.46,0,0,0,2.68-.86,5.39,5.39,0,0,0,2-2.1,4.8,4.8,0,0,0,.76-2.76V236.1a5.14,5.14,0,0,0-.76-2.67,6.09,6.09,0,0,0-2-2.1,5.76,5.76,0,0,0-2.77-.76,4.54,4.54,0,0,0-2.48.67,7.54,7.54,0,0,0-2,1.9,6.28,6.28,0,0,0-.77,3v6.2a3.42,3.42,0,0,0,.67,1.62,6.11,6.11,0,0,0,1.91,1.91A4.87,4.87,0,0,0,160.75,246.69Z"/>
        <path class="cls-2" d="M175.83,221a2.26,2.26,0,0,1-1.72-.67,2,2,0,0,1,0-3.15,2.58,2.58,0,0,1,3.43,0,1.89,1.89,0,0,1,.67,1.53,2.08,2.08,0,0,1-.67,1.62A2.24,2.24,0,0,1,175.83,221Zm0,28.62a2,2,0,0,1-1.43-.48,1.25,1.25,0,0,1-.58-.95V229a1.24,1.24,0,0,1,.58-1,3,3,0,0,1,2.86,0,1.23,1.23,0,0,1,.57,1V248a1,1,0,0,1-.57.95,2,2,0,0,1-1.43.86Z"/>
        <path class="cls-2" d="M192,250.22a13.2,13.2,0,0,1-5.43-1.14,8.52,8.52,0,0,1-5.15-8.11v-5a8.22,8.22,0,0,1,1.33-4.49,9,9,0,0,1,3.44-3.34,10.14,10.14,0,0,1,4.67-1.24,9.64,9.64,0,0,1,4.58,1.15,8.86,8.86,0,0,1,3.34,3.15,7.48,7.48,0,0,1,1.24,4.48,4.69,4.69,0,0,1-.57,2.77,2.42,2.42,0,0,1-1.63,1H185.37V241a5.43,5.43,0,0,0,1.9,4.19,7.59,7.59,0,0,0,5,1.53,5.47,5.47,0,0,0,2.76-.48,6,6,0,0,0,1.72-.85h2.1a1.5,1.5,0,0,1,.57.76,1,1,0,0,1,0,.76,1.63,1.63,0,0,1-.95,1.34,7,7,0,0,1-2.58,1.43A13,13,0,0,1,192,250.22Zm-6.67-13.16h8.87a2.67,2.67,0,0,0,1.72,0v-1.15a5.4,5.4,0,0,0-8.08-4.75l-.13.08a7.35,7.35,0,0,0-2,1.81,5,5,0,0,0-.76,2.67Z"/>
        <path class="cls-2" d="M205.78,249.84a2,2,0,0,1-1.43-.48,1.24,1.24,0,0,1-.57-1V215a1.25,1.25,0,0,1,.57-1.05h2.86a1.22,1.22,0,0,1,.57,1.05v33a1,1,0,0,1-.57.95A2,2,0,0,1,205.78,249.84Z"/>
        <path class="cls-2" d="M213.51,254.13h-1a1,1,0,0,1-.47-.76v-.57l.95-2.48a3.13,3.13,0,0,1-1.05-.86,2.67,2.67,0,0,1,0-1.43,2.49,2.49,0,0,1,2.46-2.51,2.55,2.55,0,0,1,1.74.69,2,2,0,0,1,.76,1.82h0a1,1,0,0,1,0,.76,5.49,5.49,0,0,1-.57,1.62l-1.14,3v.48Z"/>
        <path class="cls-2" d="M230.39,249.84a2.23,2.23,0,0,1-1.33-.48A1.13,1.13,0,0,1,229,248V229a1.26,1.26,0,0,1,.57-1,3,3,0,0,1,1.34,0,3,3,0,0,1,1.34,0,1.26,1.26,0,0,1,.57,1v2.19a9.08,9.08,0,0,1,.95-2.19,6.6,6.6,0,0,1,2.1-1.53,6.47,6.47,0,0,1,2.67-.57h1.62a1.34,1.34,0,0,1,1.15.57,2.32,2.32,0,0,1,0,2.48,1.34,1.34,0,0,1-1.15.57H238.5a5.11,5.11,0,0,0-2.86.86,6.89,6.89,0,0,0-2.29,2.39,8.26,8.26,0,0,0-.86,3.72V248a1,1,0,0,1-.57.95A2.49,2.49,0,0,1,230.39,249.84Z"/>
        <path class="cls-2" d="M252.62,250.22a13.24,13.24,0,0,1-5.44-1.14,9.6,9.6,0,0,1-3.81-3.25A9.46,9.46,0,0,1,242,241v-5a8.23,8.23,0,0,1,1.34-4.49,8.88,8.88,0,0,1,3.43-3.34,10.18,10.18,0,0,1,4.68-1.24,9.6,9.6,0,0,1,4.57,1.15,8.79,8.79,0,0,1,3.34,3.15,7.34,7.34,0,0,1,1.24,4.48,4.69,4.69,0,0,1-.57,2.77,2.42,2.42,0,0,1-1.62,1h-12.5V241a5.4,5.4,0,0,0,1.91,4.19,7.57,7.57,0,0,0,5,1.53,5.51,5.51,0,0,0,2.77-.48,6.08,6.08,0,0,0,1.71-.85h2.1a1.52,1.52,0,0,1,.58.76,1.1,1.1,0,0,1,0,.76,1.64,1.64,0,0,1-1,1.34,6.86,6.86,0,0,1-2.57,1.43A13,13,0,0,1,252.62,250.22Zm-6.68-13.16h8.87a2.67,2.67,0,0,0,1.72,0v-1.15a5.22,5.22,0,0,0-.67-2.67,5.43,5.43,0,0,0-7.4-2.08l-.13.08a7.24,7.24,0,0,0-2,1.81,5.23,5.23,0,0,0-.76,2.67Z"/>
        <path class="cls-2" d="M270.46,250.22a14.92,14.92,0,0,1-4.1-.57,8.49,8.49,0,0,1-2.77-1.43,2,2,0,0,1-.95-1.62v-.77a1.51,1.51,0,0,1,0-.67h.66a1.53,1.53,0,0,1,1.24.58,7.33,7.33,0,0,0,1.82,1.14,6.59,6.59,0,0,0,3.34.57,4.68,4.68,0,0,0,3.53-.95,2.58,2.58,0,0,0,.95-2.1,2.86,2.86,0,0,0-.86-2.29,7.21,7.21,0,0,0-2.19-1.24l-2.77-.86-2.19-1.52a5.43,5.43,0,0,1-2.1-1.82,5.15,5.15,0,0,1-.86-3.14,6.79,6.79,0,0,1,.76-3.06,5.92,5.92,0,0,1,2.48-2.57,9.48,9.48,0,0,1,4.58-1.05,9.28,9.28,0,0,1,3.24,0,7.93,7.93,0,0,1,2.49,1,1.66,1.66,0,0,1,.95,1.24,1.13,1.13,0,0,1,0,.77,1.49,1.49,0,0,1-.48.85,1.27,1.27,0,0,1-.86,0h-1.05l-1.71-.76a9.56,9.56,0,0,0-2.39,0,7.37,7.37,0,0,0-2.48,0,3.83,3.83,0,0,0-1.43,1.34,4.31,4.31,0,0,0,0,1.52,2.22,2.22,0,0,0,.86,1.82,5.48,5.48,0,0,0,2.19,1.14l2.77.76a12.68,12.68,0,0,1,2.86,1.15,6.39,6.39,0,0,1,2.2,2,5.43,5.43,0,0,1,.85,3.44,5.52,5.52,0,0,1-2.38,5A9.54,9.54,0,0,1,270.46,250.22Z"/>
        <path class="cls-2" d="M286.68,250.22a6.73,6.73,0,0,1-4.58-1.53,6,6,0,0,1-1.91-4.77,5.44,5.44,0,0,1,1.43-4.1,8,8,0,0,1,4-2,28.9,28.9,0,0,1,5.72-.57h2.29v-1a7.39,7.39,0,0,0-.48-2.86,6.14,6.14,0,0,0-1.62-2.19,5.17,5.17,0,0,0-3.15-.86H286.2l-1.62.76h-1a1.33,1.33,0,0,1-1.14-.67,3,3,0,0,1,0-1.33,1.53,1.53,0,0,1,1-1.34,9.78,9.78,0,0,1,2.67-1.05h3.05a8.32,8.32,0,0,1,8.3,4.77,12.11,12.11,0,0,1,.86,4.49v12a1.36,1.36,0,0,1-.57,1.05,2,2,0,0,1-1.43,0,2.88,2.88,0,0,1-1.24,0,1.34,1.34,0,0,1-1-1.05v-1.91a10.83,10.83,0,0,1-2.95,2.57A7.51,7.51,0,0,1,286.68,250.22Zm1.24-3.15a5.16,5.16,0,0,0,2.67-.76,7.16,7.16,0,0,0,2.19-1.91,3.83,3.83,0,0,0,.86-2.19v-2.48H288.2a7.22,7.22,0,0,0-2.86,1.05,2.83,2.83,0,0,0-1.14,2.48,3.4,3.4,0,0,0,1.05,2.76A4.05,4.05,0,0,0,287.92,247.07Z"/>
        <path class="cls-2" d="M304.32,249.84a2,2,0,0,1-1.43-.48,1.24,1.24,0,0,1-.57-1V215a1.27,1.27,0,0,1,.57-1.05h2.87a1.27,1.27,0,0,1,.57,1.05v33a1.07,1.07,0,0,1-.57.95A2,2,0,0,1,304.32,249.84Z"/>
        <path class="cls-2" d="M319.11,249.84a8.77,8.77,0,0,1-5.91-1.72,6.89,6.89,0,0,1-2-5.44V218.07a1.06,1.06,0,0,1,.58-.95,3,3,0,0,1,1.33,0,1.87,1.87,0,0,1,1.43,0,1,1,0,0,1,.57.95v9.54h6a1.14,1.14,0,0,1,1,.48,2.44,2.44,0,0,1,0,1.14,2.08,2.08,0,0,1,0,1.05h-7.25v12.31a3.89,3.89,0,0,0,.95,2.86,4.41,4.41,0,0,0,3.05.86h1.44a2.23,2.23,0,0,1,1.33.48,1.42,1.42,0,0,1,0,1.24,1.21,1.21,0,0,1,0,1.14,1.7,1.7,0,0,1-1.33.57Z"/>
        <path class="cls-2" d="M329.89,250.22a6.76,6.76,0,0,1-4.58-1.53,6,6,0,0,1-1.91-4.77,5.48,5.48,0,0,1,1.43-4.1,8,8,0,0,1,4-2,28.9,28.9,0,0,1,5.72-.57h2.29v-1a9.62,9.62,0,0,0-.47-2.86,6.38,6.38,0,0,0-1.62-2.19,5.2,5.2,0,0,0-3.15-.86H329l-1.62.76h-1a1.33,1.33,0,0,1-1.15-.67,3.31,3.31,0,0,1,0-1.33,1.53,1.53,0,0,1,1.05-1.34,9.78,9.78,0,0,1,2.67-1.05h3.05a8.3,8.3,0,0,1,8.3,4.77,12.11,12.11,0,0,1,.86,4.49v12a1.31,1.31,0,0,1-.57,1.05,1.87,1.87,0,0,1-1.43,0,2.88,2.88,0,0,1-1.24,0,1.31,1.31,0,0,1-.57-1.05v-1.91a11,11,0,0,1-3,2.57A7.37,7.37,0,0,1,329.89,250.22Zm1.24-3.15a5.14,5.14,0,0,0,2.67-.76,7.2,7.2,0,0,0,2.2-1.91,3.89,3.89,0,0,0,.85-2.19v-2.48h-5.43a7.21,7.21,0,0,0-2.87,1.05,2.88,2.88,0,0,0-1.14,2.48,3.4,3.4,0,0,0,1,2.76A4.05,4.05,0,0,0,331.13,247.07Z"/>
        <path class="cls-2" d="M361.37,249.84a8.64,8.64,0,0,1-5.82-1.72,6.49,6.49,0,0,1-2.1-5.44V218.07a1.14,1.14,0,0,1,.67-.95,2.66,2.66,0,0,1,2.67,0,1,1,0,0,1,.67.95v9.54h6a1.06,1.06,0,0,1,.86.48,2.44,2.44,0,0,1,0,1.14,2.08,2.08,0,0,1,0,1.05h-6.87v12.31a3.77,3.77,0,0,0,.86,2.86,4.38,4.38,0,0,0,3.05.86h1.15a1.85,1.85,0,0,1,1.24.48,2.88,2.88,0,0,1,0,1.24,2.44,2.44,0,0,1,0,1.14,1.5,1.5,0,0,1-1.24.57Z"/>
        <path class="cls-2" d="M376.44,250.22a9.32,9.32,0,0,1-8.2-4.67,8.16,8.16,0,0,1-1.24-4.49V229a1.59,1.59,0,0,1,.57-1,2.67,2.67,0,0,1,1.43,0,2.35,2.35,0,0,1,1.34,0,1.25,1.25,0,0,1,.57,1v12.4a5.14,5.14,0,0,0,.76,2.67,5.34,5.34,0,0,0,2,2.1,4.86,4.86,0,0,0,5.53,0,4.53,4.53,0,0,0,1.91-2.1,5.11,5.11,0,0,0,.47-2.67V229a1.08,1.08,0,0,1,.58-1,2.89,2.89,0,0,1,1.43,0,2.49,2.49,0,0,1,1.43,0,.88.88,0,0,1,0,1v12.4a8.51,8.51,0,0,1-1.24,4.58,10.56,10.56,0,0,1-3.44,3.34A9.62,9.62,0,0,1,376.44,250.22Z"/>
        <path class="cls-2" d="M409,250.22a8.35,8.35,0,0,1-4-1.05,8.43,8.43,0,0,1-2.58-2.67V248a.86.86,0,0,1,0,.95,2.1,2.1,0,0,1-2.67,0,1.24,1.24,0,0,1-.57-.95V214.64a1.23,1.23,0,0,1,.57-1,3,3,0,0,1,1.33,0,3.49,3.49,0,0,1,1.44,0,1.26,1.26,0,0,1,.57,1v15.55a9.36,9.36,0,0,1,2.38-2.48,7.17,7.17,0,0,1,3.91-1.15,8.36,8.36,0,0,1,4.3,1.24,10.27,10.27,0,0,1,3.05,3.34,9.51,9.51,0,0,1,1.14,4.58v4.87a9.47,9.47,0,0,1-1.14,4.57,10.27,10.27,0,0,1-3.05,3.34A6.47,6.47,0,0,1,409,250.22Zm-1-3.53a4.43,4.43,0,0,0,2.67-.86,5.32,5.32,0,0,0,2-2.1,5.7,5.7,0,0,0,.77-2.76V236.1a5.47,5.47,0,0,0-.77-2.67,6,6,0,0,0-2-2.1,5.73,5.73,0,0,0-2.77-.76,5.45,5.45,0,0,0-4.48,2.57,5.38,5.38,0,0,0-.86,3v6.2a3.68,3.68,0,0,0,.76,1.62,6.11,6.11,0,0,0,1.91,1.91A4.9,4.9,0,0,0,408,246.69Z"/>
        <path class="cls-2" d="M430.82,250.22a13.21,13.21,0,0,1-5.44-1.14,8.52,8.52,0,0,1-5.15-8.11v-5a8.22,8.22,0,0,1,1.33-4.49,9,9,0,0,1,3.44-3.34,10.17,10.17,0,0,1,4.67-1.24,9.61,9.61,0,0,1,4.58,1.15,8.86,8.86,0,0,1,3.34,3.15,7.41,7.41,0,0,1,1.24,4.48,4.69,4.69,0,0,1-.57,2.77,2.42,2.42,0,0,1-1.62,1h-12.5V241a5.4,5.4,0,0,0,1.91,4.19,7.57,7.57,0,0,0,5,1.53,5.45,5.45,0,0,0,2.76-.48,6,6,0,0,0,1.72-.85h2.1a1.45,1.45,0,0,1,.57.76,1,1,0,0,1,0,.76,1.61,1.61,0,0,1-1,1.34,6.9,6.9,0,0,1-2.58,1.43A12.93,12.93,0,0,1,430.82,250.22Zm-6.68-13.16H433a2.67,2.67,0,0,0,1.72,0,1.23,1.23,0,0,0,0-1.15,6.5,6.5,0,0,0-.67-2.67,5.43,5.43,0,0,0-7.4-2.08l-.14.08a7.35,7.35,0,0,0-2,1.81,5.14,5.14,0,0,0-.76,2.67Z"/>
        <path class="cls-2" d="M444.55,249.84a2,2,0,0,1-1.43-.48,1.24,1.24,0,0,1-.57-1V215a1.27,1.27,0,0,1,.57-1.05H446a1.27,1.27,0,0,1,.57,1.05v33a1,1,0,0,1-.57.95A2,2,0,0,1,444.55,249.84Z"/>
        <path class="cls-2" d="M453.9,249.84a2,2,0,0,1-1.43-.48,1.24,1.24,0,0,1-.57-1V215a1.25,1.25,0,0,1,.57-1.05h2.86a1.25,1.25,0,0,1,.58,1.05v33a1.06,1.06,0,0,1-.58.95A2,2,0,0,1,453.9,249.84Z"/>
        <path class="cls-2" d="M470.6,250.22a13.21,13.21,0,0,1-5.44-1.14A8.52,8.52,0,0,1,460,241v-5a8.22,8.22,0,0,1,1.33-4.49,9,9,0,0,1,3.44-3.34,10.17,10.17,0,0,1,4.67-1.24,9.61,9.61,0,0,1,4.58,1.15,8.86,8.86,0,0,1,3.34,3.15,7.41,7.41,0,0,1,1.24,4.48,4.69,4.69,0,0,1-.57,2.77,2.42,2.42,0,0,1-1.62,1h-12.5V241a5.4,5.4,0,0,0,1.91,4.19,7.57,7.57,0,0,0,5,1.53,5.45,5.45,0,0,0,2.76-.48,6,6,0,0,0,1.72-.85H477a1.45,1.45,0,0,1,.57.76,1,1,0,0,1,0,.76A1.6,1.6,0,0,1,477,248a7,7,0,0,1-2.58,1.43A12.71,12.71,0,0,1,470.6,250.22Zm-6.68-13.16h8.87a2.67,2.67,0,0,0,1.72,0,1.23,1.23,0,0,0,0-1.15,6.5,6.5,0,0,0-.67-2.67,5.43,5.43,0,0,0-7.4-2.08l-.14.08a7.35,7.35,0,0,0-2,1.81,5.14,5.14,0,0,0-.76,2.67Z"/>
        <path class="cls-2" d="M481.66,249.84a1.27,1.27,0,0,1-1.05-.48,1.71,1.71,0,0,1,0-1v-1.62l11.07-16.13h-9.54a1.14,1.14,0,0,1-.86-.47,2.88,2.88,0,0,1,0-1.24,2.24,2.24,0,0,1,0-1.15,1.05,1.05,0,0,1,1-.57h13.83a1.87,1.87,0,0,1,1.05,0,1.29,1.29,0,0,1,0,1.15,2.19,2.19,0,0,1-.58,1.52l-11.06,16.22h10.59a1.14,1.14,0,0,1,.95.48,1.42,1.42,0,0,1,0,1.24,2.2,2.2,0,0,1,0,1.14,1.13,1.13,0,0,1-.95,0Z"/>
        <path class="cls-2" d="M505.61,250.22a6.86,6.86,0,0,1-4.49-1.53,6,6,0,0,1-1.9-4.77,5.4,5.4,0,0,1,1.43-4.1,8.05,8.05,0,0,1,3.91-2,29.83,29.83,0,0,1,5.82-.57h2.29v-1a7.61,7.61,0,0,0-.58-2.86,4.54,4.54,0,0,0-1.62-2.19,4.87,4.87,0,0,0-3.05-.86h-2.67l-1.53.76h-1.05a1.14,1.14,0,0,1-1.05-.67,3.31,3.31,0,0,1,0-1.33,1.54,1.54,0,0,1,1.05-1.34,8.93,8.93,0,0,1,2.58-1.05h3.15a9.54,9.54,0,0,1,5.34,1.34,7.71,7.71,0,0,1,2.86,3.43A12.11,12.11,0,0,1,517,236v12a2.08,2.08,0,0,1,0,1.05,2,2,0,0,1-1.43,0,3.36,3.36,0,0,1-1.34,0,1.58,1.58,0,0,1,0-1.05v-1.91a11.25,11.25,0,0,1-3.05,2.57A7.45,7.45,0,0,1,505.61,250.22Zm1.24-3.15a5.69,5.69,0,0,0,2.76-.76,10.28,10.28,0,0,0,2.2-1.91,4,4,0,0,0,.86-2.19v-2.48h-5.44a6.72,6.72,0,0,0-3,1.05,2.78,2.78,0,0,0-1,2.48,3.43,3.43,0,0,0,1,2.76,4.14,4.14,0,0,0,2.29,1Z"/>
        <path class="cls-1" d="M447.82,166.34c0,21.75,0,22.32,1.62,22.32s1.62-.57,1.62-22.32,0-22.23-1.62-22.23S447.82,144.59,447.82,166.34Z"/>
        <path class="cls-1" d="M367.18,159.89c0,14.47,0,16.5.58,18a15.4,15.4,0,0,0,29.87-.86,16.21,16.21,0,0,0-7.82-18,14.54,14.54,0,0,0-8.41-1.62,13.76,13.76,0,0,0-8,2.62l-1.75,1.2V164a18.56,18.56,0,0,0,0,2.79,12.59,12.59,0,0,0,1.48-1.44,11.64,11.64,0,0,1,20.66,6.88,16.26,16.26,0,0,1-.17,3.69,11.82,11.82,0,0,1-10.33,9.44,11.22,11.22,0,0,1-11.58-7.68c-.62-1.79-.65-1.9-.72-17.95l-.1-16.12h-4Z"/>
        <path class="cls-1" d="M465.56,158.75A15.06,15.06,0,0,0,456,174.68a11.53,11.53,0,0,0,2.76,7.92A13.55,13.55,0,0,0,469.48,189,14.78,14.78,0,0,0,486,177.73c1.24-4.29,1.14-4.38-1-4.38s-1.91.66-2.77,3.53a14.2,14.2,0,0,1-8.49,8.87,12.61,12.61,0,0,1-14.22-10.69,12.09,12.09,0,0,1,0-5.15,13.66,13.66,0,0,1,9-8.87,9.54,9.54,0,0,1,8.87,2.1l2.1,1.62-9,6.11-9.54,6.2a2,2,0,0,0,.85,1.52c.86.58,2.1.67,11.45-5.72l10.59-7.16c.86-.76-3.24-4.77-6.3-6.48A15,15,0,0,0,465.56,158.75Z"/>
        <path d="M492.13,188.27a1.54,1.54,0,0,1-1.22-.48.5.5,0,0,1-.13-.25,2,2,0,0,1,0-1.06v-1.85a.56.56,0,0,1,.09-.31l13.15-19.16a.54.54,0,0,0-.44-.85h-10.9a1.44,1.44,0,0,1-1.07-.6,3.38,3.38,0,0,1,0-1.55,2.89,2.89,0,0,1,0-1.43,1.3,1.3,0,0,1,1.19-.71h17.23l.12,0a2.44,2.44,0,0,1,1-.05.49.49,0,0,1,.39.33,1.54,1.54,0,0,1-.11,1.17,2.72,2.72,0,0,1-.71,1.9l-13.26,19.42a.55.55,0,0,0,.45.85h12.21a1.43,1.43,0,0,1,1.19.6,3.07,3.07,0,0,1,.12,1.58,6.12,6.12,0,0,1-.12,1.4,3.37,3.37,0,0,1-1,.37,2.37,2.37,0,0,1-.35,0Z"/>
        <path class="cls-1" d="M525,159.55a13.59,13.59,0,0,0-9.78,12.91,13.87,13.87,0,0,0,9.62,14.62,14.94,14.94,0,0,0,11.64-1.36c2.42-1.52,2.45-1.56,2.45-4.32V179l-1.92,1.8a14.39,14.39,0,0,1-3.32,2.48,10.11,10.11,0,0,1-11.77-1.95,11,11,0,0,1-2.79-5,10.93,10.93,0,0,1,7.48-13.47l.93-.22a9.93,9.93,0,0,1,11.65,7.85.59.59,0,0,1,0,.13v.68a53,53,0,0,1,.38,8.91v7.2h3.69V179.1a88.39,88.39,0,0,0-.43-9.49,14,14,0,0,0-10.15-10.09A20.77,20.77,0,0,0,525,159.55Z"/>
      </g>
    </g>
  </g>
</svg>
