<svg xmlns="http://www.w3.org/2000/svg" viewBox="0 0 54.12 27.34">
  <defs>
    <style>
      .cls-1 {
        fill: #f4a7ab;
      }
    </style>
  </defs>
  <g id="Capa_2" data-name="Capa 2">
    <g id="DISEÑO">
      <g>
        <path d="M4,4.72c0,4.2,0,4.79.17,5.23a4.47,4.47,0,0,0,8.67-.25,4.71,4.71,0,0,0-2.27-5.23A4.23,4.23,0,0,0,8.13,4a4,4,0,0,0-2.32.76l-.51.35,0,.81a4.48,4.48,0,0,0,0,.81,3.28,3.28,0,0,0,.43-.42,3.38,3.38,0,0,1,6,2,5.08,5.08,0,0,1-.05,1.07,3.42,3.42,0,0,1-3,2.74A3.25,3.25,0,0,1,5.32,9.89c-.18-.52-.19-.55-.21-5.21L5.08,0H3.91Z"/>
        <path d="M33.43,6.31l0,4.56.24.53a2.7,2.7,0,0,0,1.23,1.27,6.26,6.26,0,0,0,2.14.41h.52V12l-.8,0c-1.09-.07-1.59-.3-1.92-.86l-.24-.41,0-2.73,0-2.72h3V4.17h-3V1.75H33.4Z"/>
        <path d="M16.89,4.12a4.41,4.41,0,0,0-3.19,4.1A4.56,4.56,0,0,0,16.78,13a4.84,4.84,0,0,0,3.76-.44c.78-.49.79-.5.79-1.39v-.79l-.55.56a3.44,3.44,0,0,1-4.14.78,3.65,3.65,0,0,1,.42-6.48,3.61,3.61,0,0,1,2.32,0A3.4,3.4,0,0,1,21,6.78c.42.85.48,1.3.48,3.9v2.4h1.17v-2.4c0-2.77-.09-3.4-.54-4.32a3.93,3.93,0,0,0-.88-1.15A4,4,0,0,0,18.08,4,6.79,6.79,0,0,0,16.89,4.12Z"/>
        <path d="M26.87,4.11A3.51,3.51,0,0,0,24.56,6.5c-.16.5-.18.76-.21,3.55l0,3h1.17l0-3.07c0-3,0-3.06.22-3.48a2.47,2.47,0,0,1,2.33-1.47,2.34,2.34,0,0,1,1.84.82c.61.69.63.78.66,4.17l0,3h1.07V10.16a33,33,0,0,0-.09-3.35,3.67,3.67,0,0,0-2-2.54A3,3,0,0,0,28.16,4,4.93,4.93,0,0,0,26.87,4.11Z"/>
        <path d="M41.42,4.13a4.37,4.37,0,0,0-3.15,4.16A4.47,4.47,0,0,0,41.37,13a4.82,4.82,0,0,0,3.75-.44c.78-.49.79-.5.79-1.39v-.79l-.62.58a4.69,4.69,0,0,1-1.07.8,3.25,3.25,0,0,1-3.79-.63,3.43,3.43,0,0,1-.9-1.62A3.51,3.51,0,0,1,42.24,5.1,3.2,3.2,0,0,1,46,7.89a17.17,17.17,0,0,1,.12,2.87v2.32h1.19l0-2.65a27.45,27.45,0,0,0-.14-3.06A4.51,4.51,0,0,0,43.9,4.12,6.67,6.67,0,0,0,41.42,4.13Z"/>
        <path d="M52.1,4.17A3.57,3.57,0,0,0,50.51,5l-.35.32V4.17H49.07v8.91h1.08l0-2.82c0-2.68,0-2.82.22-3.27a3.16,3.16,0,0,1,1.25-1.47,2,2,0,0,1,1.2-.26l.81,0V4.71c0-.48,0-.53-.18-.58A4.31,4.31,0,0,0,52.1,4.17Z"/>
        <path d="M32.16,17c0,2.28,0,2.34.17,2.34s.17-.06.17-2.34,0-2.33-.17-2.33S32.16,14.72,32.16,17Z"/>
        <path d="M39.09,15.3c0,.17.07.24.19.24s.24-.41,0-.45S39.07,15.09,39.09,15.3Z"/>
        <path d="M29.25,16.26a2.07,2.07,0,0,0-.63.55,1.28,1.28,0,0,0-.25.93,1.3,1.3,0,0,0,.25.94,1.6,1.6,0,0,0,2.8-.23,2.1,2.1,0,0,0,.16-.71A1.61,1.61,0,0,0,29.25,16.26Zm1.22.29a1.36,1.36,0,0,1,0,2.38,1,1,0,0,1-1,0,1.19,1.19,0,0,1-.66-1.07,1.2,1.2,0,0,1,.62-1.23A1,1,0,0,1,30.47,16.55Z"/>
        <path d="M40.94,16.24a1.7,1.7,0,0,0-.61,2.5,1.63,1.63,0,1,0,.61-2.5Zm1.38.41a1.37,1.37,0,0,1-.19,2.28,1,1,0,0,1-1.05,0,1.27,1.27,0,0,1-.65-1.27,1.2,1.2,0,0,1,.65-1.05A1.16,1.16,0,0,1,42.32,16.65Z"/>
        <path d="M44.53,16.19c-.61.28-.79.75-.79,2.15,0,.93,0,1,.17,1s.16-.06.17-1c0-1.14.09-1.48.49-1.74a.8.8,0,0,1,1,0c.42.25.47.44.51,1.64,0,1,0,1.11.19,1.11s.16-.08.16-1c0-1.07-.09-1.54-.36-1.84A1.39,1.39,0,0,0,44.53,16.19Z"/>
        <path d="M47.91,16.21a1.58,1.58,0,0,0-1,1.67,1.16,1.16,0,0,0,.29.83,1.42,1.42,0,0,0,1.12.67,1.55,1.55,0,0,0,1.73-1.18c.13-.45.12-.46-.1-.46s-.2.07-.29.37a1.47,1.47,0,0,1-.89.93,1.32,1.32,0,0,1-1.46-1.66,1.43,1.43,0,0,1,.94-.93,1,1,0,0,1,.93.22l.22.17-.94.64-1,.65s0,.1.09.16.22.07,1.2-.6l1.11-.75c.09-.08-.34-.5-.66-.68A1.55,1.55,0,0,0,47.91,16.21Z"/>
        <path d="M26,16.24a.64.64,0,0,0-.4.69c0,.46.24.66,1.13.93a3.16,3.16,0,0,1,.78.32c.19.25.19.4,0,.61s-.26.2-1.09.2-.87,0-.87.17.06.17.87.17c1,0,1.42-.13,1.54-.46.25-.64-.06-1-1.05-1.33-.73-.23-.95-.37-.95-.63s.22-.42,1.05-.42.79,0,.79-.16-.05-.17-.81-.16A4.56,4.56,0,0,0,26,16.24Z"/>
        <path d="M33.25,17.3c0,1.27.08,1.57.52,1.89a1.65,1.65,0,0,0,1.53,0c.44-.32.53-.62.53-1.89,0-1.08,0-1.14-.17-1.14s-.17.06-.17,1.05c0,1.17-.1,1.53-.5,1.74a.91.91,0,0,1-1.28-.41,3.43,3.43,0,0,1-.13-1.33c0-1,0-1.05-.17-1.05S33.25,16.22,33.25,17.3Z"/>
        <path d="M37.37,16.32a1.42,1.42,0,0,0-.78.78,2.39,2.39,0,0,0,0,1.38,1.73,1.73,0,0,0,1.55.85c.36,0,.42,0,.42-.17s-.06-.17-.35-.17A1.68,1.68,0,0,1,37,18.43a1.19,1.19,0,0,1,0-1.26,1.3,1.3,0,0,1,1.11-.66c.37,0,.46-.07.46-.19s-.07-.16-.44-.16A2.24,2.24,0,0,0,37.37,16.32Z"/>
        <path d="M39.08,17.74v1.59h.41V16.16h-.41Z"/>
        <path d="M50.86,16.26a.65.65,0,0,0-.37.65c0,.53.27.74,1.3,1,.42.1.78.37.78.59a.58.58,0,0,1-.17.33c-.14.14-.27.16-1,.16s-.87,0-.87.18,0,.17,1,.14,1,0,1.21-.23a.64.64,0,0,0,.21-.56c0-.51-.23-.72-1.1-1s-1.19-.58-.83-.9c.13-.11.33-.15.92-.15s.76,0,.76-.16,0-.17-.8-.17A3.64,3.64,0,0,0,50.86,16.26Z"/>
      </g>
      <g>
        <path class="cls-1" d="M1.07,26.22a1.32,1.32,0,0,1-.53-.1.91.91,0,0,1-.4-.35A1.29,1.29,0,0,1,0,25.13v-1.5A1.19,1.19,0,0,1,.15,23a.94.94,0,0,1,.39-.35,1.32,1.32,0,0,1,.53-.1,1.39,1.39,0,0,1,.58.11A.88.88,0,0,1,2,23a.79.79,0,0,1,.13.45c0,.09,0,.15,0,.18a.23.23,0,0,1-.16.05.33.33,0,0,1-.15,0,.2.2,0,0,1-.06-.11,1.11,1.11,0,0,0,0-.17.82.82,0,0,0-.09-.19.53.53,0,0,0-.2-.15.8.8,0,0,0-.34-.06.65.65,0,0,0-.49.17.76.76,0,0,0-.17.54v1.5a.76.76,0,0,0,.17.54.69.69,0,0,0,.51.17.75.75,0,0,0,.33-.06.45.45,0,0,0,.18-.15.66.66,0,0,0,.09-.19.68.68,0,0,0,0-.19.17.17,0,0,1,.06-.11.24.24,0,0,1,.15,0,.23.23,0,0,1,.16,0s0,.09,0,.19a.81.81,0,0,1-.13.45.87.87,0,0,1-.37.31A1.31,1.31,0,0,1,1.07,26.22Z"/>
        <path class="cls-1" d="M3.47,26.23A1,1,0,0,1,3,26.1a1,1,0,0,1-.36-.36.86.86,0,0,1-.14-.47V24a.15.15,0,0,1,.07-.1.25.25,0,0,1,.15-.05.24.24,0,0,1,.14.05.14.14,0,0,1,.06.1v1.3a.54.54,0,0,0,.08.28.61.61,0,0,0,.2.22.52.52,0,0,0,.29.09.48.48,0,0,0,.29-.09A.56.56,0,0,0,4,25.55.54.54,0,0,0,4,25.27V24a.11.11,0,0,1,.06-.1.25.25,0,0,1,.3,0,.12.12,0,0,1,0,.1v1.3a.91.91,0,0,1-.13.48A1.1,1.1,0,0,1,4,26.1.92.92,0,0,1,3.47,26.23Z"/>
        <path class="cls-1" d="M5.11,23.17a.26.26,0,0,1-.19-.07.22.22,0,0,1-.07-.17.2.2,0,0,1,.07-.16.26.26,0,0,1,.19-.07.24.24,0,0,1,.18.07.2.2,0,0,1,.07.16.22.22,0,0,1-.07.17A.24.24,0,0,1,5.11,23.17Zm0,3A.2.2,0,0,1,5,26.14.12.12,0,0,1,4.9,26V24A.13.13,0,0,1,5,23.86a.33.33,0,0,1,.15,0,.37.37,0,0,1,.15,0,.13.13,0,0,1,.06.11V26a.12.12,0,0,1-.06.1A.21.21,0,0,1,5.11,26.19Z"/>
        <path class="cls-1" d="M6.58,26.23a.69.69,0,0,1-.43-.14,1,1,0,0,1-.45-.83v-.51a1,1,0,0,1,.45-.83.84.84,0,0,1,.44-.13.69.69,0,0,1,.41.12.87.87,0,0,1,.25.26V22.54a.13.13,0,0,1,.06-.11.37.37,0,0,1,.15,0,.3.3,0,0,1,.15,0,.13.13,0,0,1,.06.11V26a.12.12,0,0,1-.06.1.18.18,0,0,1-.15.05.17.17,0,0,1-.13-.05.12.12,0,0,1-.06-.1v-.2a.66.66,0,0,1-.27.28A.82.82,0,0,1,6.58,26.23Zm.11-.37A.47.47,0,0,0,7,25.77a.64.64,0,0,0,.2-.2.28.28,0,0,0,.08-.17v-.65a.59.59,0,0,0-.08-.31.66.66,0,0,0-.21-.2.54.54,0,0,0-.27-.07.57.57,0,0,0-.29.08.63.63,0,0,0-.21.22.58.58,0,0,0-.07.28v.51a.62.62,0,0,0,.07.29.56.56,0,0,0,.21.22A.5.5,0,0,0,6.69,25.86Z"/>
        <path class="cls-1" d="M8.67,26.23a.71.71,0,0,1-.48-.16.63.63,0,0,1-.2-.5.58.58,0,0,1,.15-.43.84.84,0,0,1,.41-.21,2.8,2.8,0,0,1,.61-.06H9.4v-.1a.8.8,0,0,0-.06-.3.48.48,0,0,0-.17-.23.51.51,0,0,0-.32-.09,1,1,0,0,0-.28,0,.79.79,0,0,0-.16.08l-.11,0a.12.12,0,0,1-.11-.07.25.25,0,0,1,0-.14s0-.1.11-.14a.84.84,0,0,1,.27-.11,1.86,1.86,0,0,1,.33,0,1,1,0,0,1,.56.14.86.86,0,0,1,.3.36,1.27,1.27,0,0,1,.09.47V26a.16.16,0,0,1-.05.11.24.24,0,0,1-.15,0,.23.23,0,0,1-.14,0A.16.16,0,0,1,9.42,26v-.2a1.43,1.43,0,0,1-.32.27A.77.77,0,0,1,8.67,26.23Zm.12-.33a.6.6,0,0,0,.29-.08.9.9,0,0,0,.23-.2.4.4,0,0,0,.09-.23v-.26H9.22l-.39,0a.8.8,0,0,0-.31.11.3.3,0,0,0-.11.26.37.37,0,0,0,.11.29A.4.4,0,0,0,8.79,25.9Z"/>
        <path class="cls-1" d="M12,26.19a.94.94,0,0,1-.62-.18.71.71,0,0,1-.21-.57V22.86a.11.11,0,0,1,.06-.1.25.25,0,0,1,.14,0,.24.24,0,0,1,.15,0,.11.11,0,0,1,.06.1v1h.63a.14.14,0,0,1,.1.05.24.24,0,0,1,0,.12.2.2,0,0,1,0,.11.14.14,0,0,1-.1,0h-.63v1.29a.38.38,0,0,0,.1.3.45.45,0,0,0,.32.09h.15a.2.2,0,0,1,.14.05.2.2,0,0,1,0,.13.17.17,0,0,1,0,.12.17.17,0,0,1-.14.06Z"/>
        <path class="cls-1" d="M13.55,26.23a1,1,0,0,1-.5-.13,1,1,0,0,1-.36-.36.86.86,0,0,1-.14-.47V24a.15.15,0,0,1,.07-.1.24.24,0,0,1,.14-.05.25.25,0,0,1,.15.05A.14.14,0,0,1,13,24v1.3a.54.54,0,0,0,.08.28.61.61,0,0,0,.2.22.52.52,0,0,0,.29.09.48.48,0,0,0,.29-.09.56.56,0,0,0,.21-.22.53.53,0,0,0,.07-.28V24a.12.12,0,0,1,.07-.1.24.24,0,0,1,.14-.05.21.21,0,0,1,.15.05.11.11,0,0,1,.06.1v1.3a.91.91,0,0,1-.13.48,1.1,1.1,0,0,1-.36.35A.92.92,0,0,1,13.55,26.23Z"/>
        <path class="cls-1" d="M16.07,27.34a.24.24,0,0,1-.14-.05.14.14,0,0,1-.06-.1V24a.13.13,0,0,1,.06-.11.33.33,0,0,1,.14,0,.26.26,0,0,1,.14,0,.13.13,0,0,1,.06.11v.2a1,1,0,0,1,.25-.26.74.74,0,0,1,.42-.12.85.85,0,0,1,.45.13,1,1,0,0,1,.45.83v.51a1,1,0,0,1-.12.48,1.1,1.1,0,0,1-.33.35.7.7,0,0,1-.44.14.77.77,0,0,1-.4-.11.69.69,0,0,1-.26-.28v1.35a.14.14,0,0,1-.06.1A.3.3,0,0,1,16.07,27.34Zm.78-1.48a.47.47,0,0,0,.28-.09.56.56,0,0,0,.21-.22.53.53,0,0,0,.08-.29v-.51a.5.5,0,0,0-.08-.28.63.63,0,0,0-.21-.22.55.55,0,0,0-.29-.08.51.51,0,0,0-.26.07.66.66,0,0,0-.21.2.59.59,0,0,0-.08.31v.65a.32.32,0,0,0,.07.17.76.76,0,0,0,.2.2A.5.5,0,0,0,16.85,25.86Z"/>
        <path class="cls-1" d="M18.43,23.17a.23.23,0,0,1-.18-.07.2.2,0,0,1-.08-.17.18.18,0,0,1,.08-.16.23.23,0,0,1,.18-.07.24.24,0,0,1,.18.07.2.2,0,0,1,.07.16.22.22,0,0,1-.07.17A.24.24,0,0,1,18.43,23.17Zm0,3a.2.2,0,0,1-.15-.05.12.12,0,0,1-.06-.1V24a.13.13,0,0,1,.06-.11.3.3,0,0,1,.3,0,.13.13,0,0,1,.06.11V26a.12.12,0,0,1-.06.1A.2.2,0,0,1,18.43,26.19Z"/>
        <path class="cls-1" d="M20.13,26.23a1.32,1.32,0,0,1-.57-.12,1,1,0,0,1-.4-.34.93.93,0,0,1-.14-.51v-.52a.86.86,0,0,1,.14-.47,1,1,0,0,1,.36-.35,1,1,0,0,1,.49-.13,1,1,0,0,1,.48.12.93.93,0,0,1,.35.33.81.81,0,0,1,.13.47.52.52,0,0,1-.06.29.28.28,0,0,1-.17.11l-.21,0h-1.1v.15a.56.56,0,0,0,.2.44.81.81,0,0,0,.52.16.6.6,0,0,0,.29-.05.74.74,0,0,0,.18-.09.2.2,0,0,1,.13,0,.12.12,0,0,1,.09,0,.16.16,0,0,1,.06.08.24.24,0,0,1,0,.08s0,.09-.1.14a.68.68,0,0,1-.27.15A1.33,1.33,0,0,1,20.13,26.23Zm-.7-1.38h.93a.26.26,0,0,0,.18,0s0-.06,0-.12a.55.55,0,0,0-.07-.28.7.7,0,0,0-.21-.21.55.55,0,0,0-.29-.08.6.6,0,0,0-.29.08.63.63,0,0,0-.21.19.57.57,0,0,0-.08.28Z"/>
        <path class="cls-1" d="M21.57,26.19a.2.2,0,0,1-.15-.05.12.12,0,0,1-.06-.1v-3.5a.13.13,0,0,1,.06-.11.33.33,0,0,1,.15,0,.37.37,0,0,1,.15,0,.13.13,0,0,1,.06.11V26a.12.12,0,0,1-.06.1A.21.21,0,0,1,21.57,26.19Z"/>
        <path class="cls-1" d="M22.38,26.64a.14.14,0,0,1-.1,0,.1.1,0,0,1-.05-.08.13.13,0,0,1,0-.06l.1-.26a.31.31,0,0,1-.11-.09.27.27,0,0,1-.05-.15.29.29,0,0,1,.08-.19.27.27,0,0,1,.36,0,.22.22,0,0,1,.08.19V26a.27.27,0,0,1,0,.08,1.2,1.2,0,0,1-.06.17l-.12.31a.12.12,0,0,1,0,.05Z"/>
        <path class="cls-1" d="M24.15,26.19a.19.19,0,0,1-.14-.05A.12.12,0,0,1,24,26V24a.13.13,0,0,1,.06-.11.33.33,0,0,1,.14,0,.26.26,0,0,1,.14,0,.13.13,0,0,1,.06.11v.23A.9.9,0,0,1,24.5,24a.69.69,0,0,1,.22-.16.67.67,0,0,1,.28-.06h.17a.16.16,0,0,1,.12.06.23.23,0,0,1,0,.26.16.16,0,0,1-.12.06H25a.58.58,0,0,0-.3.09.64.64,0,0,0-.24.25.8.8,0,0,0-.09.39V26a.12.12,0,0,1-.06.1A.24.24,0,0,1,24.15,26.19Z"/>
        <path class="cls-1" d="M26.48,26.23a1.32,1.32,0,0,1-.57-.12,1,1,0,0,1-.4-.34.93.93,0,0,1-.14-.51v-.52a.86.86,0,0,1,.14-.47,1,1,0,0,1,.36-.35,1,1,0,0,1,.49-.13,1,1,0,0,1,.48.12.93.93,0,0,1,.35.33.81.81,0,0,1,.13.47.52.52,0,0,1-.06.29.28.28,0,0,1-.17.11l-.21,0h-1.1v.15a.56.56,0,0,0,.2.44.81.81,0,0,0,.52.16.6.6,0,0,0,.29-.05.74.74,0,0,0,.18-.09.2.2,0,0,1,.13,0,.12.12,0,0,1,.09,0,.16.16,0,0,1,.06.08.24.24,0,0,1,0,.08s0,.09-.1.14a.68.68,0,0,1-.27.15A1.33,1.33,0,0,1,26.48,26.23Zm-.7-1.38h.93a.26.26,0,0,0,.18,0s0-.06,0-.12a.55.55,0,0,0-.07-.28.7.7,0,0,0-.21-.21.55.55,0,0,0-.29-.08.6.6,0,0,0-.29.08.63.63,0,0,0-.21.19.57.57,0,0,0-.08.28Z"/>
        <path class="cls-1" d="M28.35,26.23a1.44,1.44,0,0,1-.43-.06.87.87,0,0,1-.29-.15.21.21,0,0,1-.1-.17.31.31,0,0,1,0-.08.18.18,0,0,1,.05-.07.09.09,0,0,1,.07,0,.19.19,0,0,1,.13.06,1,1,0,0,0,.19.12.82.82,0,0,0,.35.06.51.51,0,0,0,.37-.1.28.28,0,0,0,.1-.22.32.32,0,0,0-.09-.24.82.82,0,0,0-.23-.13l-.29-.09L27.9,25a.59.59,0,0,1-.22-.19.54.54,0,0,1-.09-.33.72.72,0,0,1,.08-.32.61.61,0,0,1,.26-.27,1,1,0,0,1,.48-.11,1.27,1.27,0,0,1,.34,0,.88.88,0,0,1,.26.1.17.17,0,0,1,.1.13.13.13,0,0,1,0,.08.19.19,0,0,1-.05.09.1.1,0,0,1-.09,0l-.11,0-.18-.08a.9.9,0,0,0-.25,0,.63.63,0,0,0-.26.05.41.41,0,0,0-.15.14.29.29,0,0,0,0,.16.22.22,0,0,0,.09.19.55.55,0,0,0,.23.12l.29.08a1.34,1.34,0,0,1,.3.12.66.66,0,0,1,.23.21.64.64,0,0,1,.09.36.59.59,0,0,1-.22.49A1,1,0,0,1,28.35,26.23Z"/>
        <path class="cls-1" d="M30.05,26.23a.71.71,0,0,1-.48-.16.63.63,0,0,1-.2-.5.58.58,0,0,1,.15-.43.83.83,0,0,1,.42-.21,2.64,2.64,0,0,1,.6-.06h.24v-.1a.79.79,0,0,0-.05-.3.66.66,0,0,0-.17-.23.54.54,0,0,0-.33-.09,1,1,0,0,0-.27,0,.91.91,0,0,0-.17.08l-.1,0a.13.13,0,0,1-.12-.07.37.37,0,0,1,0-.14s0-.1.11-.14a1,1,0,0,1,.28-.11,1.87,1.87,0,0,1,.32,0,1,1,0,0,1,.56.14,1,1,0,0,1,.31.36,1.27,1.27,0,0,1,.09.47V26a.14.14,0,0,1-.06.11.24.24,0,0,1-.15,0,.2.2,0,0,1-.13,0A.14.14,0,0,1,30.8,26v-.2a1.37,1.37,0,0,1-.31.27A.78.78,0,0,1,30.05,26.23Zm.13-.33a.57.57,0,0,0,.28-.08.9.9,0,0,0,.23-.2.4.4,0,0,0,.09-.23v-.26h-.17l-.4,0a.82.82,0,0,0-.3.11.29.29,0,0,0-.12.26.37.37,0,0,0,.11.29A.45.45,0,0,0,30.18,25.9Z"/>
        <path class="cls-1" d="M31.9,26.19a.2.2,0,0,1-.15-.05.12.12,0,0,1-.06-.1v-3.5a.13.13,0,0,1,.06-.11.33.33,0,0,1,.15,0,.37.37,0,0,1,.15,0,.13.13,0,0,1,.06.11V26a.12.12,0,0,1-.06.1A.21.21,0,0,1,31.9,26.19Z"/>
        <path class="cls-1" d="M33.45,26.19a.94.94,0,0,1-.62-.18.71.71,0,0,1-.21-.57V22.86a.11.11,0,0,1,.06-.1.25.25,0,0,1,.14,0,.24.24,0,0,1,.15,0,.11.11,0,0,1,.06.1v1h.63a.14.14,0,0,1,.1.05.24.24,0,0,1,0,.12.2.2,0,0,1,0,.11.14.14,0,0,1-.1,0H33v1.29a.38.38,0,0,0,.1.3.45.45,0,0,0,.32.09h.15a.2.2,0,0,1,.14.05.2.2,0,0,1,0,.13.17.17,0,0,1,0,.12.17.17,0,0,1-.14.06Z"/>
        <path class="cls-1" d="M34.58,26.23a.71.71,0,0,1-.48-.16.63.63,0,0,1-.2-.5.58.58,0,0,1,.15-.43.83.83,0,0,1,.42-.21,2.64,2.64,0,0,1,.6-.06h.24v-.1a1,1,0,0,0-.05-.3.66.66,0,0,0-.17-.23.54.54,0,0,0-.33-.09,1,1,0,0,0-.27,0,.91.91,0,0,0-.17.08l-.1,0a.13.13,0,0,1-.12-.07.37.37,0,0,1,0-.14s0-.1.11-.14a1,1,0,0,1,.28-.11,1.87,1.87,0,0,1,.32,0,1,1,0,0,1,.56.14,1,1,0,0,1,.31.36,1.27,1.27,0,0,1,.09.47V26a.14.14,0,0,1-.06.11.24.24,0,0,1-.15,0,.2.2,0,0,1-.13,0,.14.14,0,0,1-.06-.11v-.2a1.37,1.37,0,0,1-.31.27A.78.78,0,0,1,34.58,26.23Zm.13-.33a.57.57,0,0,0,.28-.08.9.9,0,0,0,.23-.2.4.4,0,0,0,.09-.23v-.26h-.17l-.4,0a.82.82,0,0,0-.3.11.29.29,0,0,0-.12.26.37.37,0,0,0,.11.29A.45.45,0,0,0,34.71,25.9Z"/>
        <path class="cls-1" d="M37.88,26.19a.91.91,0,0,1-.61-.18.68.68,0,0,1-.22-.57V22.86a.12.12,0,0,1,.07-.1.27.27,0,0,1,.28,0,.1.1,0,0,1,.07.1v1h.63a.11.11,0,0,1,.09.05.24.24,0,0,1,0,.12.2.2,0,0,1,0,.11.11.11,0,0,1-.09,0h-.63v1.29a.41.41,0,0,0,.09.3.45.45,0,0,0,.32.09H38a.17.17,0,0,1,.13.05.21.21,0,0,1,0,.13.18.18,0,0,1,0,.12.15.15,0,0,1-.13.06Z"/>
        <path class="cls-1" d="M39.46,26.23a1,1,0,0,1-.5-.13,1,1,0,0,1-.36-.36.85.85,0,0,1-.13-.47V24a.14.14,0,0,1,.06-.1.25.25,0,0,1,.15-.05.22.22,0,0,1,.14.05.14.14,0,0,1,.06.1v1.3a.54.54,0,0,0,.08.28.56.56,0,0,0,.21.22.51.51,0,0,0,.58,0,.53.53,0,0,0,.2-.22.54.54,0,0,0,.08-.28V24a.11.11,0,0,1,.06-.1.3.3,0,0,1,.15-.05.25.25,0,0,1,.15.05.1.1,0,0,1,0,.1v1.3a.91.91,0,0,1-.13.48,1.1,1.1,0,0,1-.36.35A.92.92,0,0,1,39.46,26.23Z"/>
        <path class="cls-1" d="M42.87,26.23a.88.88,0,0,1-.42-.11.8.8,0,0,1-.27-.28V26a.11.11,0,0,1,0,.1.17.17,0,0,1-.14.05.16.16,0,0,1-.14-.05.12.12,0,0,1-.06-.1v-3.5a.13.13,0,0,1,.06-.11.26.26,0,0,1,.14,0,.33.33,0,0,1,.15,0,.13.13,0,0,1,.06.11v1.63a1,1,0,0,1,.25-.26.69.69,0,0,1,.41-.12.9.9,0,0,1,.45.13,1.07,1.07,0,0,1,.32.35,1,1,0,0,1,.12.48v.51a1,1,0,0,1-.12.48,1.07,1.07,0,0,1-.32.35A.7.7,0,0,1,42.87,26.23Zm-.1-.37a.47.47,0,0,0,.28-.09.56.56,0,0,0,.21-.22.63.63,0,0,0,.08-.29v-.51a.6.6,0,0,0-.08-.28.63.63,0,0,0-.21-.22.55.55,0,0,0-.29-.08.57.57,0,0,0-.47.27.52.52,0,0,0-.09.31v.65a.36.36,0,0,0,.08.17.76.76,0,0,0,.2.2A.52.52,0,0,0,42.77,25.86Z"/>
        <path class="cls-1" d="M45.16,26.23a1.32,1.32,0,0,1-.57-.12,1,1,0,0,1-.4-.34.93.93,0,0,1-.14-.51v-.52a.79.79,0,0,1,.14-.47,1,1,0,0,1,.36-.35,1,1,0,0,1,.49-.13,1,1,0,0,1,.48.12.93.93,0,0,1,.35.33.81.81,0,0,1,.13.47.52.52,0,0,1-.06.29.28.28,0,0,1-.17.11l-.21,0h-1.1v.15a.56.56,0,0,0,.2.44.81.81,0,0,0,.52.16.6.6,0,0,0,.29-.05.74.74,0,0,0,.18-.09.2.2,0,0,1,.13,0,.12.12,0,0,1,.09,0,.16.16,0,0,1,.06.08.24.24,0,0,1,0,.08s0,.09-.1.14a.68.68,0,0,1-.27.15A1.33,1.33,0,0,1,45.16,26.23Zm-.7-1.38h.93a.26.26,0,0,0,.18,0,.17.17,0,0,0,0-.12.68.68,0,0,0-.07-.28.7.7,0,0,0-.21-.21.55.55,0,0,0-.29-.08.6.6,0,0,0-.29.08.63.63,0,0,0-.21.19.57.57,0,0,0-.08.28Z"/>
        <path class="cls-1" d="M46.6,26.19a.2.2,0,0,1-.15-.05.12.12,0,0,1-.06-.1v-3.5a.13.13,0,0,1,.06-.11.33.33,0,0,1,.15,0,.37.37,0,0,1,.15,0,.13.13,0,0,1,.06.11V26a.12.12,0,0,1-.06.1A.21.21,0,0,1,46.6,26.19Z"/>
        <path class="cls-1" d="M47.58,26.19a.2.2,0,0,1-.15-.05.12.12,0,0,1-.06-.1v-3.5a.13.13,0,0,1,.06-.11.33.33,0,0,1,.15,0,.37.37,0,0,1,.15,0,.13.13,0,0,1,.06.11V26a.12.12,0,0,1-.06.1A.21.21,0,0,1,47.58,26.19Z"/>
        <path class="cls-1" d="M49.33,26.23a1.32,1.32,0,0,1-.57-.12,1,1,0,0,1-.4-.34.93.93,0,0,1-.14-.51v-.52a.79.79,0,0,1,.14-.47,1,1,0,0,1,.36-.35,1,1,0,0,1,.49-.13,1,1,0,0,1,.48.12.93.93,0,0,1,.35.33.81.81,0,0,1,.13.47.52.52,0,0,1-.06.29.28.28,0,0,1-.17.11l-.21,0h-1.1v.15a.56.56,0,0,0,.2.44.81.81,0,0,0,.52.16.6.6,0,0,0,.29-.05.74.74,0,0,0,.18-.09.2.2,0,0,1,.13,0,.12.12,0,0,1,.09,0,.24.24,0,0,1,.06.08.24.24,0,0,1,0,.08s0,.09-.1.14a.68.68,0,0,1-.27.15A1.33,1.33,0,0,1,49.33,26.23Zm-.7-1.38h.93a.26.26,0,0,0,.18,0,.17.17,0,0,0,0-.12.68.68,0,0,0-.07-.28.7.7,0,0,0-.21-.21.55.55,0,0,0-.29-.08.6.6,0,0,0-.29.08.63.63,0,0,0-.21.19.57.57,0,0,0-.08.28Z"/>
        <path class="cls-1" d="M50.49,26.19a.12.12,0,0,1-.11-.05.13.13,0,0,1,0-.1.29.29,0,0,1,0-.09.59.59,0,0,1,0-.08l1.16-1.69h-1a.12.12,0,0,1-.09-.05.21.21,0,0,1,0-.13.21.21,0,0,1,0-.12.12.12,0,0,1,.1-.06H52a.21.21,0,0,1,.11,0,.16.16,0,0,1,0,.12.25.25,0,0,1-.06.16l-1.16,1.7H52a.11.11,0,0,1,.1.05.18.18,0,0,1,0,.13.19.19,0,0,1,0,.12.14.14,0,0,1-.1.05Z"/>
        <path class="cls-1" d="M53,26.23a.71.71,0,0,1-.47-.16.63.63,0,0,1-.2-.5.58.58,0,0,1,.15-.43.84.84,0,0,1,.41-.21,2.8,2.8,0,0,1,.61-.06h.24v-.1a.8.8,0,0,0-.06-.3.48.48,0,0,0-.17-.23.51.51,0,0,0-.32-.09,1,1,0,0,0-.28,0,.79.79,0,0,0-.16.08l-.11,0a.12.12,0,0,1-.11-.07.25.25,0,0,1,0-.14s0-.1.11-.14a.84.84,0,0,1,.27-.11,1.86,1.86,0,0,1,.33,0,1,1,0,0,1,.56.14.86.86,0,0,1,.3.36,1.27,1.27,0,0,1,.09.47V26a.16.16,0,0,1,0,.11.24.24,0,0,1-.15,0,.23.23,0,0,1-.14,0,.16.16,0,0,1-.05-.11v-.2a1.43,1.43,0,0,1-.32.27A.78.78,0,0,1,53,26.23Zm.13-.33a.63.63,0,0,0,.29-.08,1.1,1.1,0,0,0,.23-.2.4.4,0,0,0,.09-.23v-.26h-.18l-.39,0a.8.8,0,0,0-.31.11.3.3,0,0,0-.11.26.37.37,0,0,0,.11.29A.4.4,0,0,0,53.1,25.9Z"/>
      </g>
    </g>
  </g>
</svg>
