<svg xmlns="http://www.w3.org/2000/svg" viewBox="0 0 54.2 27.34">
  <defs>
    <style>
      .cls-1 {
        fill: #f4a7ab;
      }
    </style>
  </defs>
  <g id="Capa_2" data-name="Capa 2">
    <g id="Capa_1-2" data-name="Capa 1">
      <g id="DISEÑO">
        <g>
          <path d="M4,4.72c0,4.2,0,4.79.17,5.23a4.47,4.47,0,0,0,8.67-.25,4.7,4.7,0,0,0-2.27-5.23A4.22,4.22,0,0,0,8.13,4a4,4,0,0,0-2.32.76l-.51.35v.81a5.48,5.48,0,0,0,0,.81,3.42,3.42,0,0,0,.43-.42,3.38,3.38,0,0,1,6,2,4.77,4.77,0,0,1-.05,1.07,3.43,3.43,0,0,1-3,2.74A3.25,3.25,0,0,1,5.32,9.89c-.18-.52-.19-.55-.21-5.21L5.08,0H3.91Z"/>
          <path d="M33.43,6.31v4.56l.24.53a2.71,2.71,0,0,0,1.23,1.27,6.26,6.26,0,0,0,2.14.41h.52V12h-.8c-1.09-.07-1.59-.3-1.92-.86l-.24-.41V5.28h3V4.17h-3V1.75H33.4Z"/>
          <path d="M16.89,4.12a4.42,4.42,0,0,0-3.19,4.1A4.57,4.57,0,0,0,16.78,13a4.84,4.84,0,0,0,3.76-.44c.78-.49.79-.5.79-1.39v-.79l-.55.56a3.45,3.45,0,0,1-4.14.78,3.65,3.65,0,0,1,.42-6.48,3.55,3.55,0,0,1,2.32,0A3.41,3.41,0,0,1,21,6.78c.42.85.48,1.3.48,3.9v2.4h1.17v-2.4c0-2.77-.09-3.4-.54-4.32a4.1,4.1,0,0,0-.88-1.15A4,4,0,0,0,18.08,4,6.76,6.76,0,0,0,16.89,4.12Z"/>
          <path d="M26.87,4.11A3.52,3.52,0,0,0,24.56,6.5c-.16.5-.18.76-.21,3.55v3h1.17V10c0-3,0-3.06.22-3.48A2.47,2.47,0,0,1,28.07,5a2.32,2.32,0,0,1,1.84.82c.61.69.63.78.66,4.17v3h1.07V10.16a31.16,31.16,0,0,0-.09-3.35,3.68,3.68,0,0,0-2-2.54A3,3,0,0,0,28.16,4,5.08,5.08,0,0,0,26.87,4.11Z"/>
          <path d="M41.42,4.13a4.38,4.38,0,0,0-3.15,4.16A4.47,4.47,0,0,0,41.37,13a4.82,4.82,0,0,0,3.75-.44c.78-.49.79-.5.79-1.39v-.79l-.62.58a4.6,4.6,0,0,1-1.07.8,3.26,3.26,0,0,1-3.79-.63,3.52,3.52,0,0,1-.9-1.62,3.52,3.52,0,0,1,2.41-4.34l.3-.07A3.2,3.2,0,0,1,46,7.67l0,.22a17.19,17.19,0,0,1,.12,2.87v2.32h1.19V10.43a28.48,28.48,0,0,0-.14-3.06A4.51,4.51,0,0,0,43.9,4.12,6.67,6.67,0,0,0,41.42,4.13Z"/>
          <path d="M52.1,4.17A3.58,3.58,0,0,0,50.51,5l-.35.32V4.17H49.07v8.91h1.08V10.26c0-2.68,0-2.82.22-3.27a3.14,3.14,0,0,1,1.25-1.47,2,2,0,0,1,1.2-.26h.81V4.71c0-.48,0-.53-.18-.58A4.37,4.37,0,0,0,52.1,4.17Z"/>
          <path d="M32.16,17c0,2.28,0,2.34.17,2.34s.17-.06.17-2.34,0-2.33-.17-2.33S32.16,14.72,32.16,17Z"/>
          <path d="M39.09,15.3c0,.17.07.24.19.24s.24-.41,0-.45S39.07,15.09,39.09,15.3Z"/>
          <path d="M29.25,16.26a2.21,2.21,0,0,0-.63.55,1.3,1.3,0,0,0-.25.93,1.32,1.32,0,0,0,.25.94,1.6,1.6,0,0,0,2.8-.23,2,2,0,0,0,.16-.71A1.61,1.61,0,0,0,30,16.09,1.57,1.57,0,0,0,29.25,16.26Zm1.22.29a1.36,1.36,0,0,1,0,2.38,1,1,0,0,1-1,0,1.35,1.35,0,0,1,0-2.3A1,1,0,0,1,30.47,16.55Z"/>
          <path d="M40.94,16.24a1.71,1.71,0,0,0-.74,2.29,2.39,2.39,0,0,0,.13.21,1.63,1.63,0,1,0,.61-2.5Zm1.38.41a1.36,1.36,0,0,1,.23,1.92,1.32,1.32,0,0,1-.42.36,1,1,0,0,1-1.05,0,1.27,1.27,0,0,1-.65-1.27,1.22,1.22,0,0,1,.65-1.05A1.16,1.16,0,0,1,42.32,16.65Z"/>
          <path d="M44.53,16.19c-.61.28-.79.75-.79,2.15,0,.93,0,1,.17,1s.16-.06.17-1c0-1.14.09-1.48.49-1.74a.81.81,0,0,1,1,0c.42.25.47.44.51,1.64,0,1,0,1.11.19,1.11s.16-.08.16-1c0-1.07-.09-1.54-.36-1.84A1.4,1.4,0,0,0,44.53,16.19Z"/>
          <path d="M47.91,16.21a1.58,1.58,0,0,0-1,1.67,1.21,1.21,0,0,0,.29.83,1.42,1.42,0,0,0,1.12.67,1.55,1.55,0,0,0,1.73-1.18c.13-.45.12-.46-.1-.46s-.2.07-.29.37a1.49,1.49,0,0,1-.89.93,1.32,1.32,0,0,1-1.49-1.12,1.24,1.24,0,0,1,0-.54,1.43,1.43,0,0,1,.94-.93,1,1,0,0,1,.93.22l.22.17-.94.64-1,.65a.21.21,0,0,0,.09.16c.09.06.22.07,1.2-.6l1.11-.75c.09-.08-.34-.5-.66-.68A1.57,1.57,0,0,0,47.91,16.21Z"/>
          <path d="M26,16.24a.64.64,0,0,0-.4.69c0,.46.24.66,1.13.93a3.13,3.13,0,0,1,.78.32c.19.25.19.4,0,.61s-.26.2-1.09.2-.87,0-.87.17.06.17.87.17c1,0,1.42-.13,1.54-.46.25-.64-.06-1-1.05-1.33-.73-.23-.95-.37-.95-.63s.22-.42,1.05-.42.79,0,.79-.16-.05-.17-.81-.16A4.72,4.72,0,0,0,26,16.24Z"/>
          <path d="M33.25,17.3c0,1.27.08,1.57.52,1.89a1.65,1.65,0,0,0,1.53,0c.44-.32.53-.62.53-1.89,0-1.08,0-1.14-.17-1.14s-.17.06-.17,1.05c0,1.17-.1,1.53-.5,1.74a.91.91,0,0,1-1.24-.34.43.43,0,0,1,0-.07,3.51,3.51,0,0,1-.13-1.33c0-1,0-1.05-.17-1.05S33.25,16.22,33.25,17.3Z"/>
          <path d="M37.37,16.32a1.45,1.45,0,0,0-.78.78,2.49,2.49,0,0,0,0,1.38,1.73,1.73,0,0,0,1.55.85c.36,0,.42,0,.42-.17S38.5,19,38.21,19A1.66,1.66,0,0,1,37,18.43a1.19,1.19,0,0,1,0-1.26,1.31,1.31,0,0,1,1.11-.66c.37,0,.46-.07.46-.19s-.07-.16-.44-.16A2.2,2.2,0,0,0,37.37,16.32Z"/>
          <path d="M39.08,17.74v1.59h.41V16.16h-.41Z"/>
          <path d="M50.86,16.26a.65.65,0,0,0-.37.65c0,.53.27.74,1.3,1,.42.1.78.37.78.59a.59.59,0,0,1-.17.33c-.14.14-.27.16-1,.16s-.87,0-.87.18,0,.17,1,.14,1,0,1.21-.23a.63.63,0,0,0,.21-.56c0-.51-.23-.72-1.1-1s-1.19-.58-.83-.9c.13-.11.33-.15.92-.15s.76,0,.76-.16,0-.17-.8-.17A3.65,3.65,0,0,0,50.86,16.26Z"/>
        </g>
        <g>
          <path class="cls-1" d="M1.07,26.22a1.39,1.39,0,0,1-.53-.1,1,1,0,0,1-.4-.35A1.3,1.3,0,0,1,0,25.13v-1.5A1.15,1.15,0,0,1,.15,23a1,1,0,0,1,.39-.35,1.39,1.39,0,0,1,.53-.1,1.28,1.28,0,0,1,.58.11A.88.88,0,0,1,2,23a.79.79,0,0,1,.13.45v.18a.22.22,0,0,1-.16.05.38.38,0,0,1-.15,0,.24.24,0,0,1-.06-.11.49.49,0,0,0,0-.17.66.66,0,0,0-.09-.19.43.43,0,0,0-.2-.15A1,1,0,0,0,1.13,23a.67.67,0,0,0-.49.17.79.79,0,0,0-.17.54v1.5a.79.79,0,0,0,.17.54.73.73,0,0,0,.51.17.75.75,0,0,0,.33-.06.38.38,0,0,0,.18-.15.66.66,0,0,0,.09-.19.61.61,0,0,0,0-.19.24.24,0,0,1,.06-.11.19.19,0,0,1,.15,0,.22.22,0,0,1,.16,0v.19a.79.79,0,0,1-.13.45.86.86,0,0,1-.37.31A1.28,1.28,0,0,1,1.07,26.22Z"/>
          <path class="cls-1" d="M3.47,26.23A1,1,0,0,1,3,26.1a1,1,0,0,1-.36-.36.86.86,0,0,1-.14-.47V24a.14.14,0,0,1,.07-.1.27.27,0,0,1,.15,0,.24.24,0,0,1,.14,0,.13.13,0,0,1,.06.1v1.3a.54.54,0,0,0,.08.28.7.7,0,0,0,.2.22.52.52,0,0,0,.29.09.5.5,0,0,0,.29-.09A.59.59,0,0,0,4,25.55a.45.45,0,0,0,0-.28V24a.11.11,0,0,1,.06-.1.24.24,0,0,1,.3,0,.09.09,0,0,1,0,.1v1.3a.89.89,0,0,1-.13.48A1,1,0,0,1,4,26.1.89.89,0,0,1,3.47,26.23Z"/>
          <path class="cls-1" d="M5.11,23.17a.26.26,0,0,1-.19-.07.22.22,0,0,1-.07-.17.2.2,0,0,1,.07-.16.26.26,0,0,1,.19-.07.24.24,0,0,1,.18.07.2.2,0,0,1,.07.16.22.22,0,0,1-.07.17A.24.24,0,0,1,5.11,23.17Zm0,3a.2.2,0,0,1-.11,0A.12.12,0,0,1,4.9,26h0V24a.12.12,0,0,1,.1-.14h.3a.13.13,0,0,1,.06.11v2a.11.11,0,0,1-.06.1.2.2,0,0,1-.19.09Z"/>
          <path class="cls-1" d="M6.58,26.23a.74.74,0,0,1-.43-.14,1,1,0,0,1-.45-.83v-.51a1,1,0,0,1,.45-.83.87.87,0,0,1,.44-.13.73.73,0,0,1,.41.12.88.88,0,0,1,.25.26V22.54a.13.13,0,0,1,.06-.11h.3a.13.13,0,0,1,.06.11V26a.11.11,0,0,1-.06.1.17.17,0,0,1-.15,0,.21.21,0,0,1-.13,0,.13.13,0,0,1-.06-.1v-.2a.61.61,0,0,1-.27.28A.79.79,0,0,1,6.58,26.23Zm.11-.37A.44.44,0,0,0,7,25.77a.64.64,0,0,0,.2-.2.3.3,0,0,0,.08-.17v-.65a.55.55,0,0,0-.08-.31.58.58,0,0,0-.21-.2.5.5,0,0,0-.27-.07.6.6,0,0,0-.29.08.63.63,0,0,0-.21.22.55.55,0,0,0-.07.28v.51a.59.59,0,0,0,.07.29.56.56,0,0,0,.21.22A.62.62,0,0,0,6.69,25.86Z"/>
          <path class="cls-1" d="M8.67,26.23a.71.71,0,0,1-.48-.16.63.63,0,0,1-.2-.5.57.57,0,0,1,.15-.43.85.85,0,0,1,.41-.21,3.15,3.15,0,0,1,.61-.06H9.4v-.1a.8.8,0,0,0-.06-.3.48.48,0,0,0-.17-.23.52.52,0,0,0-.32-.09H8.57l-.16.08H8.3a.12.12,0,0,1-.11-.07.33.33,0,0,1,0-.14.16.16,0,0,1,.11-.14.9.9,0,0,1,.27-.11H8.9a1,1,0,0,1,.56.14.81.81,0,0,1,.3.36,1.27,1.27,0,0,1,.09.47V26a.16.16,0,0,1,0,.11.19.19,0,0,1-.15,0,.33.33,0,0,1-.14,0A.17.17,0,0,1,9.42,26v-.2a1.18,1.18,0,0,1-.32.27A.73.73,0,0,1,8.67,26.23Zm.12-.33a.6.6,0,0,0,.29-.08.74.74,0,0,0,.23-.2.41.41,0,0,0,.09-.23v-.26H8.83a.72.72,0,0,0-.31.11.29.29,0,0,0-.11.26.36.36,0,0,0,.11.29A.39.39,0,0,0,8.79,25.9Z"/>
          <path class="cls-1" d="M12,26.19a.92.92,0,0,1-.62-.18.72.72,0,0,1-.21-.57V22.86a.11.11,0,0,1,.06-.1.33.33,0,0,1,.14,0,.19.19,0,0,1,.15,0,.11.11,0,0,1,.06.1v1h.63a.12.12,0,0,1,.1.05.24.24,0,0,1,0,.12.21.21,0,0,1,0,.11h-.73v1.29a.41.41,0,0,0,.1.3.46.46,0,0,0,.32.09h.15a.24.24,0,0,1,.14.05.15.15,0,0,1,0,.13.13.13,0,0,1,0,.12.18.18,0,0,1-.14.06Z"/>
          <path class="cls-1" d="M13.55,26.23a1,1,0,0,1-.5-.13,1,1,0,0,1-.36-.36.86.86,0,0,1-.14-.47V24a.14.14,0,0,1,.07-.1.24.24,0,0,1,.14,0,.25.25,0,0,1,.15,0A.13.13,0,0,1,13,24v1.3a.54.54,0,0,0,.08.28.7.7,0,0,0,.2.22.52.52,0,0,0,.29.09.5.5,0,0,0,.29-.09.58.58,0,0,0,.28-.5V24a.12.12,0,0,1,.07-.1.24.24,0,0,1,.14,0,.2.2,0,0,1,.15,0,.11.11,0,0,1,.06.1v1.3a.89.89,0,0,1-.13.48,1.1,1.1,0,0,1-.36.35A.94.94,0,0,1,13.55,26.23Z"/>
          <path class="cls-1" d="M16.07,27.34a.24.24,0,0,1-.14-.05.17.17,0,0,1-.06-.1V24a.13.13,0,0,1,.06-.11.33.33,0,0,1,.14,0,.33.33,0,0,1,.14,0,.13.13,0,0,1,.06.11v.2a1,1,0,0,1,.25-.26.79.79,0,0,1,.42-.12.87.87,0,0,1,.45.13,1,1,0,0,1,.45.83v.51a1,1,0,0,1-.45.83.7.7,0,0,1-.44.14.8.8,0,0,1-.4-.11.7.7,0,0,1-.26-.28v1.35a.13.13,0,0,1-.06.1A.29.29,0,0,1,16.07,27.34Zm.78-1.48a.47.47,0,0,0,.28-.09.56.56,0,0,0,.21-.22.51.51,0,0,0,.08-.29v-.51a.54.54,0,0,0-.08-.28.63.63,0,0,0-.21-.22.6.6,0,0,0-.29-.08.48.48,0,0,0-.26.07.8.8,0,0,0-.21.2.65.65,0,0,0-.08.31v.65a.36.36,0,0,0,.07.17.64.64,0,0,0,.2.2A.52.52,0,0,0,16.85,25.86Z"/>
          <path class="cls-1" d="M18.43,23.17a.24.24,0,0,1-.18-.07.21.21,0,0,1-.08-.17.21.21,0,0,1,.08-.16.27.27,0,0,1,.36,0,.2.2,0,0,1,.07.16.22.22,0,0,1-.07.17A.24.24,0,0,1,18.43,23.17Zm0,3a.21.21,0,0,1-.15-.05.13.13,0,0,1-.06-.1V24a.13.13,0,0,1,.06-.11.32.32,0,0,1,.3,0,.13.13,0,0,1,.06.11v2a.11.11,0,0,1-.06.1.21.21,0,0,1-.15.09Z"/>
          <path class="cls-1" d="M20.13,26.23a1.39,1.39,0,0,1-.57-.12,1,1,0,0,1-.4-.34,1,1,0,0,1-.14-.51v-.52a.86.86,0,0,1,.14-.47.93.93,0,0,1,.36-.35,1.05,1.05,0,0,1,.49-.13,1,1,0,0,1,.48.12.93.93,0,0,1,.35.33.78.78,0,0,1,.13.47.49.49,0,0,1-.06.29.25.25,0,0,1-.17.11H19.43v.15a.57.57,0,0,0,.2.44.8.8,0,0,0,.52.16.58.58,0,0,0,.29-.05.61.61,0,0,0,.18-.09h.22a.16.16,0,0,1,.06.08.11.11,0,0,1,0,.08.17.17,0,0,1-.1.14.72.72,0,0,1-.27.15A1.34,1.34,0,0,1,20.13,26.23Zm-.7-1.38h.93a.28.28,0,0,0,.18,0v-.12a.55.55,0,0,0-.07-.28.57.57,0,0,0-.79-.21.76.76,0,0,0-.21.19.54.54,0,0,0-.08.28Z"/>
          <path class="cls-1" d="M21.57,26.19a.21.21,0,0,1-.15-.05.13.13,0,0,1-.06-.1v-3.5a.13.13,0,0,1,.06-.11h.3a.13.13,0,0,1,.06.11V26a.11.11,0,0,1-.06.1A.21.21,0,0,1,21.57,26.19Z"/>
          <path class="cls-1" d="M22.38,26.64h-.1a.1.1,0,0,1-.05-.08V26.5l.1-.26a.31.31,0,0,1-.11-.09.27.27,0,0,1,0-.15.26.26,0,0,1,.44-.19.21.21,0,0,1,.08.19h0a.11.11,0,0,1,0,.08.58.58,0,0,1-.06.17l-.12.31v.05Z"/>
          <path class="cls-1" d="M24.15,26.19a.24.24,0,0,1-.14-.05A.12.12,0,0,1,24,26V24a.13.13,0,0,1,.06-.11.33.33,0,0,1,.14,0,.33.33,0,0,1,.14,0,.13.13,0,0,1,.06.11v.23a.94.94,0,0,1,.1-.23.69.69,0,0,1,.22-.16.67.67,0,0,1,.28-.06h.17a.14.14,0,0,1,.12.06.24.24,0,0,1,0,.26.14.14,0,0,1-.12.06H25a.53.53,0,0,0-.3.09.72.72,0,0,0-.24.25.86.86,0,0,0-.09.39V26a.11.11,0,0,1-.06.1A.26.26,0,0,1,24.15,26.19Z"/>
          <path class="cls-1" d="M26.48,26.23a1.39,1.39,0,0,1-.57-.12,1,1,0,0,1-.4-.34,1,1,0,0,1-.14-.51v-.52a.86.86,0,0,1,.14-.47.93.93,0,0,1,.36-.35,1.05,1.05,0,0,1,.49-.13,1,1,0,0,1,.48.12.93.93,0,0,1,.35.33.78.78,0,0,1,.13.47.49.49,0,0,1-.06.29.25.25,0,0,1-.17.11H25.78v.15a.57.57,0,0,0,.2.44.8.8,0,0,0,.52.16.58.58,0,0,0,.29-.05.61.61,0,0,0,.18-.09h.22a.16.16,0,0,1,.06.08.11.11,0,0,1,0,.08.17.17,0,0,1-.1.14.72.72,0,0,1-.27.15A1.34,1.34,0,0,1,26.48,26.23Zm-.7-1.38h.93a.28.28,0,0,0,.18,0v-.12a.55.55,0,0,0-.07-.28.57.57,0,0,0-.79-.21.76.76,0,0,0-.21.19.54.54,0,0,0-.08.28Z"/>
          <path class="cls-1" d="M28.35,26.23a1.59,1.59,0,0,1-.43-.06.89.89,0,0,1-.29-.15.21.21,0,0,1-.1-.17v-.08a.18.18,0,0,1,0-.07h.07a.16.16,0,0,1,.13.06.76.76,0,0,0,.19.12.7.7,0,0,0,.35.06.49.49,0,0,0,.37-.1.27.27,0,0,0,.1-.22.3.3,0,0,0-.09-.24.76.76,0,0,0-.23-.13l-.29-.09L27.9,25a.57.57,0,0,1-.22-.19.55.55,0,0,1-.09-.33.72.72,0,0,1,.08-.32.62.62,0,0,1,.26-.27,1,1,0,0,1,.48-.11,1,1,0,0,1,.34,0,.82.82,0,0,1,.26.1.17.17,0,0,1,.1.13.11.11,0,0,1,0,.08.16.16,0,0,1-.05.09.14.14,0,0,1-.09,0h-.11l-.18-.08a1,1,0,0,0-.25,0,.75.75,0,0,0-.26,0,.4.4,0,0,0-.15.14.43.43,0,0,0,0,.16.23.23,0,0,0,.09.19.57.57,0,0,0,.23.12l.29.08a1.34,1.34,0,0,1,.3.12.66.66,0,0,1,.23.21.57.57,0,0,1,.09.36A.58.58,0,0,1,29,26,1,1,0,0,1,28.35,26.23Z"/>
          <path class="cls-1" d="M30.05,26.23a.71.71,0,0,1-.48-.16.63.63,0,0,1-.2-.5.57.57,0,0,1,.15-.43.84.84,0,0,1,.42-.21,3.05,3.05,0,0,1,.6-.06h.24v-.1a.79.79,0,0,0-.05-.3.66.66,0,0,0-.17-.23.55.55,0,0,0-.33-.09H30l-.17.08h-.1a.14.14,0,0,1-.12-.07.33.33,0,0,1,0-.14.16.16,0,0,1,.11-.14,1,1,0,0,1,.28-.11h.32a1,1,0,0,1,.56.14,1,1,0,0,1,.31.36,1.27,1.27,0,0,1,.09.47V26a.14.14,0,0,1-.06.11.2.2,0,0,1-.15,0,.29.29,0,0,1-.13,0,.14.14,0,0,1-.1-.11v-.2a1.14,1.14,0,0,1-.31.27A.79.79,0,0,1,30.05,26.23Zm.13-.33a.54.54,0,0,0,.28-.08.74.74,0,0,0,.23-.2.41.41,0,0,0,.09-.23v-.26h-.57a.77.77,0,0,0-.3.11.3.3,0,0,0-.12.26.36.36,0,0,0,.11.29A.43.43,0,0,0,30.18,25.9Z"/>
          <path class="cls-1" d="M31.9,26.19a.21.21,0,0,1-.15-.05.13.13,0,0,1-.06-.1v-3.5a.13.13,0,0,1,.06-.11h.3a.13.13,0,0,1,.06.11V26a.11.11,0,0,1-.06.1A.21.21,0,0,1,31.9,26.19Z"/>
          <path class="cls-1" d="M33.45,26.19a.92.92,0,0,1-.62-.18.72.72,0,0,1-.21-.57V22.86a.11.11,0,0,1,.06-.1.33.33,0,0,1,.14,0,.2.2,0,0,1,.15,0,.11.11,0,0,1,.06.1v1h.63a.12.12,0,0,1,.1.05.24.24,0,0,1,0,.12.21.21,0,0,1,0,.11H33v1.29a.41.41,0,0,0,.1.3.46.46,0,0,0,.32.09h.15a.24.24,0,0,1,.14.05.15.15,0,0,1,0,.13.13.13,0,0,1,0,.12.18.18,0,0,1-.14.06Z"/>
          <path class="cls-1" d="M34.58,26.23a.71.71,0,0,1-.48-.16.63.63,0,0,1-.2-.5.57.57,0,0,1,.15-.43.84.84,0,0,1,.42-.21,3.05,3.05,0,0,1,.6-.06h.24v-.1a1,1,0,0,0-.05-.3.66.66,0,0,0-.17-.23.55.55,0,0,0-.33-.09h-.27l-.17.08h-.1a.14.14,0,0,1-.12-.07.33.33,0,0,1,0-.14.16.16,0,0,1,.11-.14,1,1,0,0,1,.28-.11h.32a1,1,0,0,1,.56.14,1,1,0,0,1,.31.36,1.27,1.27,0,0,1,.09.47V26a.14.14,0,0,1-.06.11.19.19,0,0,1-.15,0,.29.29,0,0,1-.13,0,.14.14,0,0,1-.06-.11v-.2a1.14,1.14,0,0,1-.31.27A.77.77,0,0,1,34.58,26.23Zm.13-.33a.54.54,0,0,0,.28-.08.74.74,0,0,0,.23-.2.41.41,0,0,0,.09-.23v-.26h-.57a.77.77,0,0,0-.3.11.3.3,0,0,0-.12.26.36.36,0,0,0,.11.29A.43.43,0,0,0,34.71,25.9Z"/>
          <path class="cls-1" d="M37.88,26.19a.9.9,0,0,1-.61-.18.68.68,0,0,1-.22-.57V22.86a.12.12,0,0,1,.07-.1.28.28,0,0,1,.28,0,.1.1,0,0,1,.07.1v1h.63a.11.11,0,0,1,.09.05.24.24,0,0,1,0,.12.21.21,0,0,1,0,.11h-.72v1.29a.4.4,0,0,0,.09.3.46.46,0,0,0,.32.09H38a.19.19,0,0,1,.13.05.29.29,0,0,1,0,.13.24.24,0,0,1,0,.12.16.16,0,0,1-.13.06Z"/>
          <path class="cls-1" d="M39.46,26.23a1,1,0,0,1-.5-.13,1,1,0,0,1-.36-.36.85.85,0,0,1-.13-.47V24a.17.17,0,0,1,.06-.1.27.27,0,0,1,.15,0,.24.24,0,0,1,.14,0,.13.13,0,0,1,.06.1v1.3a.54.54,0,0,0,.08.28.56.56,0,0,0,.21.22.51.51,0,0,0,.58,0,.47.47,0,0,0,.2-.22A.54.54,0,0,0,40,25.3V24a.11.11,0,0,1,.06-.1.3.3,0,0,1,.15,0,.25.25,0,0,1,.15,0,.09.09,0,0,1,0,.1v1.3a.89.89,0,0,1-.13.48,1.1,1.1,0,0,1-.36.35A1,1,0,0,1,39.46,26.23Z"/>
          <path class="cls-1" d="M42.87,26.23a.88.88,0,0,1-.42-.11.9.9,0,0,1-.27-.28V26a.09.09,0,0,1,0,.1.22.22,0,0,1-.28,0,.13.13,0,0,1-.06-.1V22.5a.13.13,0,0,1,.06-.11.33.33,0,0,1,.14,0,.38.38,0,0,1,.15,0,.13.13,0,0,1,.06.11v1.63a1,1,0,0,1,.25-.26.75.75,0,0,1,.41-.12.87.87,0,0,1,.45.13,1.07,1.07,0,0,1,.32.35,1,1,0,0,1,.12.48v.51a1,1,0,0,1-.12.48,1.07,1.07,0,0,1-.32.35A.68.68,0,0,1,42.87,26.23Zm-.1-.37a.47.47,0,0,0,.28-.09.56.56,0,0,0,.21-.22.6.6,0,0,0,.08-.29v-.51a.57.57,0,0,0-.08-.28.63.63,0,0,0-.21-.22.6.6,0,0,0-.29-.08.57.57,0,0,0-.47.27.56.56,0,0,0-.09.31v.65a.38.38,0,0,0,.08.17.64.64,0,0,0,.2.2A.52.52,0,0,0,42.77,25.86Z"/>
          <path class="cls-1" d="M45.16,26.23a1.39,1.39,0,0,1-.57-.12,1,1,0,0,1-.4-.34,1,1,0,0,1-.14-.51v-.52a.86.86,0,0,1,.14-.47.93.93,0,0,1,.36-.35,1.05,1.05,0,0,1,.49-.13,1,1,0,0,1,.48.12.93.93,0,0,1,.35.33.78.78,0,0,1,.13.47.49.49,0,0,1-.06.29.25.25,0,0,1-.17.11H44.46v.15a.57.57,0,0,0,.2.44.8.8,0,0,0,.52.16.58.58,0,0,0,.29-.05.61.61,0,0,0,.18-.09h.22a.16.16,0,0,1,.06.08.11.11,0,0,1,0,.08.17.17,0,0,1-.1.14.72.72,0,0,1-.27.15A1.34,1.34,0,0,1,45.16,26.23Zm-.7-1.38h.93a.28.28,0,0,0,.18,0,.13.13,0,0,0,0-.12.68.68,0,0,0-.07-.28.57.57,0,0,0-.79-.21.76.76,0,0,0-.21.19.54.54,0,0,0-.08.28Z"/>
          <path class="cls-1" d="M46.6,26.19a.21.21,0,0,1-.15-.05.13.13,0,0,1-.06-.1v-3.5a.13.13,0,0,1,.06-.11h.3a.13.13,0,0,1,.06.11V26a.11.11,0,0,1-.06.1A.21.21,0,0,1,46.6,26.19Z"/>
          <path class="cls-1" d="M47.58,26.19a.21.21,0,0,1-.15-.05.13.13,0,0,1-.06-.1v-3.5a.13.13,0,0,1,.06-.11h.3a.13.13,0,0,1,.06.11V26a.11.11,0,0,1-.06.1A.21.21,0,0,1,47.58,26.19Z"/>
          <path class="cls-1" d="M49.33,26.23a1.39,1.39,0,0,1-.57-.12,1,1,0,0,1-.4-.34,1,1,0,0,1-.14-.51v-.52a.86.86,0,0,1,.14-.47.93.93,0,0,1,.36-.35,1.05,1.05,0,0,1,.49-.13,1,1,0,0,1,.48.12.93.93,0,0,1,.35.33.78.78,0,0,1,.13.47.49.49,0,0,1-.06.29.25.25,0,0,1-.17.11H48.63v.15a.57.57,0,0,0,.2.44.8.8,0,0,0,.52.16.58.58,0,0,0,.29-.05.61.61,0,0,0,.18-.09H50a.16.16,0,0,1,.06.08.11.11,0,0,1,0,.08A.17.17,0,0,1,50,26a.72.72,0,0,1-.27.15A1.34,1.34,0,0,1,49.33,26.23Zm-.7-1.38h.93a.28.28,0,0,0,.18,0,.13.13,0,0,0,0-.12.68.68,0,0,0-.07-.28.57.57,0,0,0-.79-.21.76.76,0,0,0-.21.19.54.54,0,0,0-.08.28Z"/>
          <path class="cls-1" d="M50.49,26.19a.13.13,0,0,1-.11-.05.17.17,0,0,1,0-.1v-.17l1.16-1.69h-1a.12.12,0,0,1-.09-.05.29.29,0,0,1,0-.13.24.24,0,0,1,0-.12.11.11,0,0,1,.1-.06H52a.2.2,0,0,1,.11,0,.13.13,0,0,1,0,.12.23.23,0,0,1-.06.16l-1.16,1.7H52a.12.12,0,0,1,.1.05.15.15,0,0,1,0,.13.24.24,0,0,1,0,.12.12.12,0,0,1-.1,0Z"/>
          <path class="cls-1" d="M53,26.23a.72.72,0,0,1-.47-.16.63.63,0,0,1-.2-.5.57.57,0,0,1,.15-.43.85.85,0,0,1,.41-.21,3.15,3.15,0,0,1,.61-.06h.24v-.1a.8.8,0,0,0-.06-.3.48.48,0,0,0-.17-.23.52.52,0,0,0-.32-.09h-.28l-.16.08h-.11a.12.12,0,0,1-.11-.07.33.33,0,0,1,0-.14.16.16,0,0,1,.11-.14.9.9,0,0,1,.27-.11h.33a1,1,0,0,1,.56.14.81.81,0,0,1,.3.36,1.27,1.27,0,0,1,.09.47V26a.21.21,0,0,1,0,.11.2.2,0,0,1-.15,0,.33.33,0,0,1-.14,0,.16.16,0,0,1,0-.11v-.2a1.18,1.18,0,0,1-.32.27A.78.78,0,0,1,53,26.23Zm.13-.33a.6.6,0,0,0,.29-.08,1.1,1.1,0,0,0,.23-.2.41.41,0,0,0,.09-.23v-.26h-.57a.72.72,0,0,0-.31.11.29.29,0,0,0-.11.26.36.36,0,0,0,.11.29.44.44,0,0,0,.24.11Z"/>
        </g>
      </g>
    </g>
  </g>
</svg>
