<?xml version="1.0" encoding="utf-8"?>
<!-- Generator: Adobe Illustrator 25.2.3, SVG Export Plug-In . SVG Version: 6.00 Build 0)  -->
<svg version="1.1" id="Capa_1" xmlns="http://www.w3.org/2000/svg" xmlns:xlink="http://www.w3.org/1999/xlink" x="0px" y="0px"
	 viewBox="0 0 54.1 27.3" style="enable-background:new 0 0 54.1 27.3;" xml:space="preserve">
<style type="text/css">
	.st0{fill:#F4A7AB;}
</style>
<g id="DISEÑO">
	<g>
		<path d="M4,4.7c0,4.2,0,4.8,0.2,5.2c0.7,2.4,3.1,3.8,5.5,3.1c1.6-0.4,2.8-1.7,3.2-3.3c0.5-2.1-0.4-4.2-2.3-5.2
			C9.8,4.1,9,3.9,8.1,4C7.3,4,6.5,4.3,5.8,4.8L5.3,5.1v0.8c0,0.3,0,0.5,0,0.8c0.2-0.1,0.3-0.3,0.4-0.4C6.9,4.9,9,4.6,10.5,5.8
			c0.8,0.6,1.2,1.5,1.2,2.5c0,0.4,0,0.7-0.1,1.1c-0.3,1.5-1.5,2.6-3,2.7c-1.5,0.1-2.9-0.8-3.4-2.2C5.1,9.4,5.1,9.3,5.1,4.7l0-4.7
			H3.9L4,4.7z"/>
		<path d="M33.4,6.3v4.6l0.2,0.5c0.3,0.5,0.7,1,1.2,1.3c0.7,0.3,1.4,0.4,2.1,0.4h0.5V12h-0.8c-1.1-0.1-1.6-0.3-1.9-0.9l-0.2-0.4V8
			V5.3h3V4.2h-3V1.8h-1.2L33.4,6.3z"/>
		<path d="M16.9,4.1c-1.8,0.5-3.1,2.2-3.2,4.1c-0.2,2.1,1.1,4.1,3.1,4.8c1.3,0.4,2.6,0.2,3.8-0.4c0.8-0.5,0.8-0.5,0.8-1.4v-0.8
			l-0.5,0.6c-1,1.2-2.7,1.5-4.1,0.8c-1.7-1-2.3-3.3-1.3-5c0.4-0.7,1-1.2,1.7-1.5c0.8-0.3,1.6-0.3,2.3,0c0.7,0.3,1.3,0.9,1.6,1.5
			c0.4,0.8,0.5,1.3,0.5,3.9v2.4h1.2v-2.4c0-2.8-0.1-3.4-0.5-4.3c-0.2-0.4-0.5-0.8-0.9-1.2c-0.8-0.8-2-1.3-3.1-1.2
			C17.7,4,17.3,4,16.9,4.1z"/>
		<path d="M26.9,4.1c-1.1,0.4-2,1.3-2.3,2.4c-0.2,0.5-0.2,0.8-0.2,3.6v3h1.2V10c0-3,0-3.1,0.2-3.5C26.1,5.6,27.1,5,28.1,5
			c0.7,0,1.4,0.3,1.8,0.8c0.6,0.7,0.6,0.8,0.7,4.2v3h1.1v-2.9c0-1.1,0-2.2-0.1-3.3c-0.2-1.1-1-2-2-2.5C29.1,4.1,28.6,4,28.2,4
			C27.7,4,27.3,4,26.9,4.1z"/>
		<path d="M41.4,4.1c-1.9,0.5-3.1,2.2-3.2,4.2c-0.2,2.1,1.1,4.1,3.1,4.7c1.3,0.4,2.6,0.2,3.8-0.4c0.8-0.5,0.8-0.5,0.8-1.4v-0.8
			L45.3,11c-0.3,0.3-0.7,0.6-1.1,0.8c-1.3,0.6-2.8,0.4-3.8-0.6c-0.4-0.4-0.8-1-0.9-1.6c-0.5-1.9,0.5-3.8,2.4-4.3
			c0.1,0,0.2-0.1,0.3-0.1C44,4.8,45.6,5.9,46,7.7c0,0.1,0,0.1,0,0.2c0.1,1,0.2,1.9,0.1,2.9v2.3h1.2v-2.6c0-1,0-2-0.1-3.1
			c-0.4-1.6-1.7-2.8-3.3-3.3C43.1,4,42.2,4,41.4,4.1z"/>
		<path d="M52.1,4.2C51.5,4.3,51,4.6,50.5,5l-0.3,0.3V4.2h-1.1v8.9h1.1v-2.8c0-2.7,0-2.8,0.2-3.3c0.3-0.6,0.7-1.1,1.2-1.5
			c0.4-0.2,0.8-0.3,1.2-0.3h0.8V4.7c0-0.5,0-0.5-0.2-0.6C53,4.1,52.5,4.1,52.1,4.2z"/>
		<path d="M32.2,17c0,2.3,0,2.3,0.2,2.3s0.2-0.1,0.2-2.3s0-2.3-0.2-2.3S32.2,14.7,32.2,17z"/>
		<path d="M39.1,15.3c0,0.2,0.1,0.2,0.2,0.2s0.2-0.4,0-0.4S39.1,15.1,39.1,15.3z"/>
		<path d="M29.2,16.3c-0.2,0.1-0.5,0.3-0.6,0.5c-0.2,0.3-0.3,0.6-0.2,0.9c0,0.3,0,0.7,0.2,0.9c0.5,0.7,1.5,0.9,2.2,0.5
			c0.3-0.2,0.5-0.4,0.6-0.7c0.1-0.2,0.1-0.5,0.2-0.7c0-0.9-0.7-1.6-1.6-1.6C29.7,16.1,29.5,16.1,29.2,16.3z M30.5,16.6
			c0.7,0.4,0.9,1.2,0.5,1.8c-0.1,0.2-0.3,0.4-0.5,0.5c-0.3,0.2-0.7,0.2-1,0c-0.4-0.2-0.7-0.6-0.7-1.1c-0.1-0.5,0.2-1,0.6-1.2
			C29.7,16.4,30.1,16.4,30.5,16.6z"/>
		<path d="M40.9,16.2c-0.8,0.4-1.2,1.5-0.7,2.3c0,0.1,0.1,0.1,0.1,0.2c0.6,0.7,1.6,0.8,2.3,0.3c0.7-0.6,0.8-1.6,0.3-2.3
			C42.4,16.1,41.6,15.9,40.9,16.2z M42.3,16.6c0.6,0.5,0.7,1.3,0.2,1.9c-0.1,0.1-0.3,0.3-0.4,0.4c-0.3,0.2-0.7,0.2-1,0
			c-0.5-0.3-0.7-0.8-0.7-1.3c0-0.4,0.3-0.8,0.7-1C41.5,16.4,41.9,16.4,42.3,16.6z"/>
		<path d="M44.5,16.2c-0.6,0.3-0.8,0.8-0.8,2.1c0,0.9,0,1,0.2,1s0.2-0.1,0.2-1c0-1.1,0.1-1.5,0.5-1.7c0.3-0.2,0.7-0.2,1,0
			c0.4,0.2,0.5,0.4,0.5,1.6c0,1,0,1.1,0.2,1.1s0.2-0.1,0.2-1c0-1.1-0.1-1.5-0.4-1.8C45.7,16.1,45.1,16,44.5,16.2z"/>
		<path d="M47.9,16.2c-0.7,0.3-1.1,0.9-1,1.7c0,0.3,0.1,0.6,0.3,0.8c0.2,0.4,0.7,0.6,1.1,0.7c0.8,0.1,1.5-0.4,1.7-1.2
			c0.1-0.5,0.1-0.5-0.1-0.5s-0.2,0.1-0.3,0.4c-0.1,0.4-0.5,0.8-0.9,0.9c-0.7,0.1-1.4-0.4-1.5-1.1c0-0.2,0-0.4,0-0.5
			c0.1-0.4,0.5-0.8,0.9-0.9c0.3-0.1,0.7,0,0.9,0.2l0.2,0.2l-0.9,0.6l-1,0.6c0,0,0,0.1,0.1,0.2s0.2,0.1,1.2-0.6l1.1-0.8
			c0.1-0.1-0.3-0.5-0.7-0.7C48.8,16.1,48.3,16,47.9,16.2z"/>
		<path d="M26,16.2c-0.3,0.1-0.4,0.4-0.4,0.7c0,0.5,0.2,0.7,1.1,0.9c0.3,0.1,0.5,0.2,0.8,0.3c0.2,0.2,0.2,0.4,0,0.6S27.2,19,26.4,19
			s-0.9,0-0.9,0.2s0.1,0.2,0.9,0.2c1,0,1.4-0.1,1.5-0.5c0.2-0.6-0.1-1-1-1.3c-0.7-0.2-1-0.4-1-0.6s0.2-0.4,1-0.4s0.8,0,0.8-0.2
			s0-0.2-0.8-0.2C26.7,16.2,26.3,16.2,26,16.2z"/>
		<path d="M33.2,17.3c0,1.3,0.1,1.6,0.5,1.9c0.5,0.3,1.1,0.3,1.5,0c0.4-0.3,0.5-0.6,0.5-1.9c0-1.1,0-1.1-0.2-1.1s-0.2,0.1-0.2,1
			c0,1.2-0.1,1.5-0.5,1.7c-0.4,0.3-1,0.1-1.2-0.3c0,0,0,0,0-0.1c-0.1-0.4-0.2-0.9-0.1-1.3c0-1,0-1-0.2-1S33.2,16.2,33.2,17.3z"/>
		<path d="M37.4,16.3c-0.4,0.1-0.6,0.4-0.8,0.8c-0.1,0.4-0.1,0.9,0,1.4c0.3,0.5,0.9,0.9,1.5,0.9c0.4,0,0.4,0,0.4-0.2
			S38.5,19,38.2,19c-0.5,0-0.9-0.2-1.2-0.6c-0.2-0.4-0.2-0.9,0-1.3c0.2-0.4,0.6-0.7,1.1-0.7c0.4,0,0.5-0.1,0.5-0.2s-0.1-0.2-0.4-0.2
			C37.9,16.2,37.6,16.2,37.4,16.3z"/>
		<path d="M39.1,17.7v1.6h0.4v-3.2h-0.4V17.7z"/>
		<path d="M50.9,16.3c-0.2,0.1-0.4,0.4-0.4,0.6c0,0.5,0.3,0.7,1.3,1c0.4,0.1,0.8,0.4,0.8,0.6c0,0.1-0.1,0.2-0.2,0.3
			c-0.1,0.1-0.3,0.2-1,0.2s-0.9,0-0.9,0.2s0,0.2,1,0.1s1,0,1.2-0.2c0.2-0.1,0.2-0.4,0.2-0.6c0-0.5-0.2-0.7-1.1-1s-1.2-0.6-0.8-0.9
			c0.1-0.1,0.3-0.1,0.9-0.1s0.8,0,0.8-0.2s0-0.2-0.8-0.2C51.5,16.1,51.2,16.2,50.9,16.3z"/>
	</g>
	<g>
		<path class="st0" d="M1.1,26.2c-0.2,0-0.4,0-0.5-0.1c-0.2-0.1-0.3-0.2-0.4-0.4C0,25.6,0,25.4,0,25.1v-1.5c0-0.2,0-0.4,0.2-0.6
			c0.1-0.2,0.2-0.3,0.4-0.4c0.2-0.1,0.3-0.1,0.5-0.1c0.2,0,0.4,0,0.6,0.1C1.8,22.7,1.9,22.9,2,23c0.1,0.1,0.1,0.3,0.1,0.5
			c0,0.1,0,0.1,0,0.2c0,0-0.1,0.1-0.2,0c0,0-0.1,0-0.1,0c0,0-0.1-0.1-0.1-0.1c0-0.1,0-0.1,0-0.2c0-0.1-0.1-0.1-0.1-0.2
			c-0.1-0.1-0.1-0.1-0.2-0.1C1.4,23,1.2,23,1.1,23c-0.2,0-0.4,0-0.5,0.2c-0.1,0.2-0.2,0.3-0.2,0.5v1.5c0,0.2,0,0.4,0.2,0.5
			c0.1,0.1,0.3,0.2,0.5,0.2c0.1,0,0.2,0,0.3-0.1c0.1,0,0.1-0.1,0.2-0.1c0-0.1,0.1-0.1,0.1-0.2c0-0.1,0-0.1,0-0.2c0,0,0-0.1,0.1-0.1
			c0,0,0.1,0,0.1,0c0.1,0,0.1,0,0.2,0c0,0,0,0.1,0,0.2c0,0.2,0,0.3-0.1,0.5c-0.1,0.1-0.2,0.2-0.4,0.3C1.4,26.2,1.3,26.2,1.1,26.2z"
			/>
		<path class="st0" d="M3.5,26.2c-0.2,0-0.3,0-0.5-0.1c-0.1-0.1-0.3-0.2-0.4-0.4c-0.1-0.1-0.1-0.3-0.1-0.5V24c0,0,0-0.1,0.1-0.1
			c0,0,0.1,0,0.2,0c0.1,0,0.1,0,0.1,0c0,0,0.1,0.1,0.1,0.1v1.3c0,0.1,0,0.2,0.1,0.3c0,0.1,0.1,0.2,0.2,0.2c0.1,0.1,0.2,0.1,0.3,0.1
			c0.1,0,0.2,0,0.3-0.1C3.9,25.7,4,25.7,4,25.5c0-0.1,0-0.2,0-0.3V24c0,0,0-0.1,0.1-0.1c0.1-0.1,0.2-0.1,0.3,0c0,0,0,0.1,0,0.1v1.3
			c0,0.2,0,0.3-0.1,0.5C4.2,25.9,4.1,26,4,26.1C3.8,26.2,3.7,26.2,3.5,26.2z"/>
		<path class="st0" d="M5.1,23.2c-0.1,0-0.1,0-0.2-0.1c0,0-0.1-0.1-0.1-0.2c0-0.1,0-0.1,0.1-0.2c0.1,0,0.1-0.1,0.2-0.1
			c0.1,0,0.1,0,0.2,0.1c0,0,0.1,0.1,0.1,0.2c0,0.1,0,0.1-0.1,0.2C5.2,23.1,5.2,23.2,5.1,23.2z M5.1,26.2c0,0-0.1,0-0.1,0
			c-0.1,0-0.1-0.1-0.1-0.1c0,0,0,0,0,0v-2c0-0.1,0-0.1,0.1-0.1c0,0,0.1,0,0.2,0c0,0,0.1,0,0.2,0c0,0,0.1,0.1,0.1,0.1v2
			c0,0,0,0.1-0.1,0.1C5.3,26.2,5.2,26.2,5.1,26.2L5.1,26.2z"/>
		<path class="st0" d="M6.6,26.2c-0.2,0-0.3,0-0.4-0.1c-0.3-0.2-0.4-0.5-0.4-0.8v-0.5c0-0.3,0.2-0.6,0.4-0.8
			c0.1-0.1,0.3-0.1,0.4-0.1c0.1,0,0.3,0,0.4,0.1c0.1,0.1,0.2,0.2,0.2,0.3v-1.6c0,0,0-0.1,0.1-0.1c0,0,0.1,0,0.2,0c0,0,0.1,0,0.2,0
			c0,0,0.1,0.1,0.1,0.1V26c0,0,0,0.1-0.1,0.1c0,0-0.1,0.1-0.2,0c0,0-0.1,0-0.1,0c0,0-0.1-0.1-0.1-0.1v-0.2C7.2,25.9,7.1,26,7,26.1
			C6.9,26.2,6.7,26.2,6.6,26.2z M6.7,25.9c0.1,0,0.2,0,0.3-0.1c0.1-0.1,0.1-0.1,0.2-0.2c0,0,0.1-0.1,0.1-0.2v-0.6
			c0-0.1,0-0.2-0.1-0.3c-0.1-0.1-0.1-0.1-0.2-0.2c-0.1,0-0.2-0.1-0.3-0.1c-0.1,0-0.2,0-0.3,0.1c-0.1,0.1-0.2,0.1-0.2,0.2
			c0,0.1-0.1,0.2-0.1,0.3v0.5c0,0.1,0,0.2,0.1,0.3c0,0.1,0.1,0.2,0.2,0.2C6.5,25.8,6.6,25.9,6.7,25.9z"/>
		<path class="st0" d="M8.7,26.2c-0.2,0-0.3,0-0.5-0.2C8.1,25.9,8,25.8,8,25.6c0-0.2,0-0.3,0.1-0.4C8.3,25,8.4,25,8.6,24.9
			c0.2,0,0.4-0.1,0.6-0.1h0.2v-0.1c0-0.1,0-0.2-0.1-0.3c0-0.1-0.1-0.2-0.2-0.2c-0.1-0.1-0.2-0.1-0.3-0.1c-0.1,0-0.2,0-0.3,0
			c-0.1,0-0.1,0-0.2,0.1H8.3c0,0-0.1,0-0.1-0.1c0,0,0-0.1,0-0.1c0,0,0-0.1,0.1-0.1c0.1-0.1,0.2-0.1,0.3-0.1c0.1,0,0.2,0,0.3,0
			c0.2,0,0.4,0,0.6,0.1c0.1,0.1,0.2,0.2,0.3,0.4c0.1,0.1,0.1,0.3,0.1,0.5V26c0,0,0,0.1-0.1,0.1c0,0-0.1,0-0.1,0c0,0-0.1,0-0.1,0
			c0,0-0.1-0.1-0.1-0.1v-0.2c-0.1,0.1-0.2,0.2-0.3,0.3C9,26.2,8.8,26.2,8.7,26.2z M8.8,25.9c0.1,0,0.2,0,0.3-0.1
			c0.1-0.1,0.2-0.1,0.2-0.2c0.1-0.1,0.1-0.1,0.1-0.2v-0.3H9.2H8.8c-0.1,0-0.2,0.1-0.3,0.1c-0.1,0.1-0.1,0.2-0.1,0.3
			c0,0.1,0,0.2,0.1,0.3C8.6,25.9,8.7,25.9,8.8,25.9z"/>
		<path class="st0" d="M12,26.2c-0.2,0-0.4,0-0.6-0.2c-0.2-0.1-0.2-0.4-0.2-0.6v-2.6c0,0,0-0.1,0.1-0.1c0,0,0.1,0,0.1,0
			c0,0,0.1,0,0.1,0c0,0,0.1,0.1,0.1,0.1v1h0.6c0,0,0.1,0,0.1,0c0,0,0,0.1,0,0.1c0,0,0,0.1,0,0.1c0,0-0.1,0-0.1,0h-0.6v1.3
			c0,0.1,0,0.2,0.1,0.3c0.1,0.1,0.2,0.1,0.3,0.1h0.1c0.1,0,0.1,0,0.1,0c0,0,0,0.1,0,0.1c0,0,0,0.1,0,0.1c0,0-0.1,0.1-0.1,0.1
			L12,26.2z"/>
		<path class="st0" d="M13.6,26.2c-0.2,0-0.3,0-0.5-0.1c-0.1-0.1-0.3-0.2-0.4-0.4c-0.1-0.1-0.1-0.3-0.1-0.5V24c0,0,0-0.1,0.1-0.1
			c0,0,0.1,0,0.1,0c0.1,0,0.1,0,0.1,0c0,0,0.1,0.1,0.1,0.1v1.3c0,0.1,0,0.2,0.1,0.3c0,0.1,0.1,0.2,0.2,0.2c0.1,0.1,0.2,0.1,0.3,0.1
			c0.1,0,0.2,0,0.3-0.1c0.1-0.1,0.2-0.1,0.2-0.2c0-0.1,0.1-0.2,0.1-0.3V24c0,0,0-0.1,0.1-0.1c0,0,0.1,0,0.1,0c0.1,0,0.1,0,0.1,0
			c0,0,0.1,0.1,0.1,0.1v1.3c0,0.2,0,0.3-0.1,0.5c-0.1,0.1-0.2,0.3-0.4,0.4C13.9,26.2,13.7,26.2,13.6,26.2z"/>
		<path class="st0" d="M16.1,27.3c-0.1,0-0.1,0-0.1,0c0,0-0.1-0.1-0.1-0.1V24c0,0,0-0.1,0.1-0.1c0,0,0.1,0,0.1,0c0,0,0.1,0,0.1,0
			c0,0,0.1,0.1,0.1,0.1v0.2c0.1-0.1,0.2-0.2,0.2-0.3c0.1-0.1,0.3-0.1,0.4-0.1c0.2,0,0.3,0,0.5,0.1c0.3,0.2,0.4,0.5,0.5,0.8v0.5
			c0,0.2,0,0.3-0.1,0.5c-0.1,0.1-0.2,0.3-0.3,0.4c-0.1,0.1-0.3,0.1-0.4,0.1c-0.1,0-0.3,0-0.4-0.1c-0.1-0.1-0.2-0.2-0.3-0.3v1.4
			c0,0,0,0.1-0.1,0.1C16.2,27.3,16.1,27.3,16.1,27.3z M16.9,25.9c0.1,0,0.2,0,0.3-0.1c0.1-0.1,0.2-0.1,0.2-0.2
			c0.1-0.1,0.1-0.2,0.1-0.3v-0.5c0-0.1,0-0.2-0.1-0.3c-0.1-0.1-0.1-0.2-0.2-0.2c-0.1-0.1-0.2-0.1-0.3-0.1c-0.1,0-0.2,0-0.3,0.1
			c-0.1,0.1-0.2,0.1-0.2,0.2c-0.1,0.1-0.1,0.2-0.1,0.3v0.6c0,0.1,0,0.1,0.1,0.2c0.1,0.1,0.1,0.1,0.2,0.2
			C16.6,25.8,16.7,25.9,16.9,25.9z"/>
		<path class="st0" d="M18.4,23.2c-0.1,0-0.1,0-0.2-0.1c-0.1,0-0.1-0.1-0.1-0.2c0-0.1,0-0.1,0.1-0.2c0,0,0.1-0.1,0.2-0.1
			c0.1,0,0.1,0,0.2,0.1c0,0,0.1,0.1,0.1,0.2c0,0.1,0,0.1-0.1,0.2C18.6,23.1,18.5,23.2,18.4,23.2z M18.4,26.2c-0.1,0-0.1,0-0.1,0
			c0,0-0.1-0.1-0.1-0.1v-2c0,0,0-0.1,0.1-0.1c0.1-0.1,0.2-0.1,0.3,0c0,0,0.1,0.1,0.1,0.1v2c0,0,0,0.1-0.1,0.1
			C18.5,26.2,18.5,26.2,18.4,26.2L18.4,26.2z"/>
		<path class="st0" d="M20.1,26.2c-0.2,0-0.4,0-0.6-0.1c-0.2-0.1-0.3-0.2-0.4-0.3c-0.1-0.2-0.1-0.3-0.1-0.5v-0.5
			c0-0.2,0-0.3,0.1-0.5c0.1-0.1,0.2-0.3,0.4-0.4c0.1-0.1,0.3-0.1,0.5-0.1c0.2,0,0.3,0,0.5,0.1c0.1,0.1,0.3,0.2,0.4,0.3
			c0.1,0.1,0.1,0.3,0.1,0.5c0,0.1,0,0.2-0.1,0.3c0,0.1-0.1,0.1-0.2,0.1h-0.2h-1.1v0.1c0,0.2,0.1,0.3,0.2,0.4
			c0.1,0.1,0.3,0.2,0.5,0.2c0.1,0,0.2,0,0.3,0c0.1,0,0.1-0.1,0.2-0.1c0,0,0.1,0,0.1,0c0,0,0.1,0,0.1,0c0,0,0,0,0.1,0.1
			c0,0,0,0.1,0,0.1c0,0,0,0.1-0.1,0.1c-0.1,0.1-0.2,0.1-0.3,0.1C20.4,26.2,20.3,26.2,20.1,26.2z M19.4,24.9h0.9c0.1,0,0.1,0,0.2,0
			c0,0,0-0.1,0-0.1c0-0.1,0-0.2-0.1-0.3c-0.1-0.1-0.1-0.2-0.2-0.2c-0.1-0.1-0.2-0.1-0.3-0.1c-0.1,0-0.2,0-0.3,0.1
			c-0.1,0-0.2,0.1-0.2,0.2c-0.1,0.1-0.1,0.2-0.1,0.3L19.4,24.9z"/>
		<path class="st0" d="M21.6,26.2c-0.1,0-0.1,0-0.1,0c0,0-0.1-0.1-0.1-0.1v-3.5c0,0,0-0.1,0.1-0.1c0,0,0.1,0,0.1,0c0,0,0.1,0,0.1,0
			c0,0,0.1,0.1,0.1,0.1V26c0,0,0,0.1-0.1,0.1C21.7,26.2,21.6,26.2,21.6,26.2z"/>
		<path class="st0" d="M22.4,26.6c0,0-0.1,0-0.1,0c0,0,0,0,0-0.1c0,0,0,0,0-0.1l0.1-0.3c0,0-0.1-0.1-0.1-0.1c0,0,0-0.1,0-0.1
			c0-0.1,0-0.1,0.1-0.2c0.1-0.1,0.3-0.1,0.4,0c0.1,0,0.1,0.1,0.1,0.2l0,0c0,0,0,0.1,0,0.1c0,0.1,0,0.1-0.1,0.2l-0.1,0.3c0,0,0,0,0,0
			L22.4,26.6z"/>
		<path class="st0" d="M24.1,26.2c-0.1,0-0.1,0-0.1,0c0,0,0-0.1,0-0.1v-2c0,0,0-0.1,0.1-0.1c0,0,0.1,0,0.1,0c0,0,0.1,0,0.1,0
			c0,0,0.1,0.1,0.1,0.1v0.2c0-0.1,0.1-0.2,0.1-0.2c0.1-0.1,0.1-0.1,0.2-0.2c0.1,0,0.2-0.1,0.3-0.1h0.2c0,0,0.1,0,0.1,0.1
			c0.1,0.1,0.1,0.2,0,0.3c0,0-0.1,0.1-0.1,0.1H25c-0.1,0-0.2,0-0.3,0.1c-0.1,0.1-0.2,0.1-0.2,0.2c-0.1,0.1-0.1,0.3-0.1,0.4V26
			c0,0,0,0.1-0.1,0.1C24.3,26.2,24.2,26.2,24.1,26.2z"/>
		<path class="st0" d="M26.5,26.2c-0.2,0-0.4,0-0.6-0.1c-0.2-0.1-0.3-0.2-0.4-0.3c-0.1-0.2-0.1-0.3-0.1-0.5v-0.5
			c0-0.2,0-0.3,0.1-0.5c0.1-0.1,0.2-0.3,0.4-0.4c0.1-0.1,0.3-0.1,0.5-0.1c0.2,0,0.3,0,0.5,0.1c0.1,0.1,0.3,0.2,0.4,0.3
			c0.1,0.1,0.1,0.3,0.1,0.5c0,0.1,0,0.2-0.1,0.3c0,0.1-0.1,0.1-0.2,0.1h-0.2h-1.1v0.1c0,0.2,0.1,0.3,0.2,0.4
			c0.1,0.1,0.3,0.2,0.5,0.2c0.1,0,0.2,0,0.3,0c0.1,0,0.1-0.1,0.2-0.1c0,0,0.1,0,0.1,0c0,0,0.1,0,0.1,0c0,0,0,0,0.1,0.1
			c0,0,0,0.1,0,0.1c0,0,0,0.1-0.1,0.1c-0.1,0.1-0.2,0.1-0.3,0.1C26.8,26.2,26.6,26.2,26.5,26.2z M25.8,24.9h0.9c0.1,0,0.1,0,0.2,0
			c0,0,0-0.1,0-0.1c0-0.1,0-0.2-0.1-0.3c-0.1-0.1-0.1-0.2-0.2-0.2c-0.1-0.1-0.2-0.1-0.3-0.1c-0.1,0-0.2,0-0.3,0.1
			c-0.1,0-0.2,0.1-0.2,0.2c-0.1,0.1-0.1,0.2-0.1,0.3L25.8,24.9z"/>
		<path class="st0" d="M28.4,26.2c-0.1,0-0.3,0-0.4-0.1c-0.1,0-0.2-0.1-0.3-0.1c-0.1,0-0.1-0.1-0.1-0.2c0,0,0-0.1,0-0.1
			c0,0,0-0.1,0-0.1c0,0,0,0,0.1,0c0,0,0.1,0,0.1,0.1c0.1,0,0.1,0.1,0.2,0.1c0.1,0,0.2,0.1,0.4,0.1c0.1,0,0.3,0,0.4-0.1
			c0.1-0.1,0.1-0.1,0.1-0.2c0-0.1,0-0.2-0.1-0.2c-0.1-0.1-0.1-0.1-0.2-0.1l-0.3-0.1L27.9,25c-0.1,0-0.2-0.1-0.2-0.2
			c-0.1-0.1-0.1-0.2-0.1-0.3c0-0.1,0-0.2,0.1-0.3c0.1-0.1,0.1-0.2,0.3-0.3c0.1-0.1,0.3-0.1,0.5-0.1c0.1,0,0.2,0,0.3,0
			c0.1,0,0.2,0.1,0.3,0.1c0.1,0,0.1,0.1,0.1,0.1c0,0,0,0.1,0,0.1c0,0,0,0.1,0,0.1c0,0-0.1,0-0.1,0h-0.1l-0.2-0.1c-0.1,0-0.2,0-0.2,0
			c-0.1,0-0.2,0-0.3,0c-0.1,0-0.1,0.1-0.1,0.1c0,0.1,0,0.1,0,0.2c0,0.1,0,0.1,0.1,0.2c0.1,0.1,0.1,0.1,0.2,0.1l0.3,0.1
			c0.1,0,0.2,0.1,0.3,0.1c0.1,0.1,0.2,0.1,0.2,0.2c0.1,0.1,0.1,0.2,0.1,0.4c0,0.2-0.1,0.4-0.2,0.5C28.8,26.2,28.6,26.2,28.4,26.2z"
			/>
		<path class="st0" d="M30,26.2c-0.2,0-0.3,0-0.5-0.2c-0.1-0.1-0.2-0.3-0.2-0.5c0-0.2,0-0.3,0.1-0.4c0.1-0.1,0.3-0.2,0.4-0.2
			c0.2,0,0.4-0.1,0.6-0.1h0.2v-0.1c0-0.1,0-0.2,0-0.3c0-0.1-0.1-0.2-0.2-0.2c-0.1-0.1-0.2-0.1-0.3-0.1c-0.1,0-0.2,0-0.3,0
			c-0.1,0-0.1,0-0.2,0.1h-0.1c-0.1,0-0.1,0-0.1-0.1c0,0,0-0.1,0-0.1c0,0,0-0.1,0.1-0.1c0.1-0.1,0.2-0.1,0.3-0.1c0.1,0,0.2,0,0.3,0
			c0.2,0,0.4,0,0.6,0.1c0.1,0.1,0.2,0.2,0.3,0.4c0.1,0.1,0.1,0.3,0.1,0.5V26c0,0,0,0.1-0.1,0.1c0,0-0.1,0-0.1,0c0,0-0.1,0-0.1,0
			c-0.1,0-0.1-0.1-0.1-0.1v-0.2c-0.1,0.1-0.2,0.2-0.3,0.3C30.4,26.2,30.2,26.2,30,26.2z M30.2,25.9c0.1,0,0.2,0,0.3-0.1
			c0.1-0.1,0.2-0.1,0.2-0.2c0.1-0.1,0.1-0.1,0.1-0.2v-0.3h-0.2h-0.4c-0.1,0-0.2,0.1-0.3,0.1c-0.1,0.1-0.1,0.2-0.1,0.3
			c0,0.1,0,0.2,0.1,0.3C30,25.9,30.1,25.9,30.2,25.9z"/>
		<path class="st0" d="M31.9,26.2c-0.1,0-0.1,0-0.1,0c0,0-0.1-0.1-0.1-0.1v-3.5c0,0,0-0.1,0.1-0.1c0,0,0.1,0,0.1,0c0,0,0.1,0,0.1,0
			c0,0,0.1,0.1,0.1,0.1V26c0,0,0,0.1-0.1,0.1C32,26.2,32,26.2,31.9,26.2z"/>
		<path class="st0" d="M33.5,26.2c-0.2,0-0.4,0-0.6-0.2c-0.2-0.1-0.2-0.4-0.2-0.6v-2.6c0,0,0-0.1,0.1-0.1c0,0,0.1,0,0.1,0
			c0,0,0.1,0,0.2,0c0,0,0.1,0.1,0.1,0.1v1h0.6c0,0,0.1,0,0.1,0c0,0,0,0.1,0,0.1c0,0,0,0.1,0,0.1c0,0-0.1,0-0.1,0H33v1.3
			c0,0.1,0,0.2,0.1,0.3c0.1,0.1,0.2,0.1,0.3,0.1h0.2c0.1,0,0.1,0,0.1,0c0,0,0,0.1,0,0.1c0,0,0,0.1,0,0.1c0,0-0.1,0.1-0.1,0.1
			L33.5,26.2z"/>
		<path class="st0" d="M34.6,26.2c-0.2,0-0.3,0-0.5-0.2c-0.1-0.1-0.2-0.3-0.2-0.5c0-0.2,0-0.3,0.2-0.4c0.1-0.1,0.3-0.2,0.4-0.2
			c0.2,0,0.4-0.1,0.6-0.1h0.2v-0.1c0-0.1,0-0.2,0-0.3c0-0.1-0.1-0.2-0.2-0.2c-0.1-0.1-0.2-0.1-0.3-0.1c-0.1,0-0.2,0-0.3,0
			c-0.1,0-0.1,0-0.2,0.1h-0.1c-0.1,0-0.1,0-0.1-0.1c0,0,0-0.1,0-0.1c0,0,0-0.1,0.1-0.1c0.1-0.1,0.2-0.1,0.3-0.1c0.1,0,0.2,0,0.3,0
			c0.2,0,0.4,0,0.6,0.1c0.1,0.1,0.2,0.2,0.3,0.4c0.1,0.1,0.1,0.3,0.1,0.5V26c0,0,0,0.1-0.1,0.1c0,0-0.1,0-0.2,0c0,0-0.1,0-0.1,0
			c0,0-0.1-0.1-0.1-0.1v-0.2c-0.1,0.1-0.2,0.2-0.3,0.3C34.9,26.2,34.8,26.2,34.6,26.2z M34.7,25.9c0.1,0,0.2,0,0.3-0.1
			c0.1-0.1,0.2-0.1,0.2-0.2c0.1-0.1,0.1-0.1,0.1-0.2v-0.3h-0.2h-0.4c-0.1,0-0.2,0.1-0.3,0.1c-0.1,0.1-0.1,0.2-0.1,0.3
			c0,0.1,0,0.2,0.1,0.3C34.5,25.9,34.6,25.9,34.7,25.9z"/>
		<path class="st0" d="M37.9,26.2c-0.2,0-0.4,0-0.6-0.2c-0.2-0.1-0.2-0.4-0.2-0.6v-2.6c0,0,0-0.1,0.1-0.1c0.1-0.1,0.2-0.1,0.3,0
			c0,0,0.1,0.1,0.1,0.1v1h0.6c0,0,0.1,0,0.1,0c0,0,0,0.1,0,0.1c0,0,0,0.1,0,0.1c0,0-0.1,0-0.1,0h-0.6v1.3c0,0.1,0,0.2,0.1,0.3
			c0.1,0.1,0.2,0.1,0.3,0.1H38c0,0,0.1,0,0.1,0c0,0,0,0.1,0,0.1c0,0,0,0.1,0,0.1c0,0-0.1,0.1-0.1,0.1L37.9,26.2z"/>
		<path class="st0" d="M39.5,26.2c-0.2,0-0.3,0-0.5-0.1c-0.1-0.1-0.3-0.2-0.4-0.4c-0.1-0.1-0.1-0.3-0.1-0.5V24c0,0,0-0.1,0.1-0.1
			c0,0,0.1,0,0.2,0c0.1,0,0.1,0,0.1,0c0,0,0.1,0.1,0.1,0.1v1.3c0,0.1,0,0.2,0.1,0.3c0,0.1,0.1,0.2,0.2,0.2c0.2,0.1,0.4,0.1,0.6,0
			c0.1-0.1,0.2-0.1,0.2-0.2c0.1-0.1,0.1-0.2,0.1-0.3V24c0,0,0-0.1,0.1-0.1c0,0,0.1,0,0.2,0c0.1,0,0.1,0,0.2,0c0,0,0,0.1,0,0.1v1.3
			c0,0.2,0,0.3-0.1,0.5c-0.1,0.1-0.2,0.3-0.4,0.4C39.8,26.2,39.6,26.2,39.5,26.2z"/>
		<path class="st0" d="M42.9,26.2c-0.1,0-0.3,0-0.4-0.1c-0.1-0.1-0.2-0.2-0.3-0.3V26c0,0,0,0.1,0,0.1c0,0-0.1,0.1-0.1,0
			c-0.1,0-0.1,0-0.1,0c0,0-0.1-0.1-0.1-0.1v-3.5c0,0,0-0.1,0.1-0.1c0,0,0.1,0,0.1,0c0,0,0.1,0,0.2,0c0,0,0.1,0.1,0.1,0.1v1.6
			c0.1-0.1,0.2-0.2,0.2-0.3c0.1-0.1,0.3-0.1,0.4-0.1c0.2,0,0.3,0,0.5,0.1c0.1,0.1,0.2,0.2,0.3,0.4c0.1,0.1,0.1,0.3,0.1,0.5v0.5
			c0,0.2,0,0.3-0.1,0.5c-0.1,0.1-0.2,0.3-0.3,0.4C43.2,26.2,43.1,26.2,42.9,26.2z M42.8,25.9c0.1,0,0.2,0,0.3-0.1
			c0.1-0.1,0.2-0.1,0.2-0.2c0-0.1,0.1-0.2,0.1-0.3v-0.5c0-0.1,0-0.2-0.1-0.3c-0.1-0.1-0.1-0.2-0.2-0.2c-0.1-0.1-0.2-0.1-0.3-0.1
			c-0.2,0-0.4,0.1-0.5,0.3c-0.1,0.1-0.1,0.2-0.1,0.3v0.6c0,0.1,0,0.1,0.1,0.2c0.1,0.1,0.1,0.1,0.2,0.2
			C42.6,25.8,42.7,25.9,42.8,25.9z"/>
		<path class="st0" d="M45.2,26.2c-0.2,0-0.4,0-0.6-0.1c-0.2-0.1-0.3-0.2-0.4-0.3c-0.1-0.2-0.1-0.3-0.1-0.5v-0.5
			c0-0.2,0-0.3,0.1-0.5c0.1-0.1,0.2-0.3,0.4-0.4c0.1-0.1,0.3-0.1,0.5-0.1c0.2,0,0.3,0,0.5,0.1c0.1,0.1,0.3,0.2,0.3,0.3
			c0.1,0.1,0.1,0.3,0.1,0.5c0,0.1,0,0.2-0.1,0.3c0,0.1-0.1,0.1-0.2,0.1h-0.2h-1.1v0.1c0,0.2,0.1,0.3,0.2,0.4
			c0.1,0.1,0.3,0.2,0.5,0.2c0.1,0,0.2,0,0.3,0c0.1,0,0.1-0.1,0.2-0.1c0,0,0.1,0,0.1,0c0,0,0.1,0,0.1,0c0,0,0,0,0.1,0.1
			c0,0,0,0.1,0,0.1c0,0,0,0.1-0.1,0.1c-0.1,0.1-0.2,0.1-0.3,0.1C45.4,26.2,45.3,26.2,45.2,26.2z M44.5,24.9h0.9c0.1,0,0.1,0,0.2,0
			c0,0,0-0.1,0-0.1c0-0.1,0-0.2-0.1-0.3c-0.1-0.1-0.1-0.2-0.2-0.2c-0.1-0.1-0.2-0.1-0.3-0.1c-0.1,0-0.2,0-0.3,0.1
			c-0.1,0-0.2,0.1-0.2,0.2c-0.1,0.1-0.1,0.2-0.1,0.3L44.5,24.9z"/>
		<path class="st0" d="M46.6,26.2c-0.1,0-0.1,0-0.2,0c0,0-0.1-0.1-0.1-0.1v-3.5c0,0,0-0.1,0.1-0.1c0,0,0.1,0,0.2,0c0,0,0.1,0,0.2,0
			c0,0,0.1,0.1,0.1,0.1V26c0,0,0,0.1-0.1,0.1C46.7,26.2,46.7,26.2,46.6,26.2z"/>
		<path class="st0" d="M47.6,26.2c-0.1,0-0.1,0-0.2,0c0,0-0.1-0.1-0.1-0.1v-3.5c0,0,0-0.1,0.1-0.1c0,0,0.1,0,0.2,0c0,0,0.1,0,0.2,0
			c0,0,0.1,0.1,0.1,0.1V26c0,0,0,0.1-0.1,0.1C47.7,26.2,47.6,26.2,47.6,26.2z"/>
		<path class="st0" d="M49.3,26.2c-0.2,0-0.4,0-0.6-0.1c-0.2-0.1-0.3-0.2-0.4-0.3c-0.1-0.2-0.1-0.3-0.1-0.5v-0.5
			c0-0.2,0-0.3,0.1-0.5c0.1-0.1,0.2-0.3,0.4-0.4c0.1-0.1,0.3-0.1,0.5-0.1c0.2,0,0.3,0,0.5,0.1c0.1,0.1,0.3,0.2,0.3,0.3
			c0.1,0.1,0.1,0.3,0.1,0.5c0,0.1,0,0.2-0.1,0.3c0,0.1-0.1,0.1-0.2,0.1h-0.2h-1.1v0.1c0,0.2,0.1,0.3,0.2,0.4
			c0.1,0.1,0.3,0.2,0.5,0.2c0.1,0,0.2,0,0.3,0c0.1,0,0.1-0.1,0.2-0.1c0,0,0.1,0,0.1,0c0,0,0.1,0,0.1,0c0,0,0,0,0.1,0.1
			c0,0,0,0.1,0,0.1c0,0,0,0.1-0.1,0.1c-0.1,0.1-0.2,0.1-0.3,0.1C49.6,26.2,49.5,26.2,49.3,26.2z M48.6,24.9h0.9c0.1,0,0.1,0,0.2,0
			c0,0,0-0.1,0-0.1c0-0.1,0-0.2-0.1-0.3c-0.1-0.1-0.1-0.2-0.2-0.2c-0.1-0.1-0.2-0.1-0.3-0.1c-0.1,0-0.2,0-0.3,0.1
			c-0.1,0-0.2,0.1-0.2,0.2c-0.1,0.1-0.1,0.2-0.1,0.3L48.6,24.9z"/>
		<path class="st0" d="M50.5,26.2c0,0-0.1,0-0.1,0c0,0,0-0.1,0-0.1c0,0,0-0.1,0-0.1c0,0,0-0.1,0-0.1l1.2-1.7h-1c0,0-0.1,0-0.1,0
			c0,0,0-0.1,0-0.1c0,0,0-0.1,0-0.1c0,0,0.1-0.1,0.1-0.1H52c0,0,0.1,0,0.1,0c0,0,0,0.1,0,0.1c0,0.1,0,0.1-0.1,0.2l-1.2,1.7H52
			c0,0,0.1,0,0.1,0c0,0,0,0.1,0,0.1c0,0,0,0.1,0,0.1c0,0-0.1,0-0.1,0L50.5,26.2z"/>
		<path class="st0" d="M53,26.2c-0.2,0-0.3-0.1-0.5-0.2c-0.1-0.1-0.2-0.3-0.2-0.5c0-0.2,0-0.3,0.2-0.4c0.1-0.1,0.3-0.2,0.4-0.2
			c0.2,0,0.4-0.1,0.6-0.1h0.2v-0.1c0-0.1,0-0.2-0.1-0.3c0-0.1-0.1-0.2-0.2-0.2c-0.1-0.1-0.2-0.1-0.3-0.1c-0.1,0-0.2,0-0.3,0
			c-0.1,0-0.1,0-0.2,0.1h-0.1c0,0-0.1,0-0.1-0.1c0,0,0-0.1,0-0.1c0,0,0-0.1,0.1-0.1c0.1-0.1,0.2-0.1,0.3-0.1c0.1,0,0.2,0,0.3,0
			c0.2,0,0.4,0,0.6,0.1c0.1,0.1,0.2,0.2,0.3,0.4c0.1,0.1,0.1,0.3,0.1,0.5V26c0,0,0,0.1,0,0.1c0,0-0.1,0-0.2,0c0,0-0.1,0-0.1,0
			c0,0,0-0.1,0-0.1v-0.2c-0.1,0.1-0.2,0.2-0.3,0.3C53.4,26.2,53.2,26.2,53,26.2z M53.1,25.9c0.1,0,0.2,0,0.3-0.1
			c0.1-0.1,0.2-0.1,0.2-0.2c0.1-0.1,0.1-0.1,0.1-0.2v-0.3h-0.2h-0.4c-0.1,0-0.2,0.1-0.3,0.1c-0.1,0.1-0.1,0.2-0.1,0.3
			c0,0.1,0,0.2,0.1,0.3C52.9,25.9,53,25.9,53.1,25.9L53.1,25.9z"/>
	</g>
</g>
</svg>
