<svg xmlns="http://www.w3.org/2000/svg" xmlns:xlink="http://www.w3.org/1999/xlink" viewBox="0 0 66.54 66.54">
  <defs>
    <style>
      .cls-1 {
        fill: url(#linear-gradient);
      }

      .cls-2 {
        fill: #ff1753;
        opacity: 0.8;
      }

      .cls-2, .cls-3, .cls-4 {
        fill-rule: evenodd;
      }

      .cls-3 {
        fill: #fff;
      }

      .cls-4 {
        fill: #00c9d0;
      }
    </style>
    <linearGradient id="linear-gradient" y1="33.27" x2="66.54" y2="33.27" gradientUnits="userSpaceOnUse">
      <stop offset="0" stop-color="#23004a"/>
      <stop offset="0.96" stop-color="#020003"/>
      <stop offset="1"/>
    </linearGradient>
  </defs>
  <g id="Capa_2" data-name="Capa 2">
    <g id="elements">
      <circle class="cls-1" cx="33.27" cy="33.27" r="33.27"/>
      <path class="cls-2" d="M44.29,26.67A18.08,18.08,0,0,0,54.83,30V22.48a11,11,0,0,1-2.21-.23V28.2a18.08,18.08,0,0,1-10.54-3.37V40.26A14,14,0,0,1,20.31,51.87a14,14,0,0,0,24-9.77V26.67ZM47,19a10.53,10.53,0,0,1-2.73-6.17v-1h-2.1A10.59,10.59,0,0,0,47,19ZM25.2,46a6.39,6.39,0,0,1,5.09-10.27,6.77,6.77,0,0,1,1.94.3V28.25A13.77,13.77,0,0,0,30,28.13v6a6.66,6.66,0,0,0-1.94-.3A6.4,6.4,0,0,0,25.2,46Z"/>
      <path class="cls-3" d="M42.08,24.83A18.08,18.08,0,0,0,52.62,28.2V22.25A10.55,10.55,0,0,1,47,19a10.59,10.59,0,0,1-4.83-7.14H36.68V42.1A6.4,6.4,0,0,1,25.19,46a6.4,6.4,0,0,1,2.88-12.11,6.51,6.51,0,0,1,1.94.3v-6a14,14,0,0,0-9.7,23.74A14,14,0,0,0,42.08,40.26Z"/>
      <path class="cls-4" d="M52.62,22.25V20.64A10.56,10.56,0,0,1,47,19,10.55,10.55,0,0,0,52.62,22.25ZM42.19,11.9a8.62,8.62,0,0,1-.11-.87v-1H34.47v30.2a6.39,6.39,0,0,1-6.4,6.37A6.5,6.5,0,0,1,25.19,46,6.4,6.4,0,0,0,36.68,42.1V11.9ZM30,28.13V26.41a15.19,15.19,0,0,0-1.91-.13,14,14,0,0,0-7.79,25.59A14,14,0,0,1,30,28.13Z"/>
    </g>
  </g>
</svg>
