<svg xmlns="http://www.w3.org/2000/svg" xmlns:xlink="http://www.w3.org/1999/xlink" viewBox="0 0 66.54 66.54">
  <defs>
    <style>
      .cls-1 {
        fill: url(#Degradado_sin_nombre_8);
      }
    </style>
    <linearGradient id="Degradado_sin_nombre_8" data-name="Degradado sin nombre 8" x1="56.8" y1="56.8" x2="9.74" y2="9.74" gradientUnits="userSpaceOnUse">
      <stop offset="0" stop-color="#00fb73"/>
      <stop offset="1" stop-color="#00b25b"/>
    </linearGradient>
  </defs>
  <g id="Capa_2" data-name="Capa 2">
    <g id="elements">
      <path class="cls-1" d="M33.27,0A33.27,33.27,0,1,0,66.54,33.27,33.28,33.28,0,0,0,33.27,0ZM34,51.79a19.69,19.69,0,0,1-9.39-2.4L13.81,52.27l2.87-10.7A19.74,19.74,0,1,1,34,51.79ZM34,16A16,16,0,0,0,20.28,40.33l.41.69-1.6,6,6-1.61.68.41A16,16,0,1,0,34,16Zm9.41,22.08a4.74,4.74,0,0,1-3.58,2.66,7.52,7.52,0,0,1-3.94-.62,16.06,16.06,0,0,1-3.4-1.62,19.33,19.33,0,0,1-5.43-5c-.45-.62-.87-1.25-1.26-1.91a10.48,10.48,0,0,1-1.2-2.77,5.28,5.28,0,0,1-.15-1.25,5,5,0,0,1,1.72-4,2.28,2.28,0,0,1,2.46-.36,5.24,5.24,0,0,1,1.64,2.48,4,4,0,0,1,.52,2.24,4.25,4.25,0,0,1-1.16,1.88.78.78,0,0,0-.1,1.07,12.85,12.85,0,0,0,6.4,5.48.7.7,0,0,0,.91-.19c.48-.59,1-1.74,1.68-2a3.34,3.34,0,0,1,2.83.63c.76.46,2,1,2.23,1.95A2.29,2.29,0,0,1,43.37,38.08Z"/>
    </g>
  </g>
</svg>
