<svg width="197" height="99" viewBox="0 0 197 99" fill="none" xmlns="http://www.w3.org/2000/svg">
<g clip-path="url(#clip0_157_505)">
<path d="M13.8406 17.0794C13.8406 32.2839 13.8406 34.4208 14.4281 36.0148C15.3593 39.4914 17.3745 42.5422 20.1531 44.6819C22.9317 46.8216 26.314 47.9272 29.7621 47.8229C33.2102 47.7186 36.526 46.4104 39.1819 44.1064C41.8378 41.8023 43.6813 38.6348 44.4192 35.1077C45.2741 31.4872 44.9689 27.6729 43.5505 24.2517C42.1321 20.8304 39.6791 17.9918 36.5688 16.1723C33.9821 14.7307 31.0404 14.1382 28.1273 14.472C25.2437 14.4901 22.4377 15.4523 20.1028 17.2237L18.337 18.4913V21.4214C18.2681 22.398 18.2681 23.3786 18.337 24.3553C18.8764 23.8973 19.3752 23.3891 19.8273 22.8371C21.3259 20.9078 23.3506 19.5023 25.6315 18.8076C27.9125 18.1129 30.3415 18.162 32.5951 18.9484C34.8487 19.7348 36.82 21.2212 38.2463 23.2097C39.6726 25.1981 40.4864 27.5942 40.5792 30.0788C40.6622 31.3731 40.605 32.6731 40.4088 33.9539C39.9141 36.549 38.6406 38.9109 36.7739 40.6954C34.9072 42.48 32.5448 43.594 30.031 43.8752C27.5087 44.0971 24.9887 43.4216 22.8789 41.9578C20.7691 40.4941 19.193 38.3279 18.4059 35.8099C17.7858 33.9122 17.7495 33.8173 17.6806 16.9428L17.5791 0H13.5288L13.8406 17.0794Z" fill="#010101"/>
<path d="M115.642 22.8447V39.3548L116.473 41.2753C117.361 43.2623 118.858 44.8815 120.726 45.8754C123.093 46.8177 125.599 47.3199 128.13 47.3594H129.943V43.4463H127.177C123.406 43.1958 121.676 42.3608 120.534 40.334L119.703 38.85V19.1138H130.067V15.0982H119.689V6.33456H115.537L115.642 22.8447Z" fill="#010101"/>
<path d="M58.4301 14.9161C55.329 15.8537 52.5911 17.7949 50.609 20.4615C48.6268 23.1281 47.5021 26.3831 47.396 29.76C47.0424 33.4799 47.9031 37.2154 49.8377 40.3577C51.7723 43.5 54.6669 45.8637 58.0494 47.0634C60.2101 47.7294 62.4771 47.9322 64.7145 47.6596C66.9519 47.387 69.1137 46.6446 71.0706 45.4769C73.7683 43.7006 73.801 43.6664 73.801 40.4441V37.5748L71.9009 39.6015C70.147 41.6624 67.7904 43.0572 65.1992 43.5681C62.6079 44.0789 59.928 43.6771 57.578 42.4253C55.5864 41.1776 53.962 39.3795 52.8832 37.2284C51.8043 35.0773 51.3129 32.6566 51.4628 30.2322C51.6126 27.8078 52.3981 25.4736 53.7328 23.486C55.0675 21.4984 56.8998 19.9344 59.0284 18.9658C61.6276 18.0244 64.4537 18.0244 67.0529 18.9658C69.4671 20.1106 71.4411 22.0752 72.6551 24.5413C74.1056 27.6194 74.3159 29.2476 74.3159 38.6603V47.3518H78.3626V38.6603C78.3626 28.6327 78.0543 26.3517 76.4951 23.0193C75.7255 21.4499 74.6954 20.0362 73.4529 18.8443C72.053 17.3302 70.3545 16.1538 68.4757 15.3974C66.5969 14.6409 64.5831 14.3225 62.5747 14.4644C61.1831 14.4856 59.7961 14.6367 58.4301 14.9161Z" fill="#010101"/>
<path d="M92.9501 14.8819C91.0426 15.5254 89.3164 16.652 87.9247 18.1616C86.5331 19.6712 85.5191 21.5171 84.9728 23.5355C84.4216 25.3459 84.3527 26.2872 84.2476 36.3868V47.2493H88.2942V36.2046C88.2942 25.3459 88.2942 25.1258 89.0557 23.6076C89.7147 21.9481 90.8364 20.5352 92.2744 19.5534C93.7125 18.5716 95.3999 18.0666 97.1164 18.1042C98.322 18.0668 99.5202 18.3142 100.622 18.828C101.724 19.3418 102.701 20.1089 103.48 21.0722C105.591 23.5696 105.656 23.896 105.765 36.1705V47.033H109.463V36.7853C109.563 32.7439 109.457 28.6998 109.144 24.6703C108.734 22.6879 107.898 20.8293 106.7 19.2358C105.501 17.6422 103.971 16.3557 102.226 15.474C100.72 14.7529 99.0714 14.4185 97.4174 14.4985C95.9187 14.4243 94.4172 14.5531 92.9501 14.8819Z" fill="#010101"/>
<path d="M143.28 14.954C140.161 15.9089 137.417 17.8885 135.455 20.6003C133.493 23.3122 132.416 26.6127 132.384 30.0143C132.029 33.7127 132.901 37.4265 134.853 40.5312C136.806 43.636 139.72 45.9426 143.106 47.0633C145.259 47.7256 147.519 47.9261 149.748 47.6529C151.977 47.3796 154.131 46.6382 156.08 45.4731C158.778 43.6968 158.81 43.6626 158.81 40.4403V37.5748L156.667 39.6736C155.575 40.8229 154.328 41.7986 152.965 42.5696C150.832 43.6927 148.412 44.0774 146.056 43.6681C143.7 43.2588 141.53 42.0767 139.857 40.2923C138.337 38.6643 137.261 36.6393 136.742 34.4284C135.867 31.1873 136.252 27.7152 137.815 24.7708C139.378 21.8265 141.99 19.6494 145.082 18.7153L146.119 18.461C149.001 17.8739 151.987 18.5089 154.422 20.2264C156.856 21.9438 158.539 24.6032 159.1 27.6194C159.1 27.6687 159.119 27.718 159.126 27.7674V28.5644C159.543 32.01 159.684 35.4861 159.546 38.9563V47.3594H163.662V37.7645C163.689 34.0651 163.526 30.3667 163.173 26.6857C162.474 23.8407 161.054 21.2458 159.063 19.175C157.073 17.1042 154.585 15.6341 151.863 14.9198C149.025 14.3709 146.114 14.3824 143.28 14.954Z" fill="#010101"/>
<path d="M180.215 15.0982C178.167 15.5958 176.274 16.6302 174.714 18.1042L173.506 19.2428V15.0679H169.735V47.329H173.47V37.1497C173.47 27.4448 173.47 26.9362 174.232 25.3079C175.103 23.1051 176.615 21.2458 178.554 19.9943C179.809 19.2307 181.262 18.9012 182.706 19.0531H185.509V17.0529C185.509 15.3146 185.509 15.1552 184.885 14.954C183.33 14.7494 181.755 14.798 180.215 15.0982Z" fill="#010101"/>
<path d="M158.68 63.1332C158.68 71.3883 158.68 71.6046 159.267 71.6046C159.855 71.6046 159.855 71.3883 159.855 63.1332C159.855 54.8781 159.855 54.696 159.267 54.696C158.68 54.696 158.68 54.8781 158.68 63.1332Z" fill="#010101"/>
<path d="M149.139 60.0703C148.001 60.5291 147.041 61.3737 146.415 62.4694C145.788 63.5652 145.529 64.849 145.68 66.1164C145.642 67.2144 145.999 68.2874 146.681 69.1224C147.095 69.8216 147.663 70.4068 148.337 70.8288C149.012 71.2508 149.773 71.4973 150.557 71.5477C151.885 71.748 153.235 71.4201 154.343 70.629C155.451 69.8378 156.235 68.6407 156.54 67.274C156.99 65.6458 156.957 65.6116 156.196 65.6116C155.434 65.6116 155.503 65.8621 155.191 66.9476C154.952 67.7148 154.551 68.4159 154.018 68.9993C153.486 69.5826 152.834 70.0333 152.113 70.3179C150.916 70.4934 149.701 70.1648 148.735 69.4042C147.769 68.6436 147.131 67.5131 146.96 66.2606C146.823 65.6171 146.823 64.9496 146.96 64.306C147.205 63.5111 147.629 62.7898 148.197 62.2036C148.766 61.6175 149.461 61.1837 150.224 60.9394C150.781 60.7805 151.368 60.7702 151.93 60.9094C152.493 61.0486 153.013 61.3329 153.444 61.7365L154.205 62.3513L150.942 64.6703L147.482 67.0235C147.489 67.1381 147.521 67.2495 147.575 67.3495C147.629 67.4494 147.704 67.5352 147.794 67.6004C148.106 67.8168 148.556 67.8547 151.942 65.4294L155.782 62.7119C156.094 62.4234 154.608 60.9015 153.502 60.2525C152.826 59.9084 152.09 59.7145 151.339 59.6832C150.588 59.6518 149.839 59.7836 149.139 60.0703Z" fill="#010101"/>
<path d="M3.70568 94.9351C3.07743 94.9354 2.45525 94.8065 1.87453 94.5556C1.31214 94.2713 0.833567 93.8333 0.489373 93.2879C0.142956 92.5769 -0.0254698 91.7855 -0.000144808 90.9879V85.5566C-0.0372256 84.7609 0.143954 83.9707 0.522007 83.2793C0.854488 82.7374 1.3205 82.2995 1.8709 82.0117C2.45229 81.7651 3.07483 81.6426 3.70206 81.6511C4.38957 81.6126 5.07619 81.7425 5.70727 82.0306C6.21451 82.3133 6.63453 82.7411 6.91837 83.2642C7.22251 83.7466 7.37932 84.3145 7.368 84.8924V85.5452C7.21393 85.6784 7.01584 85.7425 6.81684 85.7236C6.6459 85.7615 6.46926 85.7615 6.29832 85.7236C6.19886 85.6176 6.12653 85.487 6.088 85.344C6.12423 85.1396 6.12423 84.9299 6.088 84.7254C6.02122 84.4805 5.91714 84.2486 5.77979 84.0384C5.60079 83.7905 5.35618 83.6031 5.07633 83.4995C4.69863 83.3557 4.29976 83.2825 3.89787 83.2831C3.59432 83.2618 3.28975 83.3035 3.00164 83.4058C2.71353 83.508 2.44756 83.6689 2.219 83.879C1.79818 84.4316 1.58879 85.1284 1.63158 85.8337V91.2649C1.58879 91.9702 1.79818 92.6669 2.219 93.2196C2.71135 93.6562 3.34407 93.8801 3.98852 93.8458C4.37884 93.8655 4.76828 93.7915 5.1271 93.6295C5.38491 93.5227 5.60341 93.3325 5.75078 93.0867C5.88849 92.8763 5.99373 92.6444 6.06262 92.3998C6.09526 92.172 6.09526 91.9405 6.06262 91.7128C6.09828 91.5694 6.16959 91.4384 6.26931 91.3332C6.35104 91.2957 6.43932 91.2763 6.52857 91.2763C6.61782 91.2763 6.7061 91.2957 6.78783 91.3332C6.96545 91.2563 7.165 91.2563 7.34262 91.3332V92.0202C7.3492 92.5921 7.19127 93.1528 6.88936 93.6295C6.57504 94.1289 6.13095 94.5239 5.60936 94.7681C4.99382 94.9673 4.34431 95.0242 3.70568 94.9351Z" fill="#F4A7AC"/>
<path d="M12.0096 94.9693C11.4253 94.9589 10.8537 94.7901 10.3503 94.4795C9.84698 94.1688 9.4292 93.7269 9.13775 93.1968C8.82145 92.69 8.65264 92.098 8.65186 91.4926V86.9153C8.66127 86.8366 8.68814 86.7613 8.73032 86.6954C8.77251 86.6295 8.82883 86.5749 8.8948 86.5358C9.06898 86.4836 9.25365 86.4836 9.42783 86.5358C9.58636 86.4864 9.75519 86.4864 9.91372 86.5358C9.97471 86.5771 10.0253 86.6331 10.0613 86.6992C10.0973 86.7652 10.1175 86.8394 10.1204 86.9153V91.6217C10.1217 91.9795 10.2171 92.3301 10.396 92.6351C10.5701 92.9493 10.8062 93.221 11.0886 93.4321C11.3858 93.6412 11.7349 93.7546 12.093 93.7585C12.4505 93.7587 12.7996 93.6449 13.0938 93.4321C13.4263 93.2135 13.6909 92.8983 13.8552 92.525C13.9603 92.1961 13.9603 91.8405 13.8552 91.5116V86.9153C13.8524 86.8382 13.8703 86.7618 13.9068 86.6947C13.9433 86.6276 13.9971 86.5726 14.0619 86.5358C14.2097 86.4123 14.3932 86.3451 14.5823 86.3451C14.7714 86.3451 14.9548 86.4123 15.1026 86.5358C15.1394 86.5916 15.1591 86.6578 15.1591 86.7256C15.1591 86.7934 15.1394 86.8596 15.1026 86.9153V91.6217C15.1132 92.234 14.9573 92.8369 14.653 93.36C14.4615 93.791 14.1904 94.1779 13.8552 94.4986C13.3031 94.856 12.6569 95.0207 12.0096 94.9693Z" fill="#F4A7AC"/>
<path d="M17.6805 83.879C17.5604 83.8847 17.4405 83.8651 17.3277 83.8214C17.215 83.7777 17.1118 83.7109 17.0242 83.6247C16.9441 83.5463 16.8811 83.4508 16.8392 83.3448C16.7973 83.2387 16.7775 83.1245 16.7812 83.0098C16.7773 82.9002 16.7972 82.7909 16.8392 82.6904C16.8813 82.5898 16.9445 82.5005 17.0242 82.4291C17.112 82.3435 17.2153 82.2772 17.3281 82.2342C17.4408 82.1911 17.5607 82.1722 17.6805 82.1786C17.7953 82.1732 17.91 82.1926 18.0174 82.2357C18.1247 82.2788 18.2223 82.3446 18.3042 82.4291C18.3823 82.5019 18.4444 82.5914 18.4863 82.6917C18.5283 82.7919 18.549 82.9004 18.5471 83.0098C18.5509 83.1245 18.5311 83.2387 18.4892 83.3448C18.4473 83.4508 18.3842 83.5463 18.3042 83.6247C18.223 83.7105 18.1256 83.7774 18.0182 83.8212C17.9107 83.865 17.7957 83.8847 17.6805 83.879ZM17.6805 94.7415C17.5619 94.776 17.4365 94.776 17.3179 94.7415C17.2636 94.7372 17.2106 94.7217 17.162 94.6959C17.1134 94.67 17.0701 94.6344 17.0348 94.591C16.9994 94.5476 16.9725 94.4973 16.9558 94.443C16.939 94.3888 16.9327 94.3315 16.9372 94.2747C16.9395 94.2233 16.9519 94.1729 16.9734 94.1267V86.9153C16.9544 86.8022 16.9787 86.6857 17.0411 86.5912C17.1036 86.4967 17.1991 86.4318 17.307 86.4105H18.355C18.4166 86.4514 18.4679 86.5073 18.5045 86.5733C18.5412 86.6394 18.562 86.7138 18.5653 86.7901V94.0318C18.5656 94.1064 18.5461 94.1796 18.509 94.2433C18.4718 94.3069 18.4185 94.3586 18.355 94.3923C18.2858 94.5057 18.1876 94.5964 18.0715 94.6541C17.9555 94.7118 17.8263 94.7342 17.6986 94.7187L17.6805 94.7415Z" fill="#F4A7AC"/>
<path d="M22.7644 94.9692C22.2309 94.966 21.7115 94.7897 21.2777 94.4644C20.8042 94.1366 20.4147 93.6921 20.1435 93.17C19.8723 92.6479 19.7276 92.0641 19.7222 91.4699V89.6101C19.7258 89.0139 19.8697 88.4278 20.141 87.9036C20.4123 87.3793 20.8027 86.933 21.2777 86.6041C21.7362 86.3079 22.262 86.1454 22.8007 86.1335C23.3042 86.1286 23.7977 86.2805 24.2185 86.57C24.5662 86.8179 24.8612 87.1384 25.0851 87.5112V81.6017C25.084 81.5223 25.1025 81.444 25.1387 81.3742C25.1748 81.3044 25.2276 81.2455 25.2918 81.2032H26.3288C26.3923 81.2463 26.4445 81.3053 26.4806 81.375C26.5167 81.4446 26.5356 81.5225 26.5355 81.6017V94.1267C26.5389 94.2014 26.521 94.2755 26.4842 94.3396C26.4475 94.4038 26.3934 94.4551 26.3288 94.4872C26.2481 94.5285 26.1594 94.5499 26.0696 94.5499C25.9797 94.5499 25.8911 94.5285 25.8103 94.4872C25.6642 94.5371 25.5068 94.5371 25.3607 94.4872C25.3019 94.448 25.2526 94.395 25.2167 94.3324C25.1809 94.2699 25.1594 94.1994 25.154 94.1267V93.4017C24.9556 93.8369 24.6272 94.1926 24.2185 94.4151C23.795 94.7427 23.29 94.9352 22.7644 94.9692ZM23.127 93.6295C23.5162 93.6709 23.9058 93.5541 24.2149 93.303C24.4945 93.1185 24.7311 92.8708 24.9074 92.5781C25.0606 92.4099 25.1574 92.1941 25.183 91.9633V89.6101C25.203 89.2101 25.1069 88.8132 24.9074 88.4715C24.7269 88.1716 24.4776 87.9237 24.1822 87.7503C23.9004 87.5728 23.5754 87.4845 23.2467 87.496C22.894 87.5019 22.5484 87.6011 22.2423 87.7845C21.9428 87.9852 21.694 88.2586 21.5171 88.5815C21.3509 88.8905 21.267 89.2405 21.2741 89.5949V91.4699C21.2669 91.8352 21.3507 92.1962 21.5171 92.5174C21.6836 92.8482 21.9347 93.1242 22.2423 93.3144C22.5173 93.4879 22.8257 93.5955 23.1452 93.6295H23.127Z" fill="#F4A7AC"/>
<path d="M29.9948 94.9693C29.3918 94.9963 28.8005 94.7895 28.3341 94.3886C28.0984 94.159 27.9144 93.8775 27.7953 93.5644C27.6761 93.2513 27.6248 92.9145 27.6451 92.5781C27.624 92.2953 27.6591 92.011 27.7484 91.7431C27.8376 91.4753 27.9791 91.2297 28.1637 91.022C28.5599 90.6363 29.0508 90.3735 29.5815 90.2629C30.2764 90.1186 30.9833 90.0462 31.6918 90.0466H32.5222V89.667C32.5196 89.2944 32.4482 88.9258 32.3119 88.5816C32.202 88.2481 31.9969 87.958 31.7245 87.7504C31.4059 87.5196 31.0236 87.4049 30.6366 87.4239H29.6503L29.0956 87.7124H28.733C28.6559 87.7096 28.5811 87.6844 28.517 87.6394C28.4529 87.5945 28.4021 87.5317 28.3704 87.4581C28.3377 87.2916 28.3377 87.1198 28.3704 86.9533C28.3771 86.8409 28.415 86.7329 28.4794 86.6426C28.5438 86.5523 28.6319 86.4835 28.733 86.4447C29.023 86.2615 29.3386 86.127 29.6685 86.0462H30.8107C31.4899 86.0129 32.1633 86.1898 32.747 86.5548C33.2078 86.8722 33.5686 87.3251 33.7841 87.8566C33.9881 88.4031 34.0902 88.9855 34.085 89.5722V94.1267C34.1284 94.2556 34.1284 94.3962 34.085 94.5252C34.0029 94.561 33.9147 94.5794 33.8258 94.5794C33.7368 94.5794 33.6486 94.561 33.5665 94.5252C33.4062 94.5593 33.2409 94.5593 33.0806 94.5252C32.9715 94.5136 32.8677 94.4701 32.7811 94.3996C32.6945 94.3291 32.6287 94.2345 32.5911 94.1267V93.4018C32.2796 93.7934 31.9038 94.1237 31.4815 94.3772C31.0609 94.7391 30.5388 94.947 29.9948 94.9693ZM30.4118 93.7737C30.7635 93.7684 31.108 93.6691 31.4126 93.4853C31.7236 93.304 31.9952 93.0572 32.2103 92.7603C32.3916 92.5222 32.5002 92.2327 32.5222 91.9291V90.9879H30.5496C30.1616 91.027 29.7884 91.1637 29.4618 91.3864C29.3273 91.4967 29.2219 91.6409 29.1553 91.8055C29.0887 91.9702 29.0631 92.1498 29.0811 92.3276C29.0689 92.5208 29.0981 92.7144 29.1665 92.8943C29.2348 93.0742 29.3407 93.2359 29.4763 93.3676C29.7255 93.6257 30.0613 93.7715 30.4118 93.7737Z" fill="#F4A7AC"/>
<path d="M41.5145 94.825C40.7471 94.8862 39.9845 94.6543 39.3678 94.1722C39.1109 93.9039 38.913 93.5801 38.7877 93.2236C38.6625 92.867 38.613 92.4861 38.6426 92.1075V82.767C38.6393 82.6922 38.6571 82.6181 38.6939 82.554C38.7307 82.4898 38.7848 82.4385 38.8493 82.4064C39.0092 82.368 39.1753 82.368 39.3352 82.4064C39.4169 82.3689 39.5052 82.3495 39.5945 82.3495C39.6837 82.3495 39.772 82.3689 39.8537 82.4064C39.9183 82.4385 39.9724 82.4898 40.0091 82.554C40.0459 82.6181 40.0638 82.6922 40.0604 82.767V86.3878H42.2361C42.3063 86.3833 42.3765 86.3977 42.44 86.4296C42.5034 86.4615 42.558 86.5098 42.5987 86.57C42.6313 86.7122 42.6313 86.8605 42.5987 87.0027C42.6312 87.1333 42.6312 87.2705 42.5987 87.4012H40.0604V92.0733C40.0486 92.2705 40.0746 92.468 40.1369 92.6545C40.1992 92.8409 40.2965 93.0124 40.423 93.1588C40.735 93.4038 41.1223 93.5199 41.5108 93.4852H42.0294C42.2048 93.4896 42.374 93.5536 42.5116 93.6674C42.5456 93.7408 42.5633 93.8212 42.5633 93.9027C42.5633 93.9843 42.5456 94.0647 42.5116 94.1381C42.5456 94.2046 42.5634 94.2789 42.5634 94.3544C42.5634 94.4299 42.5456 94.5042 42.5116 94.5707C42.4519 94.6424 42.3775 94.699 42.294 94.7364C42.2106 94.7739 42.1201 94.7912 42.0294 94.7871L41.5145 94.825Z" fill="#F4A7AC"/>
<path d="M46.8741 94.9693C46.2726 94.9775 45.6799 94.8176 45.1573 94.506C44.6346 94.1945 44.2008 93.7425 43.9007 93.1968C43.5855 92.6897 43.418 92.0976 43.4185 91.4927V86.9154C43.4272 86.8369 43.4534 86.7617 43.495 86.6958C43.5365 86.6299 43.5923 86.5751 43.6578 86.5358C43.8163 86.4865 43.9851 86.4865 44.1437 86.5358C44.3128 86.4828 44.4931 86.4828 44.6622 86.5358C44.7426 86.5628 44.8143 86.6125 44.8694 86.6795C44.9244 86.7465 44.9606 86.8281 44.974 86.9154V91.6217C44.9754 91.9796 45.0707 92.3301 45.2496 92.6351C45.4237 92.9493 45.6598 93.221 45.9422 93.4321C46.2394 93.6412 46.5885 93.7546 46.9466 93.7585C47.3041 93.7583 47.6531 93.6444 47.9474 93.4321C48.2453 93.2446 48.4913 92.9789 48.6611 92.6614C48.8309 92.3439 48.9186 91.9855 48.9156 91.6217V86.9154C48.9198 86.8351 48.9446 86.7575 48.9873 86.6907C49.0301 86.6239 49.0892 86.5704 49.1585 86.5358C49.317 86.4865 49.4859 86.4865 49.6444 86.5358C49.8113 86.4689 49.996 86.4689 50.1629 86.5358C50.2281 86.5723 50.282 86.6272 50.3186 86.6944C50.3552 86.7615 50.3729 86.8381 50.3696 86.9154V91.6217C50.3802 92.234 50.2243 92.8369 49.92 93.36C49.6029 93.8761 49.1775 94.3096 48.6762 94.6277C48.1185 94.9177 47.4936 95.0361 46.8741 94.9693Z" fill="#F4A7AC"/>
<path d="M55.5908 98.9886C55.4154 98.9842 55.2462 98.9203 55.1085 98.8064C55.0008 98.7158 54.9275 98.588 54.9019 98.4459V86.9153C54.9035 86.8391 54.9232 86.7645 54.9593 86.6982C54.9954 86.6319 55.0467 86.5761 55.1085 86.5358C55.2673 86.498 55.4321 86.498 55.5908 86.5358C55.7507 86.4974 55.9168 86.4974 56.0767 86.5358C56.1381 86.5766 56.189 86.6325 56.2251 86.6987C56.2611 86.7649 56.2811 86.8392 56.2834 86.9153V87.6403C56.5144 87.2733 56.8082 86.9542 57.15 86.699C57.5842 86.4126 58.0872 86.2612 58.6004 86.2625C59.1516 86.2664 59.6911 86.4293 60.1596 86.7332C60.6347 87.0621 61.0251 87.5084 61.2964 88.0326C61.5677 88.5569 61.7115 89.1429 61.7152 89.7391V91.5837C61.7119 92.18 61.5682 92.7662 61.2968 93.2905C61.0255 93.8148 60.6349 94.261 60.1596 94.5897C59.7215 94.9345 59.1847 95.1137 58.6367 95.0983C58.1512 95.1005 57.6737 94.9696 57.2515 94.7187C56.869 94.4732 56.5581 94.1227 56.3523 93.7054V98.5901C56.3497 98.6661 56.3296 98.7404 56.2936 98.8065C56.2576 98.8726 56.2068 98.9286 56.1456 98.9696C55.9661 99.0306 55.7737 99.0372 55.5908 98.9886ZM58.2886 93.6295C58.6377 93.6333 58.9786 93.5188 59.2604 93.303C59.5671 93.1117 59.8179 92.836 59.9856 92.506C60.1771 92.1943 60.2732 91.8289 60.2612 91.4585V89.6101C60.2598 89.2522 60.1645 88.9017 59.9856 88.5967C59.8087 88.2738 59.5599 88.0004 59.2604 87.7997C58.9542 87.6163 58.6087 87.517 58.256 87.5112C57.9391 87.5036 57.6268 87.5919 57.3567 87.7655C57.0746 87.9572 56.8288 88.2016 56.6315 88.4866C56.4491 88.8358 56.3531 89.2273 56.3523 89.6253V91.9784C56.3808 92.202 56.4646 92.4139 56.5952 92.5933C56.7715 92.886 57.0082 93.1337 57.2878 93.3182C57.5838 93.5252 57.9327 93.6337 58.2886 93.6295Z" fill="#F4A7AC"/>
<path d="M63.7569 83.879C63.6417 83.8849 63.5266 83.8654 63.4191 83.8215C63.3117 83.7777 63.2142 83.7106 63.1332 83.6247C63.0466 83.5537 62.9765 83.463 62.9282 83.3594C62.88 83.2558 62.855 83.1421 62.855 83.0269C62.855 82.9117 62.88 82.798 62.9282 82.6944C62.9765 82.5909 63.0466 82.5001 63.1332 82.4291C63.3045 82.2696 63.5258 82.1815 63.7551 82.1815C63.9844 82.1815 64.2057 82.2696 64.377 82.4291C64.4573 82.5 64.5209 82.5892 64.5631 82.6899C64.6052 82.7906 64.6246 82.9 64.6199 83.0099C64.6246 83.1247 64.6053 83.2392 64.5633 83.3454C64.5214 83.4516 64.4578 83.5469 64.377 83.6247C64.2966 83.7105 64.1999 83.7776 64.093 83.8214C63.9861 83.8653 63.8716 83.8849 63.7569 83.879ZM63.7569 94.7415C63.568 94.754 63.3819 94.6886 63.2384 94.5593C63.1791 94.5203 63.1293 94.4675 63.0928 94.4049C63.0563 94.3424 63.0341 94.2718 63.0281 94.1988V86.9153C63.031 86.839 63.0517 86.7645 63.0884 86.6983C63.125 86.6322 63.1765 86.5764 63.2384 86.5358C63.3976 86.4454 63.5758 86.3981 63.7569 86.3981C63.938 86.3981 64.1162 86.4454 64.2754 86.5358C64.3368 86.5766 64.3878 86.6326 64.4238 86.6987C64.4598 86.7649 64.4799 86.8392 64.4821 86.9153V94.1267C64.4855 94.2014 64.4676 94.2755 64.4308 94.3396C64.3941 94.4038 64.34 94.4551 64.2754 94.4872C64.2166 94.5775 64.1397 94.6534 64.0503 94.7097C63.9608 94.7661 63.8607 94.8015 63.7569 94.8136V94.7415Z" fill="#F4A7AC"/>
<path d="M69.6203 94.9692C68.9421 94.9726 68.271 94.8252 67.6514 94.5366C67.0804 94.2796 66.5968 93.8484 66.2636 93.2993C65.9305 92.7501 65.7633 92.1086 65.7839 91.4585V89.5607C65.7834 88.9558 65.951 88.3637 66.2662 87.8566C66.5648 87.3238 66.9959 86.8856 67.5136 86.5889C68.0335 86.2915 68.6145 86.1301 69.2069 86.1183C69.7865 86.1174 70.3572 86.2674 70.8677 86.5548C71.3647 86.835 71.7824 87.2473 72.0788 87.7503C72.3974 88.2527 72.5548 88.8483 72.5284 89.4507C72.5645 89.815 72.4923 90.1822 72.3217 90.502C72.253 90.604 72.1651 90.6902 72.0635 90.7555C71.9619 90.8207 71.8486 90.8636 71.7307 90.8816H67.2162V91.4698C67.2128 91.7716 67.2728 92.0703 67.3918 92.3451C67.5109 92.6199 67.6861 92.864 67.9052 93.0601C68.4247 93.4724 69.0672 93.6781 69.7182 93.6408C70.0613 93.6721 70.4062 93.6093 70.719 93.4587C70.9421 93.3868 71.1527 93.2779 71.3427 93.136H72.1041C72.2011 93.2062 72.2736 93.3074 72.3108 93.4245C72.3471 93.5169 72.3471 93.6205 72.3108 93.7129C72.3016 93.8221 72.2648 93.9266 72.2043 94.016C72.1437 94.1053 72.0616 94.1763 71.9664 94.2215C71.6949 94.47 71.376 94.655 71.0308 94.7643C70.5733 94.907 70.0977 94.9761 69.6203 94.9692ZM67.2017 89.9744H70.418C70.6202 90.0465 70.8395 90.0465 71.0417 89.9744V89.538C71.0457 89.177 70.9585 88.8212 70.7889 88.5068C70.6193 88.1924 70.3734 87.9305 70.0761 87.7475C69.7787 87.5646 69.4405 87.4671 69.0956 87.4649C68.7506 87.4627 68.4113 87.5559 68.1119 87.7351L68.0647 87.7655C67.7846 87.9457 67.5387 88.1786 67.3395 88.4525C67.1581 88.7563 67.0626 89.1076 67.0639 89.4659L67.2017 89.9744Z" fill="#F4A7AC"/>
<path d="M74.6168 94.825C74.4279 94.8375 74.2418 94.7721 74.0983 94.6428C74.0371 94.6018 73.9863 94.5458 73.9503 94.4797C73.9143 94.4136 73.8942 94.3393 73.8916 94.2633V81.6017C73.8915 81.5225 73.9104 81.4446 73.9465 81.375C73.9826 81.3053 74.0348 81.2463 74.0983 81.2032H75.1353C75.1995 81.2455 75.2523 81.3044 75.2885 81.3742C75.3247 81.444 75.3431 81.5223 75.342 81.6017V94.1267C75.3454 94.2014 75.3275 94.2755 75.2907 94.3396C75.254 94.4038 75.1999 94.4551 75.1353 94.4872C75.0776 94.5796 75.0013 94.6577 74.9117 94.716C74.8222 94.7744 74.7215 94.8116 74.6168 94.825Z" fill="#F4A7AC"/>
<path d="M77.4196 96.4533H77.057C77.0092 96.4223 76.9689 96.3801 76.9393 96.3301C76.9097 96.28 76.8917 96.2234 76.8866 96.1648V95.9485L77.231 95.0072C77.0828 94.9289 76.9529 94.8174 76.8503 94.6808C76.8032 94.5032 76.8032 94.3156 76.8503 94.138C76.8484 93.888 76.9411 93.6474 77.1083 93.4689C77.2755 93.2903 77.5035 93.1884 77.7423 93.1854C77.9767 93.1858 78.2023 93.2794 78.3732 93.4473C78.4723 93.5277 78.5497 93.6336 78.598 93.7546C78.6463 93.8757 78.6638 94.0078 78.6488 94.138C78.6851 94.2304 78.6851 94.3341 78.6488 94.4265C78.6112 94.6415 78.5414 94.849 78.4421 95.0414L78.0288 96.18V96.3622L77.4196 96.4533Z" fill="#F4A7AC"/>
<path d="M83.5405 94.825C83.3651 94.8207 83.1958 94.7567 83.0582 94.6428C83.0015 94.571 82.9687 94.4817 82.9648 94.3886C82.9608 94.2954 82.986 94.2035 83.0365 94.1267V86.9154C83.0396 86.8395 83.06 86.7654 83.096 86.6994C83.1319 86.6334 83.1824 86.5773 83.2432 86.5358C83.4031 86.4975 83.5692 86.4975 83.729 86.5358C83.8889 86.4975 84.055 86.4975 84.2149 86.5358C84.2757 86.5773 84.3262 86.6334 84.3621 86.6994C84.3981 86.7654 84.4185 86.8395 84.4216 86.9154V87.7466C84.501 87.4548 84.6168 87.1753 84.7661 86.9154C84.9807 86.6709 85.2395 86.4735 85.5276 86.3347C85.8319 86.1913 86.162 86.1175 86.4957 86.1183H87.0832C87.1644 86.115 87.2451 86.133 87.318 86.1708C87.3909 86.2086 87.4535 86.265 87.5001 86.3347C87.5852 86.4755 87.6304 86.6387 87.6304 86.8053C87.6304 86.9719 87.5852 87.1351 87.5001 87.2759C87.4535 87.3456 87.3909 87.402 87.318 87.4398C87.2451 87.4775 87.1644 87.4956 87.0832 87.4923H86.4812C86.1122 87.4905 85.7511 87.6042 85.4442 87.8187C85.1011 88.0459 84.8161 88.3573 84.6138 88.7258C84.4059 89.1645 84.2991 89.648 84.302 90.1377V94.1267C84.3053 94.2014 84.2875 94.2755 84.2507 94.3396C84.2139 94.4038 84.1598 94.4551 84.0953 94.4872C83.9561 94.6672 83.7587 94.7874 83.5405 94.825Z" fill="#F4A7AC"/>
<path d="M91.6014 94.9693C90.922 94.9727 90.2497 94.8253 89.6288 94.5366C89.0721 94.2606 88.5954 93.8349 88.2473 93.3031C87.9269 92.75 87.7553 92.1166 87.7505 91.4699V89.5722C87.7513 88.9668 87.9201 88.3748 88.2364 87.868C88.5323 87.3342 88.9625 86.8957 89.4801 86.6003C90.0014 86.3029 90.5835 86.1415 91.1771 86.1297C91.7555 86.1288 92.3251 86.2788 92.8342 86.5662C93.332 86.8454 93.7499 87.258 94.0453 87.7617C94.3672 88.2626 94.525 88.8593 94.495 89.4621C94.531 89.8265 94.4589 90.1936 94.2883 90.5134C94.22 90.615 94.1327 90.701 94.0317 90.7662C93.9308 90.8314 93.8182 90.8746 93.7008 90.893H89.1683V91.4699C89.1646 91.772 89.2248 92.0712 89.3445 92.3462C89.4642 92.6211 89.6406 92.8649 89.8609 93.0602C90.3801 93.473 91.0228 93.6788 91.6739 93.6409C92.0181 93.6721 92.3642 93.6093 92.6783 93.4587C92.8999 93.386 93.1092 93.2771 93.2983 93.1361H94.0598C94.1577 93.206 94.2315 93.3072 94.2701 93.4245C94.3029 93.5176 94.3029 93.6199 94.2701 93.713C94.2588 93.824 94.2192 93.9298 94.1554 94.0193C94.0916 94.1088 94.006 94.1786 93.9075 94.2216C93.638 94.4709 93.3201 94.656 92.9756 94.7643C92.5297 94.9032 92.0666 94.9723 91.6014 94.9693ZM89.1792 89.9745H92.3955C92.5977 90.0465 92.8169 90.0465 93.0191 89.9745V89.538C93.0263 89.1835 92.9424 88.8336 92.7762 88.5246C92.6497 88.2882 92.4799 88.0802 92.2766 87.9125C92.0732 87.7448 91.8402 87.6207 91.591 87.5474C91.3417 87.4741 91.0811 87.4529 90.8241 87.4851C90.567 87.5174 90.3186 87.6023 90.0929 87.7352L90.0458 87.7655C89.7651 87.945 89.5191 88.178 89.3206 88.4525C89.1432 88.7582 89.048 89.1083 89.045 89.4659L89.1792 89.9745Z" fill="#F4A7AC"/>
<path d="M98.0704 94.9693C97.5676 94.9698 97.0673 94.897 96.5837 94.7529C96.2198 94.6384 95.8792 94.4544 95.5793 94.2102C95.4782 94.145 95.3939 94.0549 95.3338 93.9477C95.2738 93.8405 95.2398 93.7195 95.2348 93.5953V93.3031C95.2166 93.2194 95.2166 93.1325 95.2348 93.0488H95.4741C95.5603 93.0464 95.6458 93.0651 95.7238 93.1033C95.8018 93.1415 95.8703 93.1982 95.9238 93.2689C96.1223 93.4463 96.3446 93.5921 96.5837 93.7016C96.9625 93.883 97.38 93.9575 97.7948 93.9179C98.0204 93.9508 98.2499 93.9358 98.4698 93.8739C98.6898 93.8119 98.8955 93.7043 99.0748 93.5574C99.1873 93.4615 99.277 93.3397 99.3368 93.2013C99.3966 93.063 99.4248 92.912 99.4193 92.7603C99.432 92.6003 99.4106 92.4394 99.3566 92.2891C99.3027 92.1388 99.2176 92.0029 99.1075 91.8912C98.8712 91.6868 98.6024 91.5275 98.3134 91.4205L97.3089 91.0941L96.5148 90.5172C96.2081 90.36 95.9456 90.1219 95.7534 89.8264C95.529 89.4749 95.4196 89.0568 95.4415 88.6347C95.445 88.2303 95.5394 87.8324 95.7171 87.4733C95.9138 87.059 96.2278 86.7183 96.6164 86.4979C97.1292 86.2212 97.7003 86.0842 98.2771 86.0993C98.6657 86.0272 99.0633 86.0272 99.4519 86.0993C99.7713 86.1713 100.077 86.2996 100.355 86.4789C100.445 86.5217 100.523 86.5871 100.583 86.6691C100.643 86.7512 100.683 86.8475 100.699 86.9495C100.732 87.0439 100.732 87.1474 100.699 87.2418C100.678 87.3667 100.616 87.4803 100.525 87.5644C100.424 87.6023 100.314 87.6023 100.213 87.5644H99.8327L99.2126 87.2759C98.9249 87.238 98.6337 87.238 98.346 87.2759C98.0484 87.2228 97.7443 87.2228 97.4467 87.2759C97.2347 87.3955 97.056 87.5708 96.9282 87.7845C96.8955 87.9753 96.8955 88.1706 96.9282 88.3614C96.9245 88.4941 96.9508 88.6259 97.005 88.7459C97.0592 88.866 97.1397 88.9709 97.24 89.0522C97.4699 89.2578 97.7414 89.4057 98.0341 89.4849L99.0386 89.7733C99.3999 89.8741 99.7482 90.0207 100.076 90.2098C100.395 90.3936 100.668 90.6537 100.873 90.9689C101.113 91.3558 101.221 91.8155 101.182 92.2745C101.21 92.6424 101.145 93.0116 100.994 93.3448C100.842 93.6781 100.609 93.9635 100.319 94.1722C99.6824 94.7071 98.8861 94.9894 98.0704 94.9693Z" fill="#F4A7AC"/>
<path d="M103.952 94.9692C103.348 94.9974 102.757 94.7905 102.291 94.3885C102.055 94.1593 101.87 93.878 101.75 93.5649C101.63 93.2518 101.578 92.9147 101.598 92.5781C101.578 92.2954 101.614 92.0113 101.703 91.7436C101.792 91.4758 101.933 91.2302 102.117 91.022C102.522 90.6298 103.025 90.3665 103.567 90.2629C104.25 90.1188 104.945 90.0464 105.641 90.0466H106.472V89.667C106.483 89.2967 106.424 88.9278 106.298 88.5815C106.164 88.2619 105.963 87.9779 105.71 87.7503C105.373 87.5152 104.972 87.4007 104.568 87.4239H103.778L103.19 87.7124H102.828C102.743 87.7114 102.661 87.6874 102.589 87.6428C102.516 87.5982 102.456 87.5345 102.414 87.4581C102.378 87.2919 102.378 87.1194 102.414 86.9533C102.421 86.8408 102.459 86.7329 102.523 86.6426C102.588 86.5523 102.676 86.4835 102.777 86.4447C103.079 86.2628 103.405 86.1285 103.745 86.0462H104.851C105.47 85.9869 106.091 86.1289 106.629 86.4529C107.168 86.777 107.598 87.2672 107.861 87.8566C108.067 88.3988 108.173 88.9771 108.172 89.5608V94.1153C108.169 94.1938 108.149 94.2705 108.113 94.3396C108.077 94.4086 108.027 94.4682 107.966 94.5138C107.799 94.5807 107.614 94.5807 107.447 94.5138C107.299 94.548 107.146 94.548 106.998 94.5138C106.907 94.4908 106.825 94.441 106.76 94.3703C106.696 94.2996 106.652 94.2111 106.635 94.1153V93.3903C106.338 93.7808 105.975 94.1113 105.565 94.3658C105.103 94.7434 104.538 94.9551 103.952 94.9692ZM104.401 93.7737C104.743 93.7719 105.078 93.6722 105.369 93.4852C105.679 93.3029 105.949 93.0562 106.164 92.7603C106.348 92.5243 106.457 92.2336 106.475 91.9291V90.9878H104.503C104.134 91.042 103.78 91.1778 103.466 91.3864C103.327 91.494 103.216 91.6368 103.143 91.8014C103.071 91.966 103.04 92.147 103.052 92.3276C103.036 92.521 103.062 92.7156 103.128 92.8969C103.194 93.0783 103.298 93.2418 103.433 93.3752C103.699 93.6272 104.043 93.769 104.401 93.7737Z" fill="#F4A7AC"/>
<path d="M110.348 94.825C110.159 94.8375 109.973 94.7721 109.829 94.6428C109.768 94.6018 109.717 94.5458 109.681 94.4797C109.645 94.4136 109.625 94.3393 109.623 94.2633V81.6017C109.623 81.5227 109.642 81.445 109.678 81.3755C109.714 81.306 109.766 81.2468 109.829 81.2032H110.87C110.933 81.2468 110.985 81.306 111.021 81.3755C111.057 81.445 111.076 81.5227 111.077 81.6017V94.1267C111.077 94.2008 111.058 94.2736 111.021 94.3371C110.985 94.4007 110.933 94.4526 110.87 94.4872C110.812 94.5801 110.735 94.6584 110.645 94.7168C110.554 94.7752 110.453 94.8121 110.348 94.825Z" fill="#F4A7AC"/>
<path d="M115.711 94.825C114.945 94.8856 114.184 94.6537 113.568 94.1722C113.311 93.9039 113.113 93.5801 112.988 93.2236C112.863 92.867 112.813 92.4861 112.843 92.1075V82.7669C112.842 82.6923 112.862 82.6191 112.899 82.5554C112.936 82.4918 112.99 82.4402 113.053 82.4064C113.212 82.3686 113.377 82.3686 113.535 82.4064C113.701 82.3345 113.888 82.3345 114.054 82.4064C114.118 82.4385 114.173 82.4898 114.209 82.554C114.246 82.6181 114.264 82.6922 114.261 82.7669V86.3878H116.436C116.506 86.3833 116.577 86.3977 116.64 86.4296C116.704 86.4615 116.758 86.5098 116.799 86.57C116.831 86.7122 116.831 86.8604 116.799 87.0026C116.831 87.1333 116.831 87.2705 116.799 87.4012H114.17V92.0733C114.156 92.2692 114.179 92.466 114.238 92.6524C114.297 92.8388 114.391 93.011 114.514 93.1588C114.832 93.4073 115.226 93.5236 115.62 93.4852H116.143C116.318 93.4896 116.487 93.5535 116.625 93.6674C116.659 93.7408 116.676 93.8212 116.676 93.9027C116.676 93.9843 116.659 94.0647 116.625 94.1381C116.659 94.2046 116.677 94.2789 116.677 94.3544C116.677 94.4299 116.659 94.5042 116.625 94.5707C116.565 94.6417 116.49 94.6979 116.407 94.7353C116.323 94.7727 116.233 94.7904 116.143 94.7871L115.711 94.825Z" fill="#F4A7AC"/>
<path d="M119.62 94.9692C119.017 94.9963 118.425 94.7895 117.959 94.3885C117.723 94.1593 117.538 93.878 117.418 93.5649C117.298 93.2518 117.247 92.9147 117.266 92.5781C117.247 92.2955 117.283 92.0116 117.372 91.744C117.461 91.4764 117.602 91.2307 117.785 91.022C118.19 90.6298 118.693 90.3665 119.235 90.2629C119.918 90.1188 120.613 90.0464 121.309 90.0466H122.14V89.667C122.136 89.2983 122.078 88.9323 121.969 88.5815C121.833 88.2634 121.633 87.9799 121.382 87.7503C121.045 87.516 120.644 87.4015 120.24 87.4239H119.297L118.71 87.7124H118.347C118.262 87.7121 118.179 87.6884 118.106 87.6438C118.033 87.5991 117.972 87.5351 117.93 87.4581C117.897 87.2916 117.897 87.1198 117.93 86.9533C117.938 86.8386 117.979 86.729 118.046 86.6385C118.114 86.5479 118.206 86.4805 118.311 86.4447C118.613 86.2628 118.939 86.1285 119.279 86.0462H120.385C121.004 85.9857 121.625 86.1273 122.164 86.4515C122.703 86.7756 123.133 87.2665 123.394 87.8566C123.601 88.3988 123.707 88.9771 123.706 89.5608V94.1153C123.704 94.1941 123.685 94.2713 123.649 94.3406C123.613 94.4099 123.562 94.4693 123.5 94.5138C123.334 94.5857 123.147 94.5857 122.981 94.5138C122.833 94.548 122.679 94.548 122.531 94.5138C122.469 94.4693 122.418 94.4099 122.382 94.3406C122.346 94.2713 122.326 94.1941 122.325 94.1153V93.3903C122.021 93.7815 121.653 94.112 121.237 94.3658C120.776 94.7477 120.207 94.9598 119.62 94.9692ZM120.069 93.7737C120.411 93.7723 120.746 93.6725 121.037 93.4852C121.348 93.303 121.619 93.0563 121.835 92.7603C122.017 92.5231 122.125 92.2328 122.143 91.9291V90.9878H120.174C119.804 91.0413 119.449 91.1772 119.134 91.3864C118.996 91.4952 118.886 91.6382 118.814 91.8025C118.742 91.9668 118.71 92.1472 118.72 92.3276C118.702 92.5195 118.725 92.7132 118.788 92.8945C118.851 93.0757 118.952 93.24 119.083 93.3752C119.353 93.6316 119.705 93.7736 120.069 93.7737Z" fill="#F4A7AC"/>
<path d="M131.035 94.825C130.279 94.8817 129.529 94.6498 128.925 94.1722C128.652 93.9141 128.442 93.5929 128.31 93.2344C128.178 92.8759 128.127 92.49 128.163 92.1075V82.7669C128.169 82.6896 128.195 82.6153 128.237 82.5518C128.28 82.4884 128.338 82.4381 128.406 82.4064C128.553 82.3171 128.72 82.27 128.89 82.27C129.06 82.27 129.227 82.3171 129.374 82.4064C129.445 82.4325 129.507 82.4813 129.551 82.5459C129.594 82.6106 129.618 82.6878 129.617 82.7669V86.3878H131.793C131.855 86.3895 131.916 86.4069 131.97 86.4387C132.024 86.4704 132.071 86.5155 132.105 86.57C132.137 86.7122 132.137 86.8604 132.105 87.0026C132.137 87.1333 132.137 87.2705 132.105 87.4012H129.613V92.0733C129.592 92.267 129.609 92.4631 129.662 92.6498C129.716 92.8364 129.805 93.0097 129.925 93.1588C130.242 93.4083 130.637 93.5247 131.031 93.4852H131.448C131.615 93.4855 131.775 93.5505 131.898 93.6674C131.931 93.8224 131.931 93.983 131.898 94.1381C131.931 94.2803 131.931 94.4285 131.898 94.5707C131.845 94.6414 131.776 94.6979 131.698 94.7355C131.62 94.7731 131.534 94.7908 131.448 94.7871L131.035 94.825Z" fill="#F4A7AC"/>
<path d="M136.499 94.9692C135.898 94.9775 135.305 94.8176 134.782 94.506C134.26 94.1944 133.826 93.7425 133.526 93.1968C133.221 92.6865 133.065 92.0943 133.076 91.4926V86.9153C133.097 86.7663 133.171 86.6309 133.283 86.5358C133.453 86.4865 133.632 86.4865 133.801 86.5358C133.96 86.4864 134.129 86.4864 134.287 86.5358C134.348 86.5771 134.399 86.6331 134.435 86.6992C134.471 86.7652 134.491 86.8394 134.494 86.9153V91.6217C134.495 91.9795 134.591 92.3301 134.77 92.6351C134.937 92.9657 135.188 93.2415 135.495 93.4321C135.789 93.6454 136.139 93.7597 136.497 93.7597C136.856 93.7597 137.205 93.6454 137.5 93.4321C137.807 93.2509 138.049 92.9715 138.193 92.6351C138.336 92.3195 138.394 91.9694 138.363 91.6217V86.9153C138.36 86.8377 138.378 86.7608 138.416 86.6936C138.453 86.6264 138.508 86.5717 138.573 86.5358C138.743 86.4903 138.922 86.4903 139.092 86.5358C139.261 86.4827 139.441 86.4827 139.61 86.5358C139.647 86.5916 139.667 86.6578 139.667 86.7256C139.667 86.7934 139.647 86.8596 139.61 86.9153V91.6217C139.621 92.234 139.465 92.8369 139.161 93.36C138.843 93.8771 138.417 94.3108 137.913 94.6277C137.47 94.844 136.988 94.9604 136.499 94.9692Z" fill="#F4A7AC"/>
<path d="M148.305 94.9692C147.798 94.9658 147.299 94.8288 146.855 94.5707C146.475 94.3099 146.155 93.9637 145.919 93.5573V94.1267C145.953 94.1801 145.971 94.2428 145.971 94.3069C145.971 94.3711 145.953 94.4338 145.919 94.4872C145.783 94.6047 145.612 94.669 145.435 94.669C145.259 94.669 145.088 94.6047 144.951 94.4872C144.893 94.448 144.843 94.395 144.807 94.3324C144.771 94.2699 144.75 94.1994 144.745 94.1267V81.4651C144.747 81.389 144.767 81.3146 144.803 81.2485C144.839 81.1823 144.89 81.1264 144.951 81.0856C145.11 81.0478 145.275 81.0478 145.434 81.0856C145.606 81.0476 145.784 81.0476 145.956 81.0856C146.017 81.1271 146.067 81.1832 146.103 81.2492C146.139 81.3152 146.159 81.3892 146.162 81.4651V87.367C146.392 87.0002 146.685 86.681 147.025 86.4257C147.448 86.1398 147.94 85.9881 148.443 85.9893C148.994 85.9949 149.533 86.1576 150.002 86.4599C150.456 86.7912 150.834 87.2242 151.108 87.7276C151.384 88.2614 151.526 88.8593 151.522 89.4659V91.3142C151.526 91.9196 151.384 92.5163 151.108 93.0488C150.834 93.5521 150.456 93.9852 150.002 94.3164C149.775 94.5373 149.508 94.7088 149.216 94.8208C148.925 94.9329 148.615 94.9833 148.305 94.9692ZM147.943 93.6295C148.291 93.6333 148.631 93.5188 148.911 93.3031C149.219 93.1128 149.47 92.8369 149.636 92.506C149.813 92.1874 149.909 91.8268 149.915 91.4585V89.6101C149.907 89.2528 149.811 88.9037 149.636 88.5967C149.46 88.273 149.211 87.9993 148.911 87.7997C148.605 87.6158 148.259 87.5166 147.907 87.5112C147.58 87.5205 147.26 87.6145 146.977 87.7847C146.693 87.955 146.455 88.1961 146.282 88.4867C146.073 88.8256 145.964 89.2218 145.97 89.6253V91.9784C146.012 92.204 146.107 92.4152 146.246 92.5933C146.422 92.886 146.659 93.1337 146.938 93.3182C147.236 93.5253 147.586 93.6337 147.943 93.6295Z" fill="#F4A7AC"/>
<path d="M156.218 94.9692C155.538 94.9731 154.866 94.8256 154.245 94.5366C153.674 94.2796 153.191 93.8484 152.857 93.2993C152.524 92.7501 152.357 92.1086 152.378 91.4585V89.5608C152.377 88.9558 152.545 88.3637 152.86 87.8566C153.159 87.3238 153.59 86.8857 154.107 86.5889C154.627 86.2919 155.208 86.1305 155.801 86.1183C156.38 86.1169 156.951 86.267 157.461 86.5548C157.958 86.835 158.376 87.2474 158.673 87.7503C158.993 88.252 159.15 88.8481 159.122 89.4507C159.158 89.815 159.086 90.1822 158.915 90.502C158.847 90.6036 158.76 90.6896 158.659 90.7548C158.558 90.82 158.445 90.8632 158.328 90.8816H153.795V91.4699C153.792 91.772 153.852 92.0712 153.972 92.3461C154.091 92.6211 154.268 92.8649 154.488 93.0601C155.007 93.473 155.65 93.6788 156.301 93.6408C156.644 93.6724 156.989 93.6096 157.302 93.4587C157.525 93.3868 157.736 93.2779 157.926 93.136H158.687C158.785 93.2052 158.858 93.3068 158.894 93.4245C158.93 93.5169 158.93 93.6206 158.894 93.713C158.884 93.8244 158.844 93.9307 158.78 94.0204C158.716 94.1101 158.63 94.1796 158.531 94.2215C158.26 94.4709 157.941 94.6561 157.596 94.7643C157.149 94.904 156.684 94.9731 156.218 94.9692ZM153.795 89.9745H157.008C157.21 90.0465 157.43 90.0465 157.632 89.9745C157.666 89.9072 157.684 89.8323 157.684 89.7562C157.684 89.6801 157.666 89.6052 157.632 89.538C157.621 89.1859 157.538 88.8404 157.389 88.5246C157.262 88.2882 157.093 88.0801 156.889 87.9124C156.686 87.7448 156.453 87.6207 156.204 87.5474C155.954 87.4741 155.694 87.4529 155.437 87.4851C155.18 87.5173 154.931 87.6023 154.706 87.7352L154.655 87.7655C154.375 87.9457 154.129 88.1786 153.93 88.4525C153.751 88.7574 153.655 89.108 153.654 89.4659L153.795 89.9745Z" fill="#F4A7AC"/>
<path d="M161.196 94.825C161.007 94.8375 160.821 94.7721 160.678 94.6428C160.617 94.6018 160.566 94.5458 160.53 94.4797C160.494 94.4136 160.474 94.3393 160.471 94.2633V81.6017C160.472 81.5227 160.491 81.445 160.527 81.3755C160.563 81.306 160.615 81.2468 160.678 81.2032H161.722C161.785 81.2468 161.837 81.306 161.873 81.3755C161.909 81.445 161.928 81.5227 161.929 81.6017V94.1267C161.932 94.2014 161.914 94.2755 161.878 94.3396C161.841 94.4038 161.787 94.4551 161.722 94.4872C161.664 94.5805 161.586 94.6592 161.495 94.7176C161.404 94.7759 161.302 94.8126 161.196 94.825Z" fill="#F4A7AC"/>
<path d="M164.587 94.825C164.398 94.8375 164.212 94.7721 164.068 94.6428C164.007 94.6018 163.956 94.5458 163.92 94.4797C163.884 94.4136 163.864 94.3393 163.861 94.2633V81.6017C163.861 81.5225 163.88 81.4446 163.916 81.375C163.952 81.3053 164.005 81.2463 164.068 81.2032H165.105C165.169 81.2459 165.222 81.3047 165.259 81.3743C165.296 81.444 165.315 81.5222 165.315 81.6017V94.1267C165.316 94.2013 165.296 94.2745 165.259 94.3382C165.222 94.4018 165.169 94.4534 165.105 94.4872C165.047 94.5796 164.971 94.6577 164.881 94.716C164.792 94.7744 164.691 94.8116 164.587 94.825Z" fill="#F4A7AC"/>
<path d="M170.642 94.9693C169.962 94.9731 169.29 94.8256 168.669 94.5366C168.099 94.2809 167.616 93.8518 167.283 93.3048C166.949 92.7579 166.78 92.1185 166.798 91.4699V89.5722C166.798 88.9672 166.965 88.3751 167.28 87.868C167.579 87.3352 168.01 86.8971 168.528 86.6003C169.048 86.3034 169.629 86.1419 170.221 86.1297C170.801 86.1284 171.372 86.2784 171.882 86.5662C172.379 86.8464 172.797 87.2588 173.093 87.7617C173.413 88.2634 173.571 88.8595 173.543 89.4621C173.579 89.8265 173.507 90.1936 173.336 90.5134C173.268 90.615 173.18 90.701 173.079 90.7662C172.978 90.8314 172.866 90.8746 172.749 90.893H168.216V91.4699C168.212 91.772 168.272 92.0712 168.392 92.3462C168.512 92.6211 168.688 92.8649 168.909 93.0602C169.428 93.473 170.071 93.6788 170.722 93.6409C171.065 93.6725 171.41 93.6097 171.722 93.4587C171.945 93.3869 172.156 93.2779 172.346 93.1361H172.962C173.06 93.2052 173.133 93.3068 173.169 93.4245C173.205 93.5169 173.205 93.6206 173.169 93.713C173.163 93.7928 173.141 93.8704 173.105 93.9415C173.07 94.0125 173.021 94.0754 172.962 94.1267C172.691 94.3751 172.372 94.5601 172.027 94.6694C171.583 94.8434 171.116 94.9445 170.642 94.9693ZM168.22 89.9745H171.436C171.638 90.0465 171.857 90.0465 172.06 89.9745C172.094 89.9072 172.111 89.8323 172.111 89.7562C172.111 89.6802 172.094 89.6053 172.06 89.538C172.049 89.1859 171.966 88.8404 171.817 88.5246C171.69 88.2882 171.52 88.0802 171.317 87.9125C171.114 87.7448 170.881 87.6207 170.631 87.5474C170.382 87.4741 170.122 87.4529 169.865 87.4851C169.607 87.5174 169.359 87.6023 169.133 87.7352L169.083 87.7655C168.802 87.9457 168.557 88.1787 168.357 88.4525C168.178 88.7575 168.083 89.108 168.082 89.4659L168.22 89.9745Z" fill="#F4A7AC"/>
<path d="M174.652 94.825C174.58 94.8283 174.507 94.8135 174.441 94.7818C174.375 94.7502 174.317 94.7025 174.272 94.6429C174.236 94.5192 174.236 94.387 174.272 94.2633V93.6485L178.286 87.5264H174.827C174.765 87.5228 174.705 87.505 174.651 87.4741C174.597 87.4432 174.551 87.4002 174.515 87.348C174.482 87.193 174.482 87.0324 174.515 86.8774C174.478 86.7344 174.478 86.5839 174.515 86.4409C174.548 86.3718 174.601 86.3146 174.665 86.2761C174.73 86.2377 174.803 86.2198 174.877 86.2246H179.892C180.016 86.1865 180.149 86.1865 180.273 86.2246C180.305 86.2924 180.322 86.3671 180.322 86.4428C180.322 86.5186 180.305 86.5933 180.273 86.6611C180.276 86.8745 180.201 87.0811 180.063 87.238L176.052 93.3942H179.892C179.959 93.3929 180.026 93.4088 180.086 93.4406C180.146 93.4723 180.198 93.5189 180.237 93.5763C180.271 93.6497 180.288 93.7301 180.288 93.8117C180.288 93.8932 180.271 93.9736 180.237 94.047C180.273 94.1887 180.273 94.3379 180.237 94.4796C180.183 94.5058 180.124 94.5194 180.064 94.5194C180.005 94.5194 179.946 94.5058 179.892 94.4796L174.652 94.825Z" fill="#F4A7AC"/>
<path d="M183.337 94.9693C182.745 94.9845 182.168 94.7786 181.709 94.3886C181.473 94.159 181.289 93.8775 181.17 93.5644C181.051 93.2513 180.999 92.9145 181.02 92.5781C180.998 92.2953 181.034 92.011 181.123 91.7431C181.212 91.4753 181.354 91.2297 181.538 91.022C181.934 90.6363 182.425 90.3735 182.956 90.2629C183.651 90.1186 184.358 90.0462 185.066 90.0466H185.897V89.667C185.894 89.2944 185.823 88.9258 185.686 88.5816C185.576 88.2481 185.371 87.958 185.099 87.7504C184.775 87.5155 184.386 87.4007 183.993 87.4239H183.025L182.47 87.7124H182.089C182.009 87.7132 181.93 87.6896 181.863 87.6445C181.795 87.5993 181.742 87.5346 181.709 87.4581C181.676 87.2916 181.676 87.1198 181.709 86.9533C181.717 86.8388 181.758 86.7294 181.826 86.639C181.893 86.5485 181.985 86.4809 182.089 86.4447C182.379 86.2615 182.695 86.127 183.025 86.0462H184.167C184.846 86.0129 185.52 86.1898 186.103 86.5548C186.564 86.8722 186.925 87.3251 187.14 87.8566C187.353 88.4013 187.464 88.9837 187.467 89.5722V94.1267C187.499 94.2573 187.499 94.3945 187.467 94.5252C187.3 94.5921 187.115 94.5921 186.948 94.5252C186.788 94.5593 186.623 94.5593 186.462 94.5252C186.419 94.3962 186.419 94.2556 186.462 94.1267V93.4018C186.152 93.7932 185.778 94.1236 185.356 94.3772C185.074 94.6118 184.751 94.7851 184.404 94.8868C184.057 94.9885 183.694 95.0165 183.337 94.9693ZM183.786 93.7737C184.138 93.7684 184.482 93.6691 184.787 93.4853C185.085 93.2845 185.353 93.0404 185.585 92.7603C185.766 92.5222 185.875 92.2327 185.897 91.9291V90.9879H183.924C183.536 91.0277 183.163 91.1644 182.836 91.3864C182.705 91.4987 182.603 91.6439 182.54 91.8084C182.476 91.9729 182.454 92.1515 182.474 92.3276C182.456 92.5195 182.48 92.7129 182.543 92.8941C182.605 93.0752 182.706 93.2395 182.836 93.3752C183.069 93.5882 183.359 93.7208 183.667 93.7547L183.786 93.7737Z" fill="#F4A7AC"/>
<path d="M162.382 63.1332C162.382 71.3883 162.382 71.6046 162.969 71.6046C163.557 71.6046 163.557 71.3883 163.557 63.1332C163.557 54.8781 163.557 54.696 162.969 54.696C162.382 54.696 162.382 54.8781 162.382 63.1332Z" fill="#010101"/>
<path d="M133.141 60.6851C133.141 66.1771 133.141 66.9476 133.352 67.5169C133.688 68.7722 134.416 69.8738 135.419 70.6464C136.422 71.419 137.644 71.8182 138.889 71.7807C140.134 71.7432 141.331 71.271 142.291 70.4393C143.25 69.6075 143.916 68.464 144.183 67.1905C144.489 65.8839 144.377 64.5083 143.865 63.2744C143.353 62.0405 142.468 61.0163 141.347 60.3587C140.413 59.8379 139.35 59.6237 138.298 59.7439C137.255 59.75 136.241 60.0977 135.397 60.7383L134.762 61.1937V62.245C134.737 62.5975 134.737 62.9515 134.762 63.304C134.955 63.1375 135.135 62.9547 135.299 62.7574C135.84 62.0614 136.57 61.5543 137.393 61.3036C138.217 61.0529 139.093 61.0704 139.906 61.3539C140.72 61.6374 141.431 62.1734 141.946 62.8906C142.462 63.6078 142.756 64.4721 142.79 65.3687C142.821 65.8365 142.8 66.3063 142.729 66.7692C142.55 67.706 142.09 68.5588 141.417 69.2032C140.743 69.8476 139.89 70.2501 138.983 70.3521C138.072 70.4306 137.162 70.1857 136.4 69.6569C135.639 69.1281 135.069 68.3462 134.784 67.4372C134.559 66.7578 134.548 66.7161 134.523 60.6244L134.487 54.5062H133.036L133.141 60.6851Z" fill="#010101"/>
<path d="M168.815 60.2525C167.674 60.7094 166.713 61.5533 166.085 62.6493C165.456 63.7453 165.197 65.0302 165.348 66.2986C165.309 67.3965 165.667 68.4696 166.349 69.3046C166.763 70.006 167.333 70.5929 168.009 71.0156C168.686 71.4384 169.45 71.6846 170.236 71.7336C171.565 71.9358 172.918 71.6085 174.027 70.8163C175.137 70.0242 175.921 68.825 176.226 67.4562C176.676 65.8279 176.64 65.7938 175.864 65.7938C175.088 65.7938 175.171 66.0443 174.859 67.1336C174.62 67.9001 174.219 68.6005 173.686 69.1831C173.153 69.7658 172.502 70.2158 171.781 70.5001C170.584 70.6746 169.369 70.3457 168.403 69.5854C167.436 68.8251 166.797 67.6952 166.625 66.4428C166.49 65.7988 166.49 65.1321 166.625 64.4882C166.869 63.6934 167.294 62.9723 167.862 62.3861C168.43 61.8 169.125 61.3662 169.888 61.1216C170.445 60.963 171.031 60.9528 171.593 61.092C172.155 61.2313 172.674 61.5154 173.104 61.9186L173.866 62.5335L170.602 64.8525L167.143 67.2057C167.15 67.3199 167.181 67.4312 167.234 67.5311C167.287 67.631 167.362 67.717 167.451 67.7826C167.763 68.0027 168.213 68.0369 171.603 65.6116L175.443 62.8941C175.755 62.6056 174.268 61.0837 173.159 60.4346C172.486 60.0932 171.752 59.9008 171.005 59.8695C170.257 59.8381 169.512 59.9685 168.815 60.2525Z" fill="#010101"/>
<path d="M178.449 71.4566C178.367 71.4621 178.285 71.4487 178.208 71.4172C178.132 71.3857 178.063 71.337 178.007 71.2744C177.983 71.2481 177.966 71.2152 177.96 71.1795C177.925 71.0478 177.925 70.9089 177.96 70.7772V70.075C177.959 70.0333 177.97 69.9924 177.992 69.9574L182.76 62.6853C182.781 62.6547 182.793 62.6187 182.795 62.5814C182.798 62.544 182.79 62.5067 182.774 62.4735C182.758 62.4402 182.733 62.4123 182.702 62.3928C182.672 62.3733 182.637 62.3629 182.601 62.3627H178.648C178.572 62.357 178.497 62.3336 178.43 62.2943C178.363 62.2549 178.305 62.2005 178.26 62.135C178.217 61.9415 178.217 61.7402 178.26 61.5467C178.217 61.3686 178.217 61.182 178.26 61.004C178.301 60.921 178.363 60.8517 178.439 60.804C178.515 60.7563 178.603 60.7322 178.692 60.7345H184.94H184.983C185.102 60.702 185.225 60.6955 185.346 60.7155C185.378 60.7207 185.408 60.7352 185.433 60.7573C185.458 60.7794 185.477 60.8083 185.487 60.8408C185.531 60.9885 185.516 61.1481 185.447 61.2848C185.454 61.551 185.361 61.8093 185.19 62.006L180.382 69.3767C180.362 69.4079 180.351 69.444 180.35 69.4812C180.348 69.5184 180.356 69.5553 180.373 69.5883C180.389 69.6212 180.414 69.6488 180.444 69.6683C180.475 69.6879 180.509 69.6986 180.545 69.6993H184.972C185.056 69.6977 185.14 69.7176 185.215 69.7573C185.29 69.797 185.355 69.8552 185.404 69.927C185.468 70.1195 185.483 70.3263 185.447 70.5267C185.452 70.705 185.438 70.8833 185.404 71.0581C185.291 71.1247 185.168 71.1721 185.041 71.1985C184.999 71.2018 184.957 71.2018 184.914 71.1985L178.449 71.4566Z" fill="black"/>
<path d="M190.368 60.5561C189.353 60.8664 188.46 61.5103 187.821 62.3927C187.182 63.275 186.832 64.3491 186.821 65.456C186.705 66.6596 186.989 67.8684 187.624 68.879C188.259 69.8896 189.208 70.6403 190.31 71.0049C191.01 71.2211 191.745 71.2868 192.47 71.1981C193.196 71.1094 193.896 70.8681 194.53 70.4887C195.408 69.9118 195.419 69.8966 195.419 68.8491V67.9382L194.723 68.6214C194.367 68.9943 193.961 69.3113 193.519 69.5626C192.824 69.929 192.037 70.0548 191.269 69.9218C190.502 69.7887 189.795 69.4038 189.251 68.8225C188.76 68.2945 188.41 67.6398 188.239 66.9248C187.955 65.8705 188.08 64.7411 188.588 63.7833C189.097 62.8255 189.946 62.1169 190.951 61.8124L191.289 61.7289C191.753 61.634 192.231 61.6358 192.694 61.7342C193.158 61.8326 193.598 62.0257 193.991 62.3024C194.383 62.5791 194.719 62.934 194.981 63.3468C195.242 63.7596 195.423 64.2222 195.513 64.7083C195.515 64.7247 195.515 64.7412 195.513 64.7576V65.0157C195.65 66.1369 195.696 67.2681 195.651 68.3974V71.1302H196.989V67.9761C196.999 66.7735 196.947 65.5711 196.833 64.3743C196.605 63.4484 196.143 62.604 195.496 61.93C194.848 61.256 194.038 60.7774 193.153 60.5447C192.232 60.3673 191.287 60.3711 190.368 60.5561Z" fill="#010101"/>
</g>
<defs>
<clipPath id="clip0_157_505">
<rect width="197" height="99" fill="white"/>
</clipPath>
</defs>
</svg>
