<svg xmlns="http://www.w3.org/2000/svg" viewBox="0 0 49.75 12.49">
  <defs>
    <style>
      .cls-1 {
        fill: #fff;
      }
    </style>
  </defs>
  <g id="Capa_2" data-name="Capa 2">
    <g id="DISEÑO">
      <g>
        <path class="cls-1" d="M.17,4a.17.17,0,0,1-.1,0,.1.1,0,0,1,0-.1V.3A.1.1,0,0,1,.07.2a.17.17,0,0,1,.1,0H2a.11.11,0,0,1,.1,0,.17.17,0,0,1,0,.1.15.15,0,0,1,0,.11A.09.09,0,0,1,2,.48H.36V1.91h.81a.12.12,0,0,1,.1,0,.2.2,0,0,1,0,.11.17.17,0,0,1,0,.1.11.11,0,0,1-.1,0H.36V3.64H2a.1.1,0,0,1,.09,0,.16.16,0,0,1,0,.12.17.17,0,0,1,0,.1A.11.11,0,0,1,2,4Z"/>
        <path class="cls-1" d="M2.74,4a.15.15,0,0,1-.11,0,.11.11,0,0,1,0-.09V1.63a.09.09,0,0,1,0-.09.15.15,0,0,1,.11,0,.16.16,0,0,1,.12,0,.1.1,0,0,1,0,.09v.24a.85.85,0,0,1,.26-.28.76.76,0,0,1,.44-.12.94.94,0,0,1,.46.13A1,1,0,0,1,4.39,2a1,1,0,0,1,.12.49V3.82a.1.1,0,0,1,0,.1.21.21,0,0,1-.12,0l-.11,0a.12.12,0,0,1-.05-.1V2.45a.63.63,0,0,0-.09-.33.76.76,0,0,0-.23-.24.55.55,0,0,0-.32-.1.61.61,0,0,0-.3.08A.66.66,0,0,0,3,2.09a.64.64,0,0,0-.09.36V3.82a.11.11,0,0,1-.05.09A.16.16,0,0,1,2.74,4Z"/>
        <path class="cls-1" d="M6.06,4a1.09,1.09,0,0,1-.57-.13.93.93,0,0,1-.33-.35A1.19,1.19,0,0,1,5.05,3V2.46A1.19,1.19,0,0,1,5.16,2a.79.79,0,0,1,.33-.35,1.09,1.09,0,0,1,.57-.13,1.12,1.12,0,0,1,.38.06.65.65,0,0,1,.25.13.2.2,0,0,1,.09.15.17.17,0,0,1,0,.07A.2.2,0,0,1,6.71,2a.08.08,0,0,1-.07,0,.15.15,0,0,1-.11-.05l-.16-.09a.78.78,0,0,0-.3-.05A.69.69,0,0,0,5.56,2a.72.72,0,0,0-.17.5V3a.7.7,0,0,0,.17.5.7.7,0,0,0,.52.18.78.78,0,0,0,.3-.05.63.63,0,0,0,.17-.1.21.21,0,0,1,.12,0,.13.13,0,0,1,.08,0l0,.06a.19.19,0,0,1,0,.08s0,.09-.1.14a.71.71,0,0,1-.26.14A1.2,1.2,0,0,1,6.06,4Z"/>
        <path class="cls-1" d="M8.24,4a1,1,0,0,1-.5-.14,1.1,1.1,0,0,1-.36-.35A1,1,0,0,1,7.25,3V1.64a.14.14,0,0,1,0-.1.28.28,0,0,1,.12,0,.25.25,0,0,1,.12,0,.14.14,0,0,1,0,.1V3a.62.62,0,0,0,.09.32.59.59,0,0,0,.23.24.59.59,0,0,0,.66,0,.76.76,0,0,0,.23-.24A.72.72,0,0,0,8.88,3V1.63a.14.14,0,0,1,0-.09.28.28,0,0,1,.12,0,.17.17,0,0,1,.12,0,.14.14,0,0,1,.05.09V3a.95.95,0,0,1-.49.83A.93.93,0,0,1,8.24,4Z"/>
        <path class="cls-1" d="M10.87,4a1.34,1.34,0,0,1-.58-.12,1,1,0,0,1-.39-.35A.91.91,0,0,1,9.75,3V2.43A.92.92,0,0,1,9.89,2a1,1,0,0,1,.36-.35.92.92,0,0,1,.49-.13,1,1,0,0,1,.84.46.88.88,0,0,1,.13.49.46.46,0,0,1-.07.29.27.27,0,0,1-.16.1l-.22,0H10.09V3a.59.59,0,0,0,.22.49.88.88,0,0,0,.57.18.74.74,0,0,0,.32,0l.18-.1a.16.16,0,0,1,.12,0,.09.09,0,0,1,.07,0s0,0,.06.06a.17.17,0,0,1,0,.07s0,.08-.09.14a.84.84,0,0,1-.27.14A1.27,1.27,0,0,1,10.87,4Zm-.78-1.41h1a.43.43,0,0,0,.2,0s.05-.07.05-.15a.58.58,0,0,0-.08-.31.59.59,0,0,0-.23-.24.54.54,0,0,0-.33-.1.65.65,0,0,0-.56.32.56.56,0,0,0-.09.31Z"/>
        <path class="cls-1" d="M12.38,4a.19.19,0,0,1-.12,0,.14.14,0,0,1,0-.09V1.63a.11.11,0,0,1,0-.09.19.19,0,0,1,.12,0,.15.15,0,0,1,.11,0,.11.11,0,0,1,0,.09v.24a.85.85,0,0,1,.26-.28.75.75,0,0,1,.43-.12.91.91,0,0,1,.46.13A1.07,1.07,0,0,1,14,2a1,1,0,0,1,.12.49V3.82a.12.12,0,0,1-.05.1A.24.24,0,0,1,14,4a.23.23,0,0,1-.11,0,.11.11,0,0,1-.06-.1V2.45a.62.62,0,0,0-.08-.33.69.69,0,0,0-.24-.24.51.51,0,0,0-.32-.1.67.67,0,0,0-.3.08.72.72,0,0,0-.23.23.64.64,0,0,0-.09.36V3.82a.14.14,0,0,1-.05.09A.16.16,0,0,1,12.38,4Z"/>
        <path class="cls-1" d="M15.59,4A.91.91,0,0,1,15,3.77a.69.69,0,0,1-.22-.58V.47a.1.1,0,0,1,.06-.1.2.2,0,0,1,.11,0,.27.27,0,0,1,.12,0,.11.11,0,0,1,0,.1v1h.67a.13.13,0,0,1,.09,0,.18.18,0,0,1,0,.2.1.1,0,0,1-.09,0H15.1V3.19a.5.5,0,0,0,.11.36.6.6,0,0,0,.38.1h.14a.12.12,0,0,1,.11,0,.17.17,0,0,1,0,.22.12.12,0,0,1-.11,0Z"/>
        <path class="cls-1" d="M16.47,4a.16.16,0,0,1-.12,0,.14.14,0,0,1-.05-.09V1.63a.11.11,0,0,1,.05-.09.16.16,0,0,1,.12,0,.15.15,0,0,1,.11,0,.11.11,0,0,1,.05.09v.26a1,1,0,0,1,.15-.21A1,1,0,0,1,17,1.53a.73.73,0,0,1,.3-.06h.18a.14.14,0,0,1,.1.05.17.17,0,0,1,0,.22.13.13,0,0,1-.1,0h-.18a.6.6,0,0,0-.33.1.67.67,0,0,0-.25.25.78.78,0,0,0-.1.41V3.82a.14.14,0,0,1-.05.09A.16.16,0,0,1,16.47,4Z"/>
        <path class="cls-1" d="M18.44,4a.78.78,0,0,1-.5-.17.6.6,0,0,1-.2-.51.6.6,0,0,1,.15-.44.83.83,0,0,1,.42-.21,3.06,3.06,0,0,1,.63-.06h.27V2.48a1,1,0,0,0-.06-.34A.66.66,0,0,0,19,1.87a.57.57,0,0,0-.36-.1,1,1,0,0,0-.28,0,.68.68,0,0,0-.17.08.37.37,0,0,1-.11,0,.12.12,0,0,1-.1-.06.34.34,0,0,1,0-.12c0-.05,0-.09.11-.13a1.18,1.18,0,0,1,.27-.1,1.24,1.24,0,0,1,.33,0,1,1,0,0,1,.55.14.87.87,0,0,1,.29.37,1.37,1.37,0,0,1,.09.49V3.82a.1.1,0,0,1,0,.09.16.16,0,0,1-.12,0,.15.15,0,0,1-.11,0,.09.09,0,0,1-.05-.09V3.59a1.46,1.46,0,0,1-.32.28A.85.85,0,0,1,18.44,4Zm.08-.29a.73.73,0,0,0,.33-.08.92.92,0,0,0,.26-.22.42.42,0,0,0,.1-.24V2.83H19a3.15,3.15,0,0,0-.44,0,.76.76,0,0,0-.34.12.33.33,0,0,0-.14.29.39.39,0,0,0,.14.33A.46.46,0,0,0,18.52,3.7Z"/>
        <path class="cls-1" d="M21.75,4a.76.76,0,0,1-.5-.17A.61.61,0,0,1,21,3.31a.6.6,0,0,1,.15-.44.91.91,0,0,1,.43-.21,2.93,2.93,0,0,1,.63-.06h.26V2.48a1,1,0,0,0-.06-.34.58.58,0,0,0-.19-.27.57.57,0,0,0-.36-.1,1.09,1.09,0,0,0-.28,0,.91.91,0,0,0-.17.08.26.26,0,0,1-.1,0,.11.11,0,0,1-.1-.06.21.21,0,0,1,0-.12c0-.05,0-.09.11-.13a1.18,1.18,0,0,1,.27-.1,1.17,1.17,0,0,1,.32,0,1,1,0,0,1,.55.14.83.83,0,0,1,.3.37,1.37,1.37,0,0,1,.09.49V3.82a.1.1,0,0,1,0,.09.17.17,0,0,1-.13,0,.17.17,0,0,1-.11,0,.11.11,0,0,1-.05-.09V3.59a1.26,1.26,0,0,1-.32.28A.84.84,0,0,1,21.75,4Zm.08-.29a.8.8,0,0,0,.33-.08.88.88,0,0,0,.25-.22.36.36,0,0,0,.1-.24V2.83h-.22a3.15,3.15,0,0,0-.44,0,.8.8,0,0,0-.34.12.32.32,0,0,0-.13.29.39.39,0,0,0,.13.33A.49.49,0,0,0,21.83,3.7Z"/>
        <path class="cls-1" d="M25.17,5.16a.17.17,0,0,1-.12,0A.11.11,0,0,1,25,5V3.59a.66.66,0,0,1-.27.28.77.77,0,0,1-.43.12.88.88,0,0,1-.45-.14,1.07,1.07,0,0,1-.34-.36A1.07,1.07,0,0,1,23.38,3V2.45A1,1,0,0,1,23.5,2a1.07,1.07,0,0,1,.34-.36,1,1,0,0,1,.47-.13.75.75,0,0,1,.43.12.76.76,0,0,1,.26.28V1.63a.11.11,0,0,1,.05-.09.19.19,0,0,1,.12,0,.16.16,0,0,1,.12,0,.1.1,0,0,1,0,.09V5a.11.11,0,0,1,0,.09A.17.17,0,0,1,25.17,5.16Zm-.81-1.48a.56.56,0,0,0,.33-.1.74.74,0,0,0,.22-.21.37.37,0,0,0,.08-.2V2.45a.64.64,0,0,0-.09-.36.72.72,0,0,0-.23-.23.67.67,0,0,0-.3-.08.56.56,0,0,0-.33.1.66.66,0,0,0-.23.24.63.63,0,0,0-.09.33V3a.63.63,0,0,0,.09.33.62.62,0,0,0,.23.25A.55.55,0,0,0,24.36,3.68Z"/>
        <path class="cls-1" d="M27,4a.94.94,0,0,1-.5-.14,1.1,1.1,0,0,1-.36-.35A1,1,0,0,1,26,3V1.64a.11.11,0,0,1,.05-.1.21.21,0,0,1,.12,0,.21.21,0,0,1,.11,0,.11.11,0,0,1,.05.1V3a.62.62,0,0,0,.09.32.69.69,0,0,0,.24.24.56.56,0,0,0,.33.1.51.51,0,0,0,.32-.1.59.59,0,0,0,.23-.24A.62.62,0,0,0,27.59,3V1.63a.14.14,0,0,1,.05-.09.2.2,0,0,1,.24,0,.12.12,0,0,1,0,.09V3a1,1,0,0,1-.48.83A1,1,0,0,1,27,4Z"/>
        <path class="cls-1" d="M28.48.9a.11.11,0,0,1-.09,0,.19.19,0,0,1-.05-.1.1.1,0,0,1,.06-.1L29,.34h0a.1.1,0,0,1,.09,0,.15.15,0,0,1,0,.11.11.11,0,0,1-.06.11l-.56.29h0S28.49.9,28.48.9ZM28.71,4a.15.15,0,0,1-.11,0,.11.11,0,0,1-.05-.09V1.63a.09.09,0,0,1,.05-.09.15.15,0,0,1,.11,0,.16.16,0,0,1,.12,0,.09.09,0,0,1,.05.09V3.82a.11.11,0,0,1-.05.09A.16.16,0,0,1,28.71,4Z"/>
        <path class="cls-1" d="M30.73,5.16a.16.16,0,0,1-.11,0A.1.1,0,0,1,30.57,5V1.63a.09.09,0,0,1,.05-.09.15.15,0,0,1,.11,0,.16.16,0,0,1,.12,0,.1.1,0,0,1,0,.09v.24a.89.89,0,0,1,.27-.28.75.75,0,0,1,.43-.12.88.88,0,0,1,.8.49.9.9,0,0,1,.13.49V3a1,1,0,0,1-.13.49,1,1,0,0,1-.33.36A.83.83,0,0,1,31.6,4a.74.74,0,0,1-.42-.12.75.75,0,0,1-.28-.28V5a.11.11,0,0,1,0,.09A.21.21,0,0,1,30.73,5.16Zm.81-1.48a.53.53,0,0,0,.32-.1.7.7,0,0,0,.23-.25A.63.63,0,0,0,32.18,3V2.45a.63.63,0,0,0-.09-.33.76.76,0,0,0-.23-.24.56.56,0,0,0-.33-.1.67.67,0,0,0-.3.08.72.72,0,0,0-.23.23.64.64,0,0,0-.1.36v.72a.41.41,0,0,0,.09.2.74.74,0,0,0,.22.21A.56.56,0,0,0,31.54,3.68Z"/>
        <path class="cls-1" d="M33.24,4a.16.16,0,0,1-.12,0,.14.14,0,0,1,0-.09V1.63a.11.11,0,0,1,0-.09.16.16,0,0,1,.12,0,.15.15,0,0,1,.11,0,.11.11,0,0,1,0,.09v.26a.74.74,0,0,1,.15-.21.91.91,0,0,1,.23-.15.78.78,0,0,1,.31-.06h.18a.14.14,0,0,1,.1.05.21.21,0,0,1,0,.11.21.21,0,0,1,0,.11.13.13,0,0,1-.1,0h-.18a.6.6,0,0,0-.33.1.77.77,0,0,0-.26.25.88.88,0,0,0-.09.41V3.82a.14.14,0,0,1,0,.09A.19.19,0,0,1,33.24,4Z"/>
        <path class="cls-1" d="M35.56,4a.93.93,0,0,1-.49-.14,1,1,0,0,1-.36-.36A.92.92,0,0,1,34.58,3V2.45A.92.92,0,0,1,34.71,2a1.1,1.1,0,0,1,.36-.35.93.93,0,0,1,.49-.14,1,1,0,0,1,.49.13,1,1,0,0,1,.36.36.9.9,0,0,1,.13.49V3a1,1,0,0,1-.13.49,1,1,0,0,1-.36.36A.93.93,0,0,1,35.56,4Zm0-.31a.56.56,0,0,0,.33-.1.7.7,0,0,0,.23-.25A.63.63,0,0,0,36.21,3V2.45a.63.63,0,0,0-.09-.33.59.59,0,0,0-.23-.24.59.59,0,0,0-.66,0,.76.76,0,0,0-.23.24.63.63,0,0,0-.09.33V3a.63.63,0,0,0,.09.33.62.62,0,0,0,.23.25A.58.58,0,0,0,35.56,3.68Z"/>
        <path class="cls-1" d="M37.92,4a.82.82,0,0,1-.45-.14,1.07,1.07,0,0,1-.34-.36A1.07,1.07,0,0,1,37,3V2.45A1,1,0,0,1,37.13,2a1.07,1.07,0,0,1,.34-.36,1,1,0,0,1,.47-.13.75.75,0,0,1,.43.12.82.82,0,0,1,.25.28V.13a.14.14,0,0,1,.05-.1l.12,0a.23.23,0,0,1,.13,0,.18.18,0,0,1,0,.1V3.82a.18.18,0,0,1,0,.09.17.17,0,0,1-.13,0,.15.15,0,0,1-.11,0,.14.14,0,0,1,0-.09V3.59a.66.66,0,0,1-.27.28A.81.81,0,0,1,37.92,4ZM38,3.68a.51.51,0,0,0,.32-.1.78.78,0,0,0,.23-.21.48.48,0,0,0,.08-.2V2.45a.64.64,0,0,0-.09-.36.66.66,0,0,0-.24-.23.67.67,0,0,0-.3-.08.53.53,0,0,0-.32.1.66.66,0,0,0-.23.24.63.63,0,0,0-.09.33V3a.63.63,0,0,0,.09.33.62.62,0,0,0,.23.25A.53.53,0,0,0,38,3.68Z"/>
        <path class="cls-1" d="M40.58,4a.94.94,0,0,1-.5-.14,1,1,0,0,1-.36-.35A1,1,0,0,1,39.59,3V1.64a.11.11,0,0,1,0-.1.21.21,0,0,1,.12,0,.21.21,0,0,1,.11,0,.11.11,0,0,1,.05.1V3a.62.62,0,0,0,.09.32.69.69,0,0,0,.24.24.52.52,0,0,0,.33.1.53.53,0,0,0,.32-.1.59.59,0,0,0,.23-.24A.62.62,0,0,0,41.22,3V1.63a.11.11,0,0,1,.05-.09.2.2,0,0,1,.24,0,.12.12,0,0,1,0,.09V3a.91.91,0,0,1-.13.48,1,1,0,0,1-.36.35A.92.92,0,0,1,40.58,4Z"/>
        <path class="cls-1" d="M43.1,4a1.09,1.09,0,0,1-.57-.13.79.79,0,0,1-.33-.35A1.19,1.19,0,0,1,42.09,3V2.46A1.19,1.19,0,0,1,42.2,2a.79.79,0,0,1,.33-.35,1.09,1.09,0,0,1,.57-.13,1.12,1.12,0,0,1,.38.06.65.65,0,0,1,.25.13.2.2,0,0,1,.09.15.1.1,0,0,1,0,.07.12.12,0,0,1,0,.07.08.08,0,0,1-.07,0,.15.15,0,0,1-.11-.05l-.16-.09a.78.78,0,0,0-.3-.05A.69.69,0,0,0,42.6,2a.72.72,0,0,0-.17.5V3a.7.7,0,0,0,.17.5.7.7,0,0,0,.52.18.78.78,0,0,0,.3-.05.63.63,0,0,0,.17-.1.21.21,0,0,1,.11,0,.1.1,0,0,1,.08,0,.34.34,0,0,1,.06.06.19.19,0,0,1,0,.08.21.21,0,0,1-.09.14.71.71,0,0,1-.26.14A1.2,1.2,0,0,1,43.1,4Z"/>
        <path class="cls-1" d="M45.12,4a.92.92,0,0,1-.61-.18.72.72,0,0,1-.21-.58V.47a.11.11,0,0,1,.05-.1.27.27,0,0,1,.12,0l.12,0a.11.11,0,0,1,0,.1v1h.67a.12.12,0,0,1,.08,0,.18.18,0,0,1,0,.2.09.09,0,0,1-.08,0h-.67V3.19a.46.46,0,0,0,.11.36.56.56,0,0,0,.37.1h.15a.14.14,0,0,1,.11,0,.17.17,0,0,1,0,.22.14.14,0,0,1-.11,0Z"/>
        <path class="cls-1" d="M46.68,4a1,1,0,0,1-.49-.14,1,1,0,0,1-.36-.36A.92.92,0,0,1,45.7,3V2.45A.92.92,0,0,1,45.83,2a1.1,1.1,0,0,1,.36-.35.93.93,0,0,1,.49-.14,1,1,0,0,1,.49.13,1,1,0,0,1,.36.36.91.91,0,0,1,.14.49V3a1,1,0,0,1-.14.49,1,1,0,0,1-.36.36A.93.93,0,0,1,46.68,4Zm0-.31a.56.56,0,0,0,.33-.1.62.62,0,0,0,.23-.25A.63.63,0,0,0,47.33,3V2.45a.73.73,0,0,0-.08-.33A.69.69,0,0,0,47,1.88a.56.56,0,0,0-.33-.1.51.51,0,0,0-.32.1.69.69,0,0,0-.24.24.62.62,0,0,0-.08.33V3a.62.62,0,0,0,.08.33.64.64,0,0,0,.24.25A.55.55,0,0,0,46.68,3.68Z"/>
        <path class="cls-1" d="M48.89,4a1.44,1.44,0,0,1-.43-.06.82.82,0,0,1-.28-.15.22.22,0,0,1-.1-.16.15.15,0,0,1,0-.07.1.1,0,0,1,0-.06.07.07,0,0,1,.06,0,.19.19,0,0,1,.12.06.87.87,0,0,0,.2.12.84.84,0,0,0,.36.06.56.56,0,0,0,.41-.11.33.33,0,0,0,.12-.25.37.37,0,0,0-.09-.27.7.7,0,0,0-.24-.15l-.31-.1-.31-.11a.57.57,0,0,1-.24-.19.59.59,0,0,1-.09-.34.68.68,0,0,1,.09-.33.61.61,0,0,1,.26-.27A.91.91,0,0,1,49,1.47a1.15,1.15,0,0,1,.33,0,.71.71,0,0,1,.26.09c.07,0,.11.09.11.13a.41.41,0,0,1,0,.07.18.18,0,0,1-.05.07.11.11,0,0,1-.07,0l-.12,0a.91.91,0,0,0-.17-.08,1,1,0,0,0-.26,0,.61.61,0,0,0-.3.06.53.53,0,0,0-.17.16.49.49,0,0,0-.05.19.28.28,0,0,0,.09.22.89.89,0,0,0,.24.13l.31.09a1.43,1.43,0,0,1,.31.12.56.56,0,0,1,.24.22.68.68,0,0,1,.09.37.61.61,0,0,1-.21.49A1,1,0,0,1,48.89,4Z"/>
      </g>
      <g>
        <path class="cls-1" d="M31.27,8.28a1.86,1.86,0,0,0-.44-.6,2.23,2.23,0,0,0-.64-.4,2.29,2.29,0,0,0-.78-.14H27.69a.31.31,0,0,0-.31.3v4.73a.31.31,0,1,0,.61,0V7.75h1.42A1.34,1.34,0,0,1,30.82,9a1.35,1.35,0,0,1-1.41,1.27H28.8a.31.31,0,1,0,0,.61h.61a2.08,2.08,0,0,0,.78-.15,2,2,0,0,0,.64-.39A1.8,1.8,0,0,0,31.43,9,1.84,1.84,0,0,0,31.27,8.28Z"/>
        <path class="cls-1" d="M4.3,8.76a2.66,2.66,0,0,0-.63-.86,3.23,3.23,0,0,0-.92-.57,3.1,3.1,0,0,0-1.13-.21H.3a.31.31,0,0,0-.3.31v4.73H0v0a.3.3,0,0,0,.3.3H1.62a3.32,3.32,0,0,0,1.13-.2,3.23,3.23,0,0,0,.92-.57,2.77,2.77,0,0,0,.63-.86,2.55,2.55,0,0,0,.23-1A2.51,2.51,0,0,0,4.3,8.76Zm-1,2.51a2.48,2.48,0,0,1-.73.45,2.53,2.53,0,0,1-.91.17h-1V7.73h1a2.53,2.53,0,0,1,.91.17,2.29,2.29,0,0,1,.73.45,1.94,1.94,0,0,1,0,2.92Z"/>
        <path class="cls-1" d="M10,12.48a.31.31,0,0,1-.31-.31V7.44a.31.31,0,0,1,.61,0v4.73A.31.31,0,0,1,10,12.48Z"/>
        <path class="cls-1" d="M20.87,12.06l-2-4.73h-.56l-2,4.73a.29.29,0,0,0,.16.39.27.27,0,0,0,.12,0,.3.3,0,0,0,.28-.19l1.69-4,1.68,4a.31.31,0,0,0,.29.19l.11,0A.3.3,0,0,0,20.87,12.06Z"/>
        <path class="cls-1" d="M49.73,12.06l-2-4.73H47.2l-2,4.73a.3.3,0,0,0,.17.39l.11,0a.29.29,0,0,0,.28-.19l1.69-4,1.69,4a.3.3,0,0,0,.28.19.27.27,0,0,0,.12,0A.29.29,0,0,0,49.73,12.06Z"/>
        <path class="cls-1" d="M38.43,12.48a.3.3,0,0,1-.3-.31V7.44a.3.3,0,0,1,.3-.3.31.31,0,0,1,.31.3v4.73A.31.31,0,0,1,38.43,12.48Z"/>
      </g>
    </g>
  </g>
</svg>
