<svg xmlns="http://www.w3.org/2000/svg" viewBox="0 0 49.74 19.4">
  <defs>
    <style>
      .cls-1 {
        fill: #ef7d04;
      }
    </style>
  </defs>
  <g id="Capa_2" data-name="Capa 2">
    <g id="DISEÑO">
      <g>
        <path class="cls-1" d="M0,4.72c0,4.2.05,4.79.18,5.23a4.4,4.4,0,0,0,2.32,2.8A4.41,4.41,0,0,0,8.88,9.7,4.71,4.71,0,0,0,6.61,4.47,4.25,4.25,0,0,0,4.22,4a4,4,0,0,0-2.32.76l-.52.35,0,.81a7.18,7.18,0,0,0,0,.81,3,3,0,0,0,.44-.42,3.37,3.37,0,0,1,6,2,4.49,4.49,0,0,1,0,1.07,3.41,3.41,0,0,1-3,2.74A3.24,3.24,0,0,1,1.41,9.89c-.19-.52-.19-.55-.22-5.21L1.17,0H0Z"/>
        <path class="cls-1" d="M29.51,6.31l0,4.56.24.53A2.7,2.7,0,0,0,31,12.67a6.21,6.21,0,0,0,2.14.41h.51V12l-.8,0c-1.08-.07-1.59-.3-1.91-.86l-.24-.41,0-2.73,0-2.72h3V4.17h-3V1.75H29.49Z"/>
        <path class="cls-1" d="M13,4.12a4.39,4.39,0,0,0-3.19,4.1A4.56,4.56,0,0,0,12.87,13a4.84,4.84,0,0,0,3.76-.44c.78-.49.79-.5.79-1.39v-.79l-.55.56a3.45,3.45,0,0,1-4.14.78,3.65,3.65,0,0,1,.42-6.48,3.58,3.58,0,0,1,2.31,0,3.43,3.43,0,0,1,1.65,1.52c.42.85.48,1.3.48,3.9v2.4h1.16v-2.4c0-2.77-.08-3.4-.53-4.32a4.11,4.11,0,0,0-.88-1.15A4,4,0,0,0,14.17,4,6.79,6.79,0,0,0,13,4.12Z"/>
        <path class="cls-1" d="M23,4.11A3.51,3.51,0,0,0,20.65,6.5c-.17.5-.18.76-.22,3.55l0,3h1.18l0-3.07c0-3,0-3.06.22-3.48a2.45,2.45,0,0,1,2.32-1.47A2.35,2.35,0,0,1,26,5.88c.61.69.63.78.66,4.17l0,3h1.08V10.16c0-1.79,0-3.07-.09-3.35a3.69,3.69,0,0,0-2-2.54A3.08,3.08,0,0,0,24.25,4,4.89,4.89,0,0,0,23,4.11Z"/>
        <path class="cls-1" d="M37.5,4.13a4.38,4.38,0,0,0-3.15,4.16A4.48,4.48,0,0,0,37.45,13a4.82,4.82,0,0,0,3.75-.44c.78-.49.79-.5.79-1.39v-.79l-.61.58a4.91,4.91,0,0,1-1.07.8,3.25,3.25,0,0,1-3.79-.63,3.43,3.43,0,0,1-.9-1.62A3.51,3.51,0,0,1,38.33,5.1,3.19,3.19,0,0,1,42,7.89a15.62,15.62,0,0,1,.13,2.87v2.32h1.18l0-2.65a27.45,27.45,0,0,0-.14-3.06A4.53,4.53,0,0,0,40,4.12,6.73,6.73,0,0,0,37.5,4.13Z"/>
        <path class="cls-1" d="M48.18,4.17A3.59,3.59,0,0,0,46.6,5l-.36.32V4.17H45.16v8.91h1.07l0-2.82c0-2.68,0-2.82.21-3.27a3.28,3.28,0,0,1,1.25-1.47,2,2,0,0,1,1.2-.26l.82,0V4.71c0-.48,0-.53-.18-.58A4.37,4.37,0,0,0,48.18,4.17Z"/>
        <path class="cls-1" d="M28.25,17c0,2.28,0,2.34.16,2.34s.17-.06.17-2.34,0-2.33-.17-2.33S28.25,14.72,28.25,17Z"/>
        <path class="cls-1" d="M35.18,15.3c0,.17.07.24.19.24s.23-.41,0-.45S35.15,15.09,35.18,15.3Z"/>
        <path class="cls-1" d="M25.33,16.26a2.16,2.16,0,0,0-.62.55,1.23,1.23,0,0,0-.25.93,1.26,1.26,0,0,0,.25.94,1.6,1.6,0,0,0,2.8-.23,2.09,2.09,0,0,0,.15-.71A1.61,1.61,0,0,0,25.33,16.26Zm1.23.29a1.36,1.36,0,0,1,0,2.38,1,1,0,0,1-1,0,1.17,1.17,0,0,1-.66-1.07,1.2,1.2,0,0,1,.62-1.23A1,1,0,0,1,26.56,16.55Z"/>
        <path class="cls-1" d="M37,16.24a1.69,1.69,0,0,0-.61,2.5,1.63,1.63,0,1,0,.61-2.5Zm1.37.41a1.36,1.36,0,0,1-.18,2.28,1,1,0,0,1-1.06,0,1.28,1.28,0,0,1-.65-1.27,1.22,1.22,0,0,1,.65-1.05A1.16,1.16,0,0,1,38.4,16.65Z"/>
        <path class="cls-1" d="M40.62,16.19c-.62.28-.79.75-.79,2.15,0,.93,0,1,.16,1s.17-.06.18-1c0-1.14.09-1.48.48-1.74a.8.8,0,0,1,1,0c.42.25.48.44.51,1.64,0,1,0,1.11.19,1.11s.16-.08.16-1c0-1.07-.09-1.54-.36-1.84A1.37,1.37,0,0,0,40.62,16.19Z"/>
        <path class="cls-1" d="M44,16.21a1.59,1.59,0,0,0-1,1.67,1.11,1.11,0,0,0,.28.83,1.45,1.45,0,0,0,1.13.67,1.56,1.56,0,0,0,1.73-1.18c.12-.45.12-.46-.1-.46s-.21.07-.29.37a1.47,1.47,0,0,1-.89.93,1.32,1.32,0,0,1-1.46-1.66,1.41,1.41,0,0,1,.94-.93,1,1,0,0,1,.93.22l.22.17-.94.64-1,.65s0,.1.1.16.22.07,1.2-.6l1.1-.75c.09-.08-.33-.5-.66-.68A1.55,1.55,0,0,0,44,16.21Z"/>
        <path class="cls-1" d="M22,16.24a.65.65,0,0,0-.4.69c0,.46.24.66,1.13.93a3.12,3.12,0,0,1,.79.32c.19.25.19.4,0,.61s-.26.2-1.08.2-.88,0-.88.17.06.17.88.17c1,0,1.41-.13,1.54-.46.24-.64-.07-1-1.05-1.33-.73-.23-.95-.37-.95-.63s.22-.42,1.05-.42.78,0,.78-.16,0-.17-.81-.16A4.63,4.63,0,0,0,22,16.24Z"/>
        <path class="cls-1" d="M29.33,17.3c0,1.27.08,1.57.53,1.89a1.65,1.65,0,0,0,1.53,0c.44-.32.52-.62.52-1.89,0-1.08,0-1.14-.16-1.14s-.17.06-.17,1.05c0,1.17-.1,1.53-.51,1.74a.9.9,0,0,1-1.27-.41,3.35,3.35,0,0,1-.14-1.33c0-1,0-1.05-.16-1.05S29.33,16.22,29.33,17.3Z"/>
        <path class="cls-1" d="M33.45,16.32a1.45,1.45,0,0,0-.78.78,2.39,2.39,0,0,0,0,1.38,1.7,1.7,0,0,0,1.55.85c.35,0,.41,0,.41-.17S34.6,19,34.31,19a1.68,1.68,0,0,1-1.18-.56,1.15,1.15,0,0,1,0-1.26,1.3,1.3,0,0,1,1.1-.66c.38,0,.46-.07.46-.19s-.06-.16-.43-.16A2.35,2.35,0,0,0,33.45,16.32Z"/>
        <path class="cls-1" d="M35.16,17.74v1.59h.42V16.16h-.42Z"/>
        <path class="cls-1" d="M47,16.26a.64.64,0,0,0-.38.65c0,.53.28.74,1.3,1,.43.1.79.37.79.59a.65.65,0,0,1-.17.33c-.14.14-.27.16-1,.16s-.88,0-.88.18,0,.17,1,.14,1,0,1.2-.23a.62.62,0,0,0,.22-.56c0-.51-.23-.72-1.1-1s-1.2-.58-.83-.9c.12-.11.32-.15.91-.15s.77,0,.77-.16-.06-.17-.81-.17A3.5,3.5,0,0,0,47,16.26Z"/>
      </g>
    </g>
  </g>
</svg>
