<svg xmlns="http://www.w3.org/2000/svg" xmlns:xlink="http://www.w3.org/1999/xlink" viewBox="0 0 106 159">
  <defs>
    <style>
      .cls-1 {
        fill: url(#linear-gradient);
      }

      .cls-2 {
        fill: url(#linear-gradient-2);
      }
    </style>
    <linearGradient id="linear-gradient" y1="79.5" x2="90.1" y2="79.5" gradientUnits="userSpaceOnUse">
      <stop offset="0" stop-color="#60c9ed"/>
      <stop offset="0.5" stop-color="#64a4d8"/>
      <stop offset="1" stop-color="#5b74b7"/>
    </linearGradient>
    <linearGradient id="linear-gradient-2" x1="31.8" y1="105.89" x2="106" y2="105.89" gradientUnits="userSpaceOnUse">
      <stop offset="0" stop-color="#5d5da7"/>
      <stop offset="0.5" stop-color="#99539f"/>
      <stop offset="1" stop-color="#ed3f84"/>
    </linearGradient>
  </defs>
  <g id="Capa_2" data-name="Capa 2">
    <g id="Layer_1" data-name="Layer 1">
      <path class="cls-1" d="M90.1,121.9a37,37,0,0,1-33.18,36.89c-1.27.1-2.65.21-3.92.21s-2.65-.11-3.92-.21A52.91,52.91,0,0,1,0,106V31.8A31.8,31.8,0,0,1,31.8,0h0V104.71c0,10.57,7.15,20.43,17.58,22.19a21.21,21.21,0,1,0,5.85-42A37.06,37.06,0,0,1,90.1,121.9Z"/>
      <path class="cls-2" d="M106,106a52.91,52.91,0,0,1-49.08,52.79,37.08,37.08,0,0,0-1.69-73.88A15.21,15.21,0,0,0,53,84.8a15.21,15.21,0,0,0-2.23.11A21.32,21.32,0,0,0,31.8,106V57.35A54.06,54.06,0,0,1,53,53,53,53,0,0,1,106,106Z"/>
    </g>
  </g>
</svg>
