<svg aria-hidden="true" style="position: absolute; width: 0; height: 0; overflow: hidden;" version="1.1" xmlns="http://www.w3.org/2000/svg" xmlns:xlink="http://www.w3.org/1999/xlink">
<defs>
<symbol id="icon-mail" viewBox="0 0 32 32">
<path d="M5.315 9.274l11.185 9.726 11.187-9.728c0.194 0.184 0.313 0.445 0.313 0.735v11.986c0 0.557-0.449 1.007-1.003 1.007h-20.994c-0.564 0-1.003-0.451-1.003-1.007v-11.986c0-0.289 0.121-0.549 0.315-0.733zM6.004 8c-1.107 0-2.004 0.895-2.004 1.994v12.012c0 1.101 0.89 1.994 2.004 1.994h20.993c1.107 0 2.004-0.895 2.004-1.994v-12.012c0-1.101-0.89-1.994-2.004-1.994h-20.993zM16.5 17.7l-10-8.7h20l-10 8.7z"></path>
</symbol>
<symbol id="icon-location" viewBox="0 0 20 20">
<path d="M10 20s-7-9.13-7-13c0-3.866 3.134-7 7-7s7 3.134 7 7v0c0 3.87-7 13-7 13zM10 9c1.105 0 2-0.895 2-2s-0.895-2-2-2v0c-1.105 0-2 0.895-2 2s0.895 2 2 2v0z"></path>
</symbol>
<symbol id="icon-phone" viewBox="0 0 32 32">
<path d="M22 20c-2 2-2 4-4 4s-4-2-6-4-4-4-4-6 2-2 4-4-4-8-6-8-6 6-6 6c0 4 4.109 12.109 8 16s12 8 16 8c0 0 6-4 6-6s-6-8-8-6z"></path>
</symbol>
<symbol id="icon-bantar_belleza_logo" viewBox="0 0 67 32">
<path fill="#010101" style="fill: var(--color1, #010101)" d="M4.683 5.521c0 4.915 0 5.605 0.199 6.121 0.637 2.221 2.651 3.819 5.037 3.819 2.493 0 4.578-1.743 5.103-4.077l0.007-0.035c0.102-0.396 0.161-0.851 0.161-1.32 0-2.052-1.124-3.841-2.789-4.787l-0.027-0.014c-0.671-0.365-1.47-0.579-2.319-0.579-0.189 0-0.376 0.011-0.559 0.031l0.023-0.002c-1.021 0.006-1.963 0.339-2.728 0.899l0.013-0.009-0.597 0.41v0.947c-0.011 0.142-0.017 0.307-0.017 0.474s0.006 0.332 0.019 0.496l-0.001-0.022c0.185-0.151 0.35-0.312 0.5-0.486l0.004-0.005c0.731-0.894 1.834-1.46 3.069-1.46 2.13 0 3.867 1.684 3.952 3.793l0 0.008c0.008 0.111 0.012 0.241 0.012 0.372 0 0.311-0.025 0.616-0.075 0.913l0.004-0.032c-0.351 1.713-1.755 3.014-3.493 3.205l-0.018 0.002c-0.095 0.009-0.206 0.013-0.319 0.013-1.678 0-3.101-1.086-3.607-2.594l-0.008-0.027c-0.21-0.613-0.222-0.644-0.245-6.098l-0.034-5.476h-1.37z"></path>
<path fill="#010101" style="fill: var(--color1, #010101)" d="M39.125 7.384v5.337l0.281 0.621c0.307 0.646 0.806 1.16 1.421 1.479l0.018 0.008c0.742 0.291 1.601 0.466 2.499 0.48l0.006 0h0.613v-1.265h-0.936c-1.276-0.081-1.861-0.351-2.248-1.006l-0.281-0.48v-6.379h3.506v-1.298h-3.511v-2.833h-1.405z"></path>
<path fill="#010101" style="fill: var(--color1, #010101)" d="M19.769 4.821c-2.121 0.627-3.656 2.523-3.733 4.789l-0 0.009c-0.017 0.159-0.026 0.343-0.026 0.529 0 2.339 1.502 4.327 3.593 5.052l0.038 0.011c0.479 0.146 1.030 0.231 1.6 0.231 1.032 0 1.999-0.276 2.833-0.758l-0.027 0.015c0.913-0.574 0.924-0.585 0.924-1.627v-0.927l-0.643 0.655c-0.743 0.831-1.818 1.352-3.015 1.352-0.668 0-1.299-0.162-1.854-0.45l0.023 0.011c-1.253-0.76-2.078-2.116-2.078-3.665 0-1.743 1.044-3.243 2.541-3.907l0.027-0.011c0.405-0.145 0.871-0.228 1.357-0.228s0.953 0.084 1.387 0.237l-0.029-0.009c0.823 0.379 1.478 1.004 1.885 1.78l0.010 0.022c0.491 0.995 0.562 1.521 0.562 4.564v2.809h1.369v-2.809c0-3.241-0.104-3.979-0.632-5.056-0.272-0.524-0.616-0.97-1.026-1.346l-0.003-0.003c-0.852-0.88-2.045-1.426-3.365-1.426-0.111 0-0.221 0.004-0.33 0.011l0.015-0.001c-0.501 0.008-0.984 0.060-1.453 0.154l0.051-0.008z"></path>
<path fill="#010101" style="fill: var(--color1, #010101)" d="M31.448 4.81c-1.311 0.432-2.313 1.467-2.692 2.768l-0.007 0.029c-0.186 0.585-0.21 0.889-0.245 4.154v3.511h1.369v-3.57c0-3.51 0-3.581 0.258-4.072 0.446-1.054 1.472-1.779 2.667-1.779 0.021 0 0.042 0 0.064 0.001l-0.003-0c0.024-0.001 0.052-0.001 0.081-0.001 0.829 0 1.571 0.371 2.069 0.957l0.003 0.004c0.714 0.807 0.736 0.913 0.773 4.88v3.511h1.251v-3.312c0.008-0.283 0.012-0.615 0.012-0.949 0-1.044-0.044-2.079-0.129-3.101l0.009 0.134c-0.292-1.319-1.158-2.392-2.315-2.961l-0.025-0.011c-0.43-0.201-0.933-0.319-1.464-0.319-0.057 0-0.114 0.001-0.17 0.004l0.008-0c-0.083-0.004-0.181-0.007-0.279-0.007-0.437 0-0.862 0.048-1.272 0.138l0.039-0.007z"></path>
<path fill="#010101" style="fill: var(--color1, #010101)" d="M48.476 4.834c-2.132 0.638-3.663 2.571-3.687 4.865l-0 0.003c-0.017 0.157-0.026 0.339-0.026 0.523 0 2.326 1.518 4.297 3.617 4.977l0.037 0.010c0.476 0.145 1.024 0.229 1.591 0.229 1.030 0 1.995-0.276 2.826-0.757l-0.027 0.014c0.913-0.574 0.924-0.585 0.924-1.627v-0.926l-0.725 0.678c-0.361 0.363-0.773 0.674-1.225 0.922l-0.028 0.014c-0.499 0.256-1.088 0.407-1.713 0.407-1.066 0-2.029-0.437-2.721-1.142l-0.001-0.001c-0.499-0.51-0.867-1.151-1.048-1.867l-0.006-0.028c-0.099-0.336-0.155-0.722-0.155-1.121 0-1.868 1.243-3.446 2.948-3.951l0.029-0.007 0.351-0.082c0.215-0.044 0.462-0.069 0.716-0.069 1.815 0 3.329 1.291 3.672 3.005l0.004 0.024c0 0.016 0.006 0.032 0.009 0.048v0.258c0.102 0.759 0.16 1.636 0.16 2.526 0 0.293-0.006 0.584-0.019 0.874l0.001-0.041v2.716h1.392v-3.101c0.001-0.076 0.001-0.166 0.001-0.257 0-1.171-0.060-2.327-0.179-3.467l0.012 0.143c-0.494-1.875-1.947-3.321-3.79-3.795l-0.037-0.008c-0.428-0.083-0.92-0.13-1.423-0.13-0.524 0-1.036 0.051-1.531 0.15l0.050-0.008z"></path>
<path fill="#010101" style="fill: var(--color1, #010101)" d="M60.972 4.88c-0.724 0.172-1.352 0.511-1.865 0.975l0.004-0.003-0.409 0.368v-1.349h-1.276v10.428h1.264v-3.29c0-3.137 0-3.301 0.258-3.828 0.304-0.723 0.81-1.311 1.447-1.709l0.015-0.009c0.336-0.199 0.74-0.316 1.172-0.316 0.082 0 0.163 0.004 0.243 0.013l-0.010-0.001h0.948v-0.647c0-0.562 0-0.613-0.211-0.678-0.192-0.026-0.415-0.040-0.641-0.040-0.332 0-0.657 0.032-0.972 0.092l0.032-0.005z"></path>
<path fill="#010101" style="fill: var(--color1, #010101)" d="M53.686 20.407c0 2.668 0 2.738 0.199 2.738s0.199-0.070 0.199-2.738 0-2.727-0.199-2.727-0.199 0.059-0.199 2.727z"></path>
<path fill="#010101" style="fill: var(--color1, #010101)" d="M50.459 19.417c-0.699 0.274-1.185 0.943-1.185 1.725 0 0.081 0.005 0.16 0.015 0.238l-0.001-0.009c-0.001 0.016-0.001 0.034-0.001 0.052 0 0.352 0.129 0.674 0.341 0.921l-0.002-0.002c0.28 0.447 0.757 0.749 1.307 0.784l0.005 0c0.078 0.012 0.167 0.019 0.259 0.019 0.855 0 1.571-0.592 1.763-1.388l0.002-0.012c0.152-0.526 0.141-0.537-0.117-0.537s-0.234 0.081-0.34 0.432c-0.168 0.505-0.547 0.899-1.030 1.085l-0.012 0.004c-0.064 0.009-0.139 0.015-0.214 0.015-0.776 0-1.418-0.572-1.528-1.318l-0.001-0.008c-0.022-0.095-0.035-0.204-0.035-0.316s0.013-0.221 0.037-0.326l-0.002 0.010c0.172-0.522 0.579-0.924 1.092-1.085l0.012-0.003c0.092-0.026 0.198-0.041 0.308-0.041 0.301 0 0.575 0.113 0.783 0.3l-0.001-0.001 0.258 0.199-1.104 0.75-1.17 0.761c0.005 0.077 0.045 0.145 0.105 0.186l0.001 0.001c0.105 0.070 0.258 0.082 1.403-0.702l1.299-0.878c0.105-0.093-0.398-0.585-0.772-0.795-0.235-0.117-0.512-0.185-0.805-0.185-0.241 0-0.472 0.046-0.683 0.131l0.012-0.004z"></path>
<path fill="#f4a7ac" style="fill: var(--color2, #f4a7ac)" d="M1.254 30.686c-0 0-0 0-0.001 0-0.223 0-0.436-0.045-0.629-0.127l0.011 0.004c-0.193-0.095-0.351-0.234-0.466-0.405l-0.003-0.004c-0.105-0.201-0.166-0.44-0.166-0.693 0-0.018 0-0.036 0.001-0.053l-0 0.003v-1.756c-0.001-0.020-0.002-0.043-0.002-0.066 0-0.247 0.066-0.478 0.182-0.677l-0.003 0.006c0.113-0.175 0.268-0.314 0.45-0.407l0.007-0.003c0.177-0.074 0.383-0.117 0.599-0.117 0.007 0 0.015 0 0.022 0h-0.001c0.024-0.001 0.052-0.002 0.080-0.002 0.216 0 0.422 0.046 0.608 0.129l-0.010-0.004c0.173 0.093 0.312 0.229 0.407 0.394l0.003 0.005c0.095 0.143 0.152 0.318 0.152 0.507 0 0.007-0 0.013-0 0.020l0-0.001v0.211c-0.044 0.037-0.101 0.059-0.163 0.059-0.008 0-0.016-0-0.024-0.001l0.001 0c-0.026 0.006-0.057 0.009-0.088 0.009s-0.061-0.003-0.091-0.010l0.003 0c-0.033-0.033-0.057-0.075-0.071-0.121l-0.001-0.002c0.006-0.030 0.009-0.065 0.009-0.1s-0.003-0.070-0.010-0.103l0.001 0.003c-0.025-0.085-0.060-0.158-0.106-0.225l0.002 0.003c-0.060-0.079-0.141-0.139-0.234-0.173l-0.004-0.001c-0.118-0.044-0.255-0.070-0.397-0.070-0.001 0-0.001 0-0.002 0h0c-0.016-0.001-0.034-0.002-0.052-0.002-0.198 0-0.379 0.074-0.517 0.195l0.001-0.001c-0.125 0.156-0.201 0.356-0.201 0.573 0 0.021 0.001 0.041 0.002 0.061l-0-0.003v1.756c-0.001 0.017-0.002 0.038-0.002 0.058 0 0.218 0.076 0.418 0.202 0.575l-0.001-0.002c0.149 0.127 0.343 0.204 0.555 0.204 0.015 0 0.031-0 0.046-0.001l-0.002 0c0.012 0.001 0.027 0.001 0.042 0.001 0.124 0 0.242-0.026 0.349-0.073l-0.006 0.002c0.089-0.036 0.161-0.097 0.21-0.174l0.001-0.002c0.044-0.064 0.080-0.137 0.104-0.216l0.001-0.006c0.005-0.033 0.008-0.072 0.008-0.111s-0.003-0.078-0.009-0.115l0.001 0.004c0.013-0.048 0.037-0.090 0.070-0.123l-0 0c0.026-0.012 0.056-0.018 0.088-0.018s0.062 0.007 0.089 0.019l-0.001-0.001c0.028-0.012 0.060-0.019 0.094-0.019s0.066 0.007 0.095 0.019l-0.002-0.001v0.222c0 0.003 0 0.007 0 0.011 0 0.19-0.057 0.366-0.155 0.512l0.002-0.003c-0.107 0.16-0.254 0.287-0.427 0.365l-0.006 0.003c-0.133 0.043-0.286 0.067-0.445 0.067-0.070 0-0.139-0.005-0.207-0.014l0.008 0.001z"></path>
<path fill="#f4a7ac" style="fill: var(--color2, #f4a7ac)" d="M4.063 30.697c-0.414-0.007-0.774-0.233-0.969-0.567l-0.003-0.005c-0.103-0.155-0.164-0.346-0.164-0.551v-1.48c0.007-0.053 0.038-0.097 0.081-0.122l0.001-0c0.027-0.008 0.058-0.013 0.090-0.013s0.063 0.005 0.092 0.013l-0.002-0.001c0.025-0.008 0.053-0.012 0.082-0.012s0.058 0.004 0.084 0.012l-0.002-0.001c0.041 0.027 0.068 0.071 0.070 0.122v1.522c0.001 0.121 0.035 0.234 0.095 0.33l-0.002-0.003c0.060 0.103 0.139 0.189 0.232 0.256l0.002 0.002c0.095 0.065 0.213 0.104 0.339 0.105h0c0 0 0 0 0 0 0.127 0 0.244-0.039 0.34-0.107l-0.002 0.001c0.112-0.071 0.2-0.171 0.256-0.289l0.002-0.004c0.017-0.049 0.027-0.105 0.027-0.164s-0.010-0.115-0.028-0.167l0.001 0.004v-1.486c-0-0.002-0-0.003-0-0.005 0-0.050 0.028-0.094 0.069-0.117l0.001-0c0.048-0.038 0.109-0.062 0.176-0.062s0.128 0.023 0.177 0.062l-0.001-0c0.012 0.017 0.019 0.038 0.019 0.061s-0.007 0.044-0.019 0.062l0-0v1.521c0 0.006 0 0.012 0 0.019 0 0.201-0.057 0.388-0.155 0.547l0.003-0.005c-0.068 0.144-0.159 0.266-0.269 0.367l-0.001 0.001c-0.155 0.097-0.344 0.155-0.546 0.155-0.028 0-0.055-0.001-0.082-0.003l0.004 0z"></path>
<path fill="#f4a7ac" style="fill: var(--color2, #f4a7ac)" d="M5.982 27.112c-0.004 0-0.009 0-0.014 0-0.081 0-0.154-0.031-0.208-0.083l0 0c-0.051-0.048-0.082-0.115-0.082-0.19 0-0.003 0-0.006 0-0.009v0c-0-0.003-0-0.006-0-0.009 0-0.071 0.032-0.135 0.082-0.179l0-0c0.054-0.050 0.127-0.081 0.207-0.081 0.005 0 0.011 0 0.016 0l-0.001-0c0.004-0 0.008-0 0.013-0 0.077 0 0.147 0.031 0.198 0.081l-0-0c0.051 0.045 0.082 0.11 0.082 0.183 0 0.002 0 0.003-0 0.005v-0c0 0.003 0 0.006 0 0.009 0 0.075-0.032 0.142-0.082 0.19l-0 0c-0.051 0.051-0.12 0.082-0.198 0.082-0.005 0-0.009-0-0.014-0l0.001 0zM5.982 30.624c-0.018 0.005-0.040 0.008-0.061 0.008s-0.043-0.003-0.063-0.009l0.002 0c-0.073-0.006-0.129-0.066-0.129-0.139 0-0.004 0-0.008 0-0.012l-0 0c0.001-0.018 0.005-0.034 0.013-0.049l-0 0.001v-2.331c-0.001-0.007-0.002-0.016-0.002-0.024 0-0.069 0.049-0.126 0.114-0.139l0.001-0h0.355c0.041 0.026 0.069 0.071 0.071 0.122v2.341c0 0 0 0 0 0.001 0 0.050-0.029 0.094-0.070 0.116l-0.001 0c-0.042 0.065-0.114 0.107-0.195 0.107-0.009 0-0.019-0.001-0.028-0.002l0.001 0z"></path>
<path fill="#f4a7ac" style="fill: var(--color2, #f4a7ac)" d="M7.702 30.697c-0.189-0.001-0.363-0.062-0.506-0.165l0.003 0.002c-0.316-0.211-0.522-0.565-0.526-0.967v-0.602c0.003-0.404 0.209-0.76 0.522-0.969l0.004-0.003c0.147-0.092 0.324-0.148 0.514-0.152l0.001-0c0.002-0 0.005-0 0.008-0 0.176 0 0.339 0.053 0.475 0.143l-0.003-0.002c0.118 0.081 0.216 0.183 0.291 0.3l0.002 0.004v-1.91c0-0.001 0-0.001 0-0.002 0-0.053 0.028-0.1 0.069-0.126l0.001-0h0.351c0.042 0.028 0.070 0.075 0.070 0.129 0 0 0 0 0 0v0 4.048c0 0.002 0 0.004 0 0.006 0 0.049-0.028 0.091-0.069 0.11l-0.001 0c-0.026 0.013-0.056 0.020-0.088 0.020s-0.062-0.007-0.089-0.021l0.001 0.001c-0.023 0.008-0.049 0.012-0.076 0.012s-0.053-0.004-0.078-0.013l0.002 0c-0.039-0.025-0.066-0.067-0.070-0.116l-0-0.001v-0.234c-0.069 0.142-0.178 0.254-0.313 0.326l-0.004 0.002c-0.136 0.102-0.306 0.167-0.489 0.179l-0.003 0zM7.825 30.264c0.016 0.002 0.034 0.003 0.052 0.003 0.12 0 0.23-0.041 0.317-0.109l-0.001 0.001c0.095-0.061 0.174-0.139 0.233-0.231l0.002-0.003c0.050-0.053 0.084-0.121 0.093-0.197l0-0.002v-0.761c0.001-0.010 0.001-0.022 0.001-0.034 0-0.124-0.035-0.239-0.096-0.337l0.002 0.003c-0.062-0.097-0.144-0.176-0.242-0.231l-0.003-0.002c-0.085-0.052-0.187-0.083-0.297-0.083-0.007 0-0.014 0-0.020 0l0.001-0c-0.125 0.002-0.242 0.036-0.343 0.095l0.003-0.002c-0.102 0.066-0.184 0.152-0.243 0.254l-0.002 0.004c-0.052 0.090-0.082 0.199-0.082 0.314 0 0.005 0 0.009 0 0.014v-0.001 0.606c-0 0.004-0 0.009-0 0.014 0 0.119 0.030 0.231 0.084 0.328l-0.002-0.004c0.058 0.108 0.141 0.195 0.242 0.256l0.003 0.002c0.088 0.054 0.191 0.090 0.302 0.102l0.003 0z"></path>
<path fill="#f4a7ac" style="fill: var(--color2, #f4a7ac)" d="M10.148 30.697c-0.011 0-0.023 0.001-0.036 0.001-0.2 0-0.384-0.071-0.528-0.19l0.001 0.001c-0.145-0.135-0.235-0.326-0.235-0.539 0-0.016 0.001-0.033 0.002-0.049l-0 0.002c-0.001-0.015-0.002-0.034-0.002-0.052 0-0.175 0.068-0.333 0.178-0.452l-0 0c0.13-0.121 0.292-0.207 0.473-0.244l0.006-0.001c0.214-0.044 0.46-0.070 0.712-0.070 0.001 0 0.001 0 0.002 0h0.281v-0.123c-0.001-0.127-0.027-0.247-0.073-0.357l0.002 0.006c-0.039-0.11-0.108-0.202-0.197-0.268l-0.002-0.001c-0.095-0.066-0.213-0.106-0.34-0.106-0.010 0-0.020 0-0.029 0.001l0.001-0h-0.334l-0.188 0.093h-0.123c-0.054-0.002-0.101-0.035-0.122-0.081l-0-0.001c-0.005-0.025-0.008-0.053-0.008-0.082s0.003-0.057 0.009-0.084l-0 0.003c0.005-0.076 0.054-0.139 0.121-0.164l0.001-0c0.091-0.056 0.197-0.1 0.309-0.127l0.007-0.002h0.386c0.016-0.001 0.036-0.001 0.055-0.001 0.222 0 0.429 0.062 0.606 0.169l-0.005-0.003c0.155 0.103 0.275 0.246 0.348 0.415l0.002 0.006c0.064 0.16 0.102 0.346 0.102 0.541 0 0.005-0 0.010-0 0.015v-0.001 1.472c0.007 0.019 0.011 0.041 0.011 0.064s-0.004 0.045-0.011 0.066l0-0.001c-0.026 0.011-0.056 0.018-0.088 0.018s-0.062-0.006-0.089-0.018l0.002 0.001c-0.025 0.005-0.053 0.008-0.082 0.008s-0.057-0.003-0.085-0.009l0.003 0c-0.077-0.008-0.139-0.059-0.165-0.127l-0-0.001v-0.234c-0.105 0.125-0.229 0.23-0.369 0.312l-0.007 0.004c-0.136 0.113-0.311 0.184-0.501 0.191l-0.002 0zM10.289 30.311c0.125-0.002 0.241-0.036 0.342-0.095l-0.003 0.002c0.107-0.060 0.197-0.139 0.268-0.232l0.002-0.002c0.059-0.074 0.098-0.166 0.105-0.267l0-0.002v-0.304h-0.667c-0.138 0.014-0.264 0.060-0.371 0.131l0.003-0.002c-0.080 0.063-0.131 0.16-0.131 0.268 0 0.013 0.001 0.025 0.002 0.037l-0-0.002c-0.001 0.008-0.001 0.018-0.001 0.028 0 0.122 0.052 0.231 0.134 0.308l0 0c0.081 0.081 0.193 0.131 0.316 0.131h0z"></path>
<path fill="#f4a7ac" style="fill: var(--color2, #f4a7ac)" d="M14.046 30.651c-0.024 0.002-0.053 0.003-0.082 0.003-0.243 0-0.467-0.080-0.647-0.216l0.003 0.002c-0.153-0.153-0.248-0.365-0.248-0.598 0-0.024 0.001-0.048 0.003-0.072l-0 0.003v-3.019c-0-0.002-0-0.004-0-0.006 0-0.049 0.028-0.091 0.069-0.11l0.001-0c0.025-0.006 0.053-0.009 0.082-0.009s0.057 0.003 0.085 0.010l-0.002-0c0.026-0.012 0.056-0.018 0.088-0.018s0.062 0.007 0.089 0.019l-0.001-0.001c0.042 0.020 0.070 0.062 0.070 0.111 0 0.002-0 0.004-0 0.006v-0 1.17h0.736c0.003-0 0.005-0 0.008-0 0.047 0 0.089 0.023 0.114 0.059l0 0c0.005 0.021 0.008 0.045 0.008 0.070s-0.003 0.049-0.009 0.072l0-0.002c0.005 0.019 0.008 0.041 0.008 0.064s-0.003 0.045-0.009 0.066l0-0.002h-0.859v1.51c-0.001 0.009-0.001 0.019-0.001 0.030 0 0.124 0.047 0.236 0.124 0.321l-0-0c0.089 0.067 0.201 0.107 0.322 0.107 0.016 0 0.032-0.001 0.048-0.002l-0.002 0h0.175c0.062 0.002 0.119 0.023 0.164 0.059l-0.001-0c0.011 0.022 0.017 0.048 0.017 0.076s-0.006 0.054-0.018 0.077l0-0.001c0.011 0.020 0.018 0.044 0.018 0.070s-0.006 0.050-0.018 0.071l0-0.001c-0.038 0.043-0.093 0.070-0.154 0.070-0.003 0-0.006-0-0.009-0h0z"></path>
<path fill="#f4a7ac" style="fill: var(--color2, #f4a7ac)" d="M15.859 30.697c-0.004 0-0.010 0-0.015 0-0.422 0-0.79-0.228-0.988-0.568l-0.003-0.005c-0.102-0.155-0.163-0.345-0.163-0.55 0-0 0-0.001 0-0.001v0-1.48c0.006-0.053 0.037-0.097 0.080-0.122l0.001-0c0.025-0.008 0.053-0.012 0.082-0.012s0.058 0.004 0.084 0.012l-0.002-0.001c0.026-0.008 0.056-0.013 0.088-0.013s0.061 0.005 0.090 0.013l-0.002-0.001c0.055 0.018 0.096 0.065 0.105 0.122l0 0.001v1.521c0.001 0.121 0.035 0.234 0.095 0.33l-0.002-0.003c0.060 0.103 0.139 0.189 0.232 0.256l0.002 0.002c0.095 0.065 0.213 0.104 0.339 0.105h0c0.127-0 0.244-0.040 0.341-0.107l-0.002 0.001c0.198-0.12 0.328-0.335 0.328-0.579 0-0.002 0-0.004-0-0.006v0-1.521c0.003-0.054 0.035-0.1 0.081-0.122l0.001-0c0.025-0.008 0.053-0.012 0.082-0.012s0.058 0.004 0.084 0.012l-0.002-0.001c0.026-0.010 0.056-0.016 0.088-0.016s0.062 0.006 0.089 0.017l-0.002-0.001c0.042 0.023 0.070 0.067 0.070 0.117 0 0.002-0 0.004-0 0.006v-0 1.521c0 0.006 0 0.012 0 0.019 0 0.201-0.057 0.388-0.155 0.547l0.003-0.005c-0.109 0.168-0.25 0.305-0.415 0.407l-0.006 0.003c-0.144 0.073-0.315 0.116-0.496 0.116-0.040 0-0.080-0.002-0.119-0.006l0.005 0z"></path>
<path fill="#f4a7ac" style="fill: var(--color2, #f4a7ac)" d="M18.808 31.996c-0.062-0.002-0.119-0.023-0.164-0.059l0.001 0c-0.036-0.029-0.061-0.069-0.070-0.115l-0-0.001v-3.727c0.001-0.052 0.029-0.097 0.069-0.122l0.001-0c0.024-0.006 0.053-0.009 0.082-0.009s0.057 0.003 0.084 0.010l-0.003-0c0.025-0.006 0.053-0.009 0.082-0.009s0.058 0.003 0.085 0.010l-0.003-0c0.041 0.026 0.068 0.071 0.070 0.122v0.235c0.080-0.12 0.177-0.221 0.29-0.302l0.003-0.002c0.139-0.088 0.307-0.141 0.489-0.141 0.001 0 0.002 0 0.002 0h-0c0.196 0.001 0.378 0.058 0.532 0.155l-0.004-0.002c0.317 0.212 0.524 0.567 0.526 0.971v0.597c-0.002 0.404-0.209 0.76-0.522 0.969l-0.004 0.003c-0.136 0.103-0.307 0.165-0.493 0.165-0.008 0-0.015-0-0.023-0l0.001 0c-0.001 0-0.003 0-0.004 0-0.171 0-0.331-0.046-0.469-0.125l0.005 0.002c-0.129-0.080-0.233-0.191-0.302-0.323l-0.002-0.005v1.579c-0.002 0.051-0.029 0.096-0.069 0.122l-0.001 0c-0.031 0.010-0.067 0.017-0.104 0.017-0.030 0-0.058-0.004-0.086-0.011l0.002 0.001zM19.721 30.264c0.002 0 0.004 0 0.006 0 0.122 0 0.234-0.040 0.325-0.107l-0.002 0.001c0.104-0.063 0.187-0.15 0.244-0.254l0.002-0.003c0.059-0.090 0.094-0.2 0.094-0.319 0-0.007-0-0.014-0-0.021l0 0.001v-0.597c-0-0.121-0.035-0.234-0.095-0.33l0.002 0.003c-0.061-0.105-0.144-0.192-0.242-0.256l-0.003-0.002c-0.098-0.057-0.215-0.091-0.339-0.093h-0.001c-0.004-0-0.008-0-0.013-0-0.108 0-0.209 0.031-0.294 0.084l0.002-0.001c-0.097 0.063-0.178 0.141-0.244 0.23l-0.002 0.003c-0.059 0.106-0.094 0.233-0.094 0.368v0.761c0.010 0.076 0.040 0.143 0.083 0.2l-0.001-0.001c0.061 0.095 0.139 0.174 0.231 0.233l0.003 0.002c0.093 0.063 0.208 0.101 0.332 0.101 0.002 0 0.005 0 0.007-0h-0z"></path>
<path fill="#f4a7ac" style="fill: var(--color2, #f4a7ac)" d="M21.571 27.112c-0.004 0-0.009 0-0.014 0-0.077 0-0.147-0.032-0.197-0.082l-0-0c-0.058-0.045-0.094-0.115-0.094-0.193s0.037-0.148 0.094-0.193l0.001-0c0.056-0.050 0.129-0.080 0.21-0.080s0.155 0.030 0.211 0.080l-0-0c0.051 0.043 0.082 0.106 0.082 0.177 0 0.004-0 0.007-0 0.011l0-0c0 0.003 0 0.007 0 0.011 0 0.074-0.032 0.141-0.082 0.188l-0 0c-0.050 0.051-0.119 0.083-0.196 0.083-0.005 0-0.009-0-0.014-0l0.001 0zM21.571 30.624c-0.005 0-0.010 0-0.015 0-0.061 0-0.117-0.022-0.16-0.060l0 0c-0.040-0.025-0.067-0.067-0.071-0.116l-0-0.001v-2.354c0.002-0.052 0.030-0.096 0.071-0.122l0.001-0c0.051-0.028 0.111-0.044 0.175-0.044s0.125 0.017 0.177 0.045l-0.002-0.001c0.041 0.026 0.068 0.071 0.070 0.122v2.331c0 0.002 0 0.004 0 0.006 0 0.049-0.028 0.091-0.069 0.11l-0.001 0c-0.040 0.058-0.102 0.097-0.174 0.105l-0.001 0z"></path>
<path fill="#f4a7ac" style="fill: var(--color2, #f4a7ac)" d="M23.555 30.697c-0.002 0-0.005 0-0.008 0-0.238 0-0.465-0.052-0.669-0.144l0.010 0.004c-0.375-0.164-0.632-0.532-0.632-0.96 0-0.012 0-0.024 0.001-0.036l-0 0.002v-0.613c0-0 0-0.001 0-0.001 0-0.205 0.061-0.395 0.166-0.554l-0.002 0.004c0.103-0.173 0.246-0.312 0.416-0.407l0.006-0.003c0.165-0.092 0.362-0.148 0.572-0.152l0.001-0c0 0 0.001 0 0.002 0 0.205 0 0.398 0.052 0.566 0.144l-0.006-0.003c0.17 0.093 0.308 0.224 0.407 0.382l0.003 0.005c0.096 0.143 0.153 0.318 0.153 0.507 0 0.015-0 0.030-0.001 0.044l0-0.002c0.002 0.018 0.003 0.038 0.003 0.059 0 0.103-0.027 0.2-0.075 0.283l0.002-0.003c-0.046 0.065-0.117 0.11-0.198 0.122l-0.002 0h-1.527v0.19c-0 0.002-0 0.005-0 0.008 0 0.202 0.090 0.383 0.232 0.505l0.001 0.001c0.154 0.118 0.35 0.189 0.563 0.189 0.018 0 0.036-0 0.053-0.002l-0.002 0c0.017 0.002 0.038 0.003 0.058 0.003 0.102 0 0.198-0.023 0.285-0.063l-0.004 0.002c0.080-0.025 0.151-0.061 0.213-0.106l-0.002 0.002h0.258c0.032 0.023 0.057 0.055 0.070 0.092l0 0.001c0.006 0.014 0.009 0.030 0.009 0.047s-0.003 0.033-0.009 0.047l0-0.001c-0.007 0.073-0.052 0.135-0.115 0.164l-0.001 0c-0.088 0.078-0.194 0.138-0.31 0.174l-0.006 0.002c-0.136 0.042-0.293 0.066-0.455 0.066-0.008 0-0.015-0-0.023-0h0.001zM22.736 29.083h1.088c0.031 0.011 0.068 0.017 0.105 0.017s0.074-0.006 0.108-0.018l-0.002 0.001v-0.141c0-0.002 0-0.005 0-0.008 0-0.366-0.297-0.662-0.662-0.662-0.121 0-0.234 0.032-0.332 0.089l0.003-0.002-0.016 0.010c-0.096 0.060-0.178 0.134-0.244 0.22l-0.002 0.002c-0.058 0.092-0.093 0.205-0.093 0.325 0 0.001 0 0.002 0 0.003v-0z"></path>
<path fill="#f4a7ac" style="fill: var(--color2, #f4a7ac)" d="M25.245 30.651c-0.005 0-0.010 0-0.015 0-0.061 0-0.117-0.022-0.16-0.060l0 0c-0.041-0.026-0.068-0.071-0.070-0.122v-4.093c0-0 0-0 0-0 0-0.054 0.028-0.101 0.069-0.128l0.001-0h0.351c0.042 0.027 0.070 0.074 0.070 0.127 0 0.001 0 0.002-0 0.002v-0 4.048c0 0.002 0 0.004 0 0.006 0 0.049-0.028 0.091-0.069 0.11l-0.001 0c-0.039 0.059-0.102 0.1-0.174 0.109l-0.001 0z"></path>
<path fill="#f4a7ac" style="fill: var(--color2, #f4a7ac)" d="M26.194 31.177h-0.123c-0.032-0.020-0.054-0.054-0.058-0.093l-0-0v-0.070l0.117-0.304c-0.051-0.026-0.094-0.062-0.128-0.105l-0.001-0.001c-0.008-0.026-0.012-0.056-0.012-0.088s0.004-0.061 0.013-0.090l-0.001 0.002c0-0.001 0-0.002 0-0.002 0-0.167 0.135-0.303 0.302-0.305h0c0.083 0 0.158 0.032 0.214 0.085l-0-0c0.058 0.045 0.095 0.115 0.095 0.194 0 0.010-0.001 0.021-0.002 0.031l0-0.001c0.006 0.014 0.009 0.030 0.009 0.047s-0.003 0.033-0.009 0.047l0-0.001c-0.014 0.075-0.038 0.141-0.072 0.202l0.002-0.003-0.14 0.368v0.059z"></path>
<path fill="#f4a7ac" style="fill: var(--color2, #f4a7ac)" d="M28.264 30.651c-0.062-0.002-0.119-0.023-0.164-0.059l0.001 0c-0.020-0.024-0.032-0.055-0.032-0.088 0-0.029 0.009-0.057 0.025-0.079l-0 0v-2.331c0.002-0.051 0.029-0.096 0.069-0.122l0.001-0c0.025-0.006 0.053-0.009 0.082-0.009s0.058 0.003 0.085 0.010l-0.003-0c0.025-0.006 0.053-0.009 0.082-0.009s0.058 0.003 0.085 0.010l-0.003-0c0.041 0.027 0.068 0.071 0.070 0.122v0.269c0.030-0.102 0.069-0.191 0.119-0.274l-0.003 0.005c0.071-0.078 0.157-0.141 0.253-0.186l0.005-0.002c0.096-0.044 0.208-0.070 0.326-0.070 0.001 0 0.001 0 0.002 0h0.199c0.002-0 0.004-0 0.006-0 0.055 0 0.105 0.027 0.134 0.070l0 0c0.028 0.043 0.044 0.096 0.044 0.152s-0.016 0.109-0.045 0.153l0.001-0.001c-0.030 0.043-0.079 0.070-0.135 0.070-0.002 0-0.005-0-0.007-0h-0.203c-0.001 0-0.002 0-0.003 0-0.13 0-0.25 0.039-0.35 0.107l0.002-0.001c-0.116 0.074-0.211 0.173-0.279 0.289l-0.002 0.004c-0.067 0.131-0.106 0.286-0.106 0.45 0 0.002 0 0.004 0 0.006v-0 1.289c0 0.002 0 0.004 0 0.006 0 0.049-0.028 0.091-0.069 0.11l-0.001 0c-0.046 0.057-0.111 0.096-0.186 0.109l-0.002 0z"></path>
<path fill="#f4a7ac" style="fill: var(--color2, #f4a7ac)" d="M30.992 30.697c-0.002 0-0.005 0-0.008 0-0.239 0-0.465-0.052-0.67-0.144l0.010 0.004c-0.192-0.092-0.349-0.228-0.465-0.395l-0.003-0.004c-0.104-0.169-0.166-0.373-0.168-0.592v-0.614c0-0.205 0.062-0.396 0.167-0.555l-0.002 0.004c0.102-0.173 0.244-0.312 0.415-0.407l0.006-0.003c0.166-0.092 0.363-0.148 0.573-0.152l0.001-0c0 0 0.001 0 0.002 0 0.205 0 0.397 0.052 0.565 0.144l-0.006-0.003c0.17 0.092 0.309 0.223 0.407 0.382l0.003 0.005c0.096 0.141 0.153 0.315 0.153 0.503 0 0.017-0 0.033-0.001 0.049l0-0.002c0.002 0.018 0.003 0.038 0.003 0.059 0 0.103-0.027 0.2-0.075 0.283l0.002-0.003c-0.046 0.065-0.116 0.11-0.197 0.122l-0.002 0h-1.534v0.186c-0 0.003-0 0.006-0 0.008 0 0.202 0.091 0.383 0.233 0.505l0.001 0.001c0.154 0.118 0.35 0.189 0.562 0.189 0.018 0 0.036-0.001 0.054-0.002l-0.002 0c0.017 0.002 0.038 0.003 0.058 0.003 0.102 0 0.199-0.023 0.286-0.063l-0.004 0.002c0.080-0.025 0.15-0.061 0.212-0.106l-0.002 0.002h0.258c0.033 0.023 0.058 0.055 0.071 0.092l0 0.001c0.005 0.014 0.008 0.030 0.008 0.047s-0.003 0.033-0.009 0.048l0-0.001c-0.008 0.074-0.056 0.136-0.121 0.164l-0.001 0c-0.088 0.078-0.193 0.138-0.309 0.174l-0.006 0.002c-0.136 0.042-0.293 0.066-0.455 0.066-0.003 0-0.007 0-0.011-0h0.001zM30.172 29.083h1.088c0.031 0.011 0.068 0.017 0.105 0.017s0.074-0.006 0.108-0.018l-0.002 0.001v-0.141c0-0.004 0-0.009 0-0.013 0-0.115-0.031-0.224-0.084-0.317l0.002 0.003c-0.116-0.205-0.333-0.341-0.581-0.341-0.12 0-0.233 0.032-0.33 0.087l0.003-0.002-0.016 0.010c-0.097 0.060-0.178 0.134-0.244 0.22l-0.002 0.002c-0.058 0.093-0.092 0.206-0.093 0.327v0z"></path>
<path fill="#f4a7ac" style="fill: var(--color2, #f4a7ac)" d="M33.18 30.697c-0.001 0-0.001 0-0.002 0-0.178 0-0.351-0.026-0.514-0.073l0.013 0.003c-0.13-0.040-0.243-0.1-0.342-0.177l0.002 0.002c-0.068-0.042-0.113-0.115-0.117-0.198l-0-0v-0.094c-0.003-0.012-0.005-0.027-0.005-0.041s0.002-0.029 0.005-0.042l-0 0.001h0.081c0.001-0 0.003-0 0.005-0 0.059 0 0.112 0.028 0.147 0.071l0 0c0.064 0.055 0.138 0.102 0.218 0.138l0.006 0.002c0.099 0.046 0.214 0.073 0.336 0.073 0.026 0 0.051-0.001 0.077-0.004l-0.003 0c0.024 0.003 0.051 0.006 0.079 0.006 0.134 0 0.257-0.046 0.355-0.123l-0.001 0.001c0.072-0.058 0.117-0.147 0.117-0.246 0-0.004-0-0.009-0-0.013l0 0.001c0.001-0.009 0.001-0.019 0.001-0.029 0-0.099-0.041-0.188-0.107-0.252l-0-0c-0.076-0.064-0.166-0.115-0.263-0.15l-0.006-0.002-0.34-0.105-0.269-0.186c-0.105-0.052-0.192-0.128-0.256-0.221l-0.001-0.002c-0.067-0.099-0.106-0.22-0.106-0.351 0-0.012 0-0.024 0.001-0.036l-0 0.002c0.001-0.137 0.036-0.266 0.095-0.38l-0.002 0.005c0.068-0.135 0.172-0.243 0.3-0.313l0.004-0.002c0.155-0.081 0.338-0.129 0.533-0.129 0.010 0 0.020 0 0.031 0l-0.002-0c0.060-0.011 0.129-0.017 0.199-0.017s0.139 0.006 0.206 0.019l-0.007-0.001c0.115 0.025 0.218 0.068 0.31 0.125l-0.004-0.002c0.061 0.028 0.105 0.084 0.116 0.151l0 0.001c0.005 0.014 0.008 0.030 0.008 0.047s-0.003 0.033-0.009 0.048l0-0.001c-0.008 0.042-0.029 0.078-0.059 0.104l-0 0c-0.016 0.006-0.034 0.009-0.053 0.009s-0.037-0.003-0.054-0.010l0.001 0h-0.129l-0.21-0.093c-0.044-0.006-0.095-0.009-0.147-0.009s-0.103 0.003-0.153 0.010l0.006-0.001c-0.046-0.008-0.098-0.013-0.152-0.013s-0.106 0.005-0.158 0.014l0.005-0.001c-0.072 0.040-0.132 0.095-0.174 0.162l-0.001 0.002c-0.005 0.028-0.008 0.060-0.008 0.093s0.003 0.065 0.009 0.096l-0.001-0.003c-0 0.002-0 0.005-0 0.008 0 0.087 0.041 0.165 0.105 0.215l0.001 0c0.075 0.064 0.165 0.113 0.264 0.139l0.005 0.001 0.34 0.093c0.134 0.036 0.25 0.084 0.359 0.145l-0.008-0.004c0.109 0.061 0.2 0.144 0.268 0.243l0.002 0.003c0.067 0.102 0.107 0.227 0.107 0.362 0 0.021-0.001 0.042-0.003 0.063l0-0.003c0.001 0.016 0.002 0.036 0.002 0.055 0 0.231-0.116 0.435-0.292 0.557l-0.002 0.001c-0.199 0.161-0.455 0.258-0.733 0.258-0.010 0-0.019-0-0.029-0l0.001 0z"></path>
<path fill="#f4a7ac" style="fill: var(--color2, #f4a7ac)" d="M35.17 30.697c-0.011 0.001-0.024 0.001-0.037 0.001-0.2 0-0.384-0.071-0.526-0.19l0.001 0.001c-0.145-0.135-0.236-0.327-0.236-0.54 0-0.016 0.001-0.032 0.002-0.047l-0 0.002c-0.001-0.015-0.002-0.032-0.002-0.050 0-0.175 0.067-0.334 0.178-0.453l-0 0c0.132-0.123 0.299-0.21 0.485-0.244l0.006-0.001c0.211-0.044 0.453-0.070 0.701-0.070 0 0 0.001 0 0.001 0h0.281v-0.123c0-0.008 0-0.018 0-0.028 0-0.116-0.022-0.227-0.061-0.329l0.002 0.006c-0.047-0.106-0.115-0.196-0.198-0.268l-0.001-0.001c-0.099-0.067-0.221-0.106-0.352-0.106-0.012 0-0.024 0-0.036 0.001l0.002-0h-0.267l-0.199 0.093h-0.123c-0.060-0.001-0.111-0.033-0.139-0.081l-0-0.001c-0.006-0.024-0.009-0.053-0.009-0.082s0.003-0.057 0.010-0.084l-0.001 0.003c0.005-0.076 0.054-0.139 0.121-0.164l0.001-0c0.094-0.055 0.204-0.1 0.319-0.127l0.008-0.002h0.374c0.028-0.003 0.060-0.004 0.093-0.004 0.407 0 0.759 0.238 0.922 0.583l0.003 0.006c0.067 0.163 0.105 0.352 0.105 0.55 0 0 0 0.001 0 0.001v-0 1.472c-0.002 0.053-0.029 0.1-0.069 0.128l-0.001 0c-0.026 0.010-0.056 0.016-0.088 0.016s-0.062-0.006-0.089-0.017l0.002 0.001c-0.023 0.005-0.049 0.008-0.076 0.008s-0.053-0.003-0.078-0.009l0.002 0c-0.062-0.016-0.11-0.065-0.123-0.128l-0-0.001v-0.234c-0.1 0.125-0.22 0.23-0.356 0.312l-0.006 0.003c-0.149 0.117-0.339 0.19-0.545 0.195l-0.001 0zM35.322 30.311c0.121-0.001 0.234-0.035 0.33-0.095l-0.003 0.002c0.107-0.061 0.196-0.139 0.267-0.232l0.002-0.002c0.060-0.073 0.099-0.166 0.105-0.267l0-0.001v-0.304h-0.667c-0.132 0.019-0.251 0.064-0.354 0.131l0.004-0.002c-0.086 0.064-0.141 0.165-0.141 0.279 0 0.009 0 0.018 0.001 0.026l-0-0.001c-0.001 0.011-0.002 0.023-0.002 0.036 0 0.119 0.050 0.227 0.13 0.303l0 0c0.086 0.079 0.201 0.127 0.327 0.129h0z"></path>
<path fill="#f4a7ac" style="fill: var(--color2, #f4a7ac)" d="M37.334 30.651c-0.005 0-0.010 0-0.015 0-0.061 0-0.117-0.022-0.16-0.060l0 0c-0.041-0.026-0.068-0.071-0.070-0.122v-4.093c0-0.054 0.028-0.101 0.069-0.128l0.001-0h0.352c0.042 0.028 0.069 0.075 0.070 0.129v4.049c0 0 0 0 0 0 0 0.050-0.028 0.094-0.069 0.116l-0.001 0c-0.039 0.059-0.102 0.1-0.175 0.109l-0.001 0z"></path>
<path fill="#f4a7ac" style="fill: var(--color2, #f4a7ac)" d="M39.149 30.651c-0.024 0.002-0.053 0.003-0.081 0.003-0.243 0-0.467-0.080-0.647-0.216l0.003 0.002c-0.153-0.153-0.248-0.365-0.248-0.598 0-0.024 0.001-0.048 0.003-0.072l-0 0.003v-3.019c0-0 0-0 0-0.001 0-0.050 0.029-0.094 0.070-0.116l0.001-0c0.025-0.006 0.053-0.009 0.082-0.009s0.057 0.003 0.084 0.010l-0.002-0c0.026-0.011 0.056-0.017 0.088-0.017s0.062 0.006 0.089 0.018l-0.002-0.001c0.042 0.020 0.070 0.062 0.070 0.111 0 0.002-0 0.004-0 0.006v-0 1.17h0.736c0.003-0 0.005-0 0.008-0 0.047 0 0.089 0.023 0.114 0.059l0 0c0.005 0.021 0.008 0.045 0.008 0.070s-0.003 0.049-0.009 0.072l0-0.002c0.005 0.019 0.008 0.041 0.008 0.064s-0.003 0.045-0.009 0.066l0-0.002h-0.889v1.51c-0.001 0.011-0.001 0.024-0.001 0.037 0 0.121 0.045 0.231 0.118 0.315l-0-0.001c0.089 0.067 0.202 0.108 0.324 0.108 0.018 0 0.035-0.001 0.052-0.003l-0.002 0h0.177c0.062 0.002 0.119 0.023 0.164 0.059l-0.001-0c0.011 0.022 0.017 0.048 0.017 0.076s-0.006 0.054-0.018 0.077l0-0.001c0.011 0.020 0.017 0.044 0.017 0.070s-0.006 0.050-0.018 0.071l0-0.001c-0.038 0.043-0.094 0.070-0.156 0.070-0.003 0-0.005-0-0.008-0h0z"></path>
<path fill="#f4a7ac" style="fill: var(--color2, #f4a7ac)" d="M40.471 30.697c-0.011 0-0.023 0.001-0.035 0.001-0.2 0-0.384-0.071-0.528-0.19l0.001 0.001c-0.145-0.135-0.236-0.327-0.236-0.54 0-0.016 0.001-0.032 0.002-0.047l-0 0.002c-0.001-0.014-0.002-0.031-0.002-0.048 0-0.176 0.067-0.335 0.178-0.455l-0 0c0.132-0.123 0.299-0.21 0.485-0.244l0.006-0.001c0.211-0.044 0.453-0.070 0.701-0.070 0 0 0.001 0 0.001 0h0.281v-0.123c-0.002-0.126-0.023-0.246-0.060-0.359l0.002 0.008c-0.048-0.106-0.115-0.195-0.198-0.268l-0.001-0.001c-0.099-0.067-0.221-0.106-0.353-0.106-0.012 0-0.024 0-0.035 0.001l0.002-0h-0.319l-0.199 0.093h-0.123c-0.060-0-0.113-0.033-0.141-0.081l-0-0.001c-0.005-0.025-0.008-0.053-0.008-0.082s0.003-0.057 0.009-0.084l-0 0.003c0.006-0.077 0.058-0.141 0.127-0.164l0.001-0c0.094-0.055 0.204-0.1 0.319-0.127l0.008-0.002h0.374c0.028-0.003 0.061-0.004 0.095-0.004 0.407 0 0.758 0.239 0.921 0.583l0.003 0.006c0.067 0.163 0.105 0.352 0.105 0.55 0 0 0 0.001 0 0.001v-0 1.472c-0.001 0.053-0.028 0.1-0.069 0.128l-0.001 0c-0.026 0.011-0.056 0.017-0.088 0.017s-0.062-0.006-0.089-0.018l0.002 0.001c-0.023 0.005-0.049 0.008-0.076 0.008s-0.053-0.003-0.078-0.009l0.002 0c-0.041-0.029-0.069-0.075-0.070-0.129v-0.235c-0.102 0.126-0.224 0.231-0.362 0.312l-0.006 0.003c-0.149 0.119-0.339 0.192-0.546 0.195h-0.001zM40.623 30.311c0.121-0 0.234-0.035 0.33-0.095l-0.003 0.002c0.107-0.061 0.197-0.139 0.268-0.232l0.002-0.002c0.059-0.073 0.098-0.166 0.104-0.267l0-0.001v-0.304h-0.666c-0.133 0.019-0.252 0.064-0.356 0.131l0.004-0.002c-0.086 0.065-0.141 0.167-0.141 0.282 0 0.008 0 0.016 0.001 0.023l-0-0.001c-0.001 0.012-0.002 0.027-0.002 0.041 0 0.116 0.048 0.222 0.125 0.297l0 0c0.088 0.080 0.205 0.129 0.334 0.129v0z"></path>
<path fill="#f4a7ac" style="fill: var(--color2, #f4a7ac)" d="M44.333 30.651c-0.023 0.002-0.049 0.003-0.076 0.003-0.241 0-0.463-0.080-0.641-0.216l0.003 0.002c-0.161-0.146-0.261-0.356-0.261-0.59 0-0.027 0.001-0.054 0.004-0.081l-0 0.003v-3.019c0.004-0.052 0.036-0.096 0.081-0.116l0.001-0c0.047-0.028 0.103-0.044 0.164-0.044s0.117 0.016 0.165 0.045l-0.002-0.001c0.048 0.017 0.082 0.063 0.082 0.116 0 0 0 0.001 0 0.001v-0 1.17h0.736c0.044 0.001 0.083 0.024 0.105 0.058l0 0c0.005 0.021 0.008 0.045 0.008 0.070s-0.003 0.049-0.009 0.072l0-0.002c0.005 0.019 0.008 0.041 0.008 0.064s-0.003 0.045-0.009 0.066l0-0.002h-0.843v1.51c-0.002 0.016-0.003 0.034-0.003 0.053 0 0.114 0.041 0.218 0.109 0.298l-0.001-0.001c0.089 0.067 0.201 0.108 0.323 0.108 0.018 0 0.036-0.001 0.053-0.003l-0.002 0h0.141c0.059 0 0.112 0.022 0.152 0.059l-0-0c0.005 0.023 0.008 0.049 0.008 0.076s-0.003 0.053-0.009 0.078l0-0.002c0.005 0.021 0.008 0.045 0.008 0.070s-0.003 0.049-0.009 0.072l0-0.002c-0.034 0.043-0.086 0.070-0.145 0.070-0.003 0-0.005-0-0.008-0h0z"></path>
<path fill="#f4a7ac" style="fill: var(--color2, #f4a7ac)" d="M46.182 30.697c-0.004 0-0.010 0-0.015 0-0.422 0-0.79-0.228-0.988-0.568l-0.003-0.005c-0.096-0.151-0.152-0.334-0.152-0.531 0-0.007 0-0.014 0-0.021l-0 0.001v-1.48c0.008-0.050 0.033-0.093 0.070-0.122l0-0c0.026-0.008 0.056-0.012 0.088-0.012s0.061 0.004 0.090 0.013l-0.002-0.001c0.025-0.008 0.053-0.012 0.082-0.012s0.058 0.004 0.084 0.012l-0.002-0.001c0.041 0.027 0.068 0.071 0.070 0.122v1.522c0.001 0.121 0.035 0.234 0.095 0.33l-0.002-0.003c0.058 0.108 0.141 0.195 0.242 0.256l0.003 0.002c0.095 0.066 0.212 0.106 0.339 0.106s0.244-0.040 0.341-0.107l-0.002 0.001c0.104-0.059 0.184-0.148 0.233-0.254l0.001-0.003c0.038-0.079 0.060-0.171 0.060-0.269 0-0.021-0.001-0.041-0.003-0.062l0 0.003v-1.521c-0-0.002-0-0.003-0-0.005 0-0.051 0.029-0.095 0.071-0.117l0.001-0c0.026-0.007 0.057-0.011 0.088-0.011s0.061 0.004 0.090 0.012l-0.002-0.001c0.026-0.008 0.056-0.013 0.088-0.013s0.061 0.005 0.090 0.013l-0.002-0.001c0.012 0.017 0.019 0.038 0.019 0.061s-0.007 0.044-0.019 0.062l0-0v1.521c0 0.006 0 0.012 0 0.019 0 0.201-0.057 0.388-0.155 0.547l0.003-0.005c-0.109 0.168-0.25 0.305-0.416 0.407l-0.006 0.003c-0.14 0.067-0.304 0.107-0.477 0.11h-0.001z"></path>
<path fill="#f4a7ac" style="fill: var(--color2, #f4a7ac)" d="M50.176 30.697c-0.18-0.001-0.349-0.049-0.496-0.131l0.005 0.003c-0.129-0.085-0.235-0.195-0.314-0.323l-0.003-0.004v0.184c0.011 0.016 0.018 0.037 0.018 0.058s-0.007 0.042-0.018 0.059l0-0c-0.044 0.037-0.101 0.059-0.164 0.059s-0.12-0.022-0.164-0.059l0 0c-0.039-0.025-0.066-0.067-0.070-0.116l-0-0.001v-4.093c0.002-0.052 0.029-0.096 0.069-0.122l0.001-0c0.025-0.006 0.053-0.009 0.082-0.009s0.057 0.003 0.084 0.010l-0.002-0c0.027-0.006 0.057-0.009 0.088-0.009s0.062 0.003 0.091 0.010l-0.003-0c0.041 0.027 0.068 0.071 0.070 0.122v1.908c0.079-0.12 0.176-0.221 0.289-0.302l0.003-0.002c0.135-0.088 0.3-0.141 0.478-0.141 0.001 0 0.001 0 0.002 0h-0c0.196 0.002 0.377 0.058 0.532 0.155l-0.004-0.003c0.153 0.108 0.279 0.245 0.371 0.404l0.003 0.006c0.088 0.16 0.14 0.351 0.14 0.554 0 0.003 0 0.006-0 0.008v-0 0.597c0 0.002 0 0.005 0 0.008 0 0.203-0.052 0.393-0.143 0.559l0.003-0.006c-0.095 0.165-0.221 0.302-0.37 0.407l-0.004 0.003c-0.141 0.131-0.331 0.212-0.54 0.212-0.012 0-0.024-0-0.036-0.001l0.002 0zM50.054 30.264c0.002 0 0.004 0 0.006 0 0.121 0 0.233-0.040 0.323-0.107l-0.001 0.001c0.104-0.062 0.188-0.15 0.244-0.254l0.002-0.003c0.057-0.097 0.092-0.214 0.094-0.338v-0.598c-0.003-0.121-0.038-0.234-0.096-0.331l0.002 0.003c-0.061-0.106-0.144-0.192-0.242-0.256l-0.003-0.002c-0.098-0.057-0.215-0.091-0.339-0.093h-0.001c-0.231 0.006-0.433 0.13-0.548 0.313l-0.002 0.003c-0.066 0.101-0.106 0.225-0.106 0.358 0 0.003 0 0.007 0 0.011v-0.001 0.761c0.015 0.076 0.048 0.144 0.094 0.2l-0.001-0.001c0.061 0.095 0.139 0.174 0.231 0.233l0.003 0.002c0.094 0.063 0.209 0.101 0.333 0.101 0.002 0 0.005 0 0.007-0h-0z"></path>
<path fill="#f4a7ac" style="fill: var(--color2, #f4a7ac)" d="M52.853 30.697c-0.003 0-0.006 0-0.009 0-0.238 0-0.465-0.052-0.669-0.144l0.010 0.004c-0.375-0.164-0.632-0.532-0.632-0.96 0-0.012 0-0.024 0.001-0.036l-0 0.002v-0.613c0-0 0-0.001 0-0.001 0-0.205 0.061-0.395 0.166-0.554l-0.002 0.004c0.103-0.173 0.246-0.312 0.416-0.407l0.006-0.003c0.165-0.092 0.362-0.148 0.572-0.152l0.001-0c0.001 0 0.002 0 0.003 0 0.205 0 0.398 0.052 0.565 0.144l-0.006-0.003c0.17 0.093 0.308 0.224 0.407 0.382l0.003 0.005c0.096 0.142 0.153 0.317 0.153 0.505 0 0.016-0 0.031-0.001 0.047l0-0.002c0.002 0.018 0.003 0.038 0.003 0.059 0 0.103-0.027 0.2-0.075 0.283l0.002-0.003c-0.046 0.065-0.116 0.11-0.197 0.122l-0.002 0h-1.533v0.19c-0 0.003-0 0.006-0 0.008 0 0.202 0.091 0.383 0.233 0.505l0.001 0.001c0.154 0.118 0.35 0.189 0.562 0.189 0.018 0 0.036-0.001 0.054-0.002l-0.002 0c0.018 0.002 0.038 0.003 0.059 0.003 0.102 0 0.198-0.023 0.284-0.063l-0.004 0.002c0.080-0.025 0.151-0.061 0.213-0.106l-0.002 0.002h0.258c0.033 0.022 0.057 0.054 0.070 0.092l0 0.001c0.006 0.014 0.009 0.030 0.009 0.047s-0.003 0.033-0.010 0.047l0-0.001c-0.007 0.075-0.055 0.137-0.121 0.164l-0.001 0c-0.088 0.078-0.194 0.138-0.311 0.174l-0.006 0.002c-0.136 0.042-0.292 0.066-0.454 0.066-0.004 0-0.009-0-0.013-0h0.001zM52.034 29.083h1.087c0.031 0.011 0.068 0.017 0.105 0.017s0.074-0.006 0.108-0.018l-0.002 0.001c0.011-0.020 0.017-0.045 0.017-0.071s-0.006-0.050-0.018-0.071l0 0.001c-0.004-0.12-0.034-0.232-0.084-0.332l0.002 0.005c-0.116-0.205-0.333-0.341-0.581-0.341-0.12 0-0.233 0.032-0.33 0.087l0.003-0.002-0.017 0.010c-0.096 0.060-0.178 0.134-0.244 0.22l-0.002 0.002c-0.058 0.093-0.093 0.206-0.093 0.327v0z"></path>
<path fill="#f4a7ac" style="fill: var(--color2, #f4a7ac)" d="M54.538 30.651c-0.005 0-0.010 0-0.015 0-0.061 0-0.117-0.022-0.16-0.060l0 0c-0.041-0.026-0.068-0.071-0.070-0.122v-4.093c0-0.054 0.028-0.101 0.069-0.128l0.001-0h0.353c0.042 0.028 0.069 0.075 0.070 0.129v4.049c0 0.002 0 0.004 0 0.006 0 0.049-0.028 0.091-0.069 0.11l-0.001 0c-0.040 0.060-0.103 0.101-0.177 0.109l-0.001 0z"></path>
<path fill="#f4a7ac" style="fill: var(--color2, #f4a7ac)" d="M55.685 30.651c-0.005 0-0.010 0-0.015 0-0.061 0-0.117-0.022-0.16-0.060l0 0c-0.041-0.026-0.068-0.071-0.070-0.122v-4.093c0-0 0-0 0-0 0-0.054 0.028-0.101 0.069-0.128l0.001-0h0.351c0.043 0.028 0.071 0.075 0.071 0.129v4.048c0 0 0 0 0 0.001 0 0.050-0.029 0.094-0.070 0.116l-0.001 0c-0.039 0.059-0.102 0.1-0.174 0.109l-0.001 0z"></path>
<path fill="#f4a7ac" style="fill: var(--color2, #f4a7ac)" d="M57.733 30.697c-0.003 0-0.006 0-0.009 0-0.238 0-0.465-0.052-0.669-0.144l0.010 0.004c-0.376-0.164-0.633-0.532-0.633-0.961 0-0.011 0-0.021 0-0.032l-0 0.002v-0.613c0-0 0-0.001 0-0.001 0-0.205 0.061-0.395 0.166-0.554l-0.002 0.004c0.103-0.173 0.246-0.312 0.416-0.407l0.006-0.003c0.165-0.092 0.362-0.148 0.572-0.152l0.001-0c0.001 0 0.002 0 0.003 0 0.205 0 0.398 0.052 0.565 0.144l-0.006-0.003c0.17 0.093 0.308 0.224 0.407 0.382l0.003 0.005c0.096 0.142 0.153 0.317 0.153 0.505 0 0.016-0 0.031-0.001 0.047l0-0.002c0.002 0.018 0.003 0.038 0.003 0.059 0 0.103-0.027 0.2-0.075 0.283l0.002-0.003c-0.046 0.065-0.116 0.11-0.197 0.122l-0.002 0h-1.533v0.186c-0 0.003-0 0.006-0 0.008 0 0.202 0.091 0.383 0.233 0.505l0.001 0.001c0.154 0.118 0.35 0.189 0.562 0.189 0.018 0 0.036-0.001 0.054-0.002l-0.002 0c0.018 0.002 0.038 0.003 0.059 0.003 0.102 0 0.198-0.023 0.284-0.063l-0.004 0.002c0.080-0.025 0.151-0.061 0.213-0.106l-0.002 0.002h0.209c0.033 0.022 0.057 0.054 0.070 0.092l0 0.001c0.006 0.014 0.009 0.030 0.009 0.047s-0.003 0.033-0.010 0.047l0-0.001c-0.005 0.054-0.031 0.101-0.070 0.133l-0 0c-0.088 0.078-0.194 0.138-0.31 0.174l-0.006 0.002c-0.138 0.053-0.298 0.088-0.465 0.097l-0.004 0zM56.914 29.083h1.088c0.031 0.011 0.068 0.017 0.105 0.017s0.074-0.006 0.108-0.018l-0.002 0.001c0.011-0.020 0.017-0.045 0.017-0.071s-0.006-0.050-0.018-0.071l0 0.001c-0.004-0.12-0.034-0.232-0.084-0.332l0.002 0.005c-0.116-0.205-0.333-0.341-0.581-0.341-0.12 0-0.233 0.032-0.33 0.087l0.003-0.002-0.017 0.010c-0.096 0.060-0.178 0.134-0.244 0.22l-0.002 0.002c-0.058 0.093-0.093 0.206-0.093 0.327v0z"></path>
<path fill="#f4a7ac" style="fill: var(--color2, #f4a7ac)" d="M59.090 30.651c-0.002 0-0.004 0-0.007 0-0.049 0-0.093-0.023-0.122-0.059l-0-0c-0.006-0.018-0.009-0.039-0.009-0.061s0.003-0.043 0.010-0.063l-0 0.002v-0.199l1.358-1.979h-1.17c-0.043-0.003-0.081-0.024-0.105-0.057l-0-0c-0.005-0.023-0.008-0.049-0.008-0.076s0.003-0.053 0.009-0.078l-0 0.002c-0.006-0.021-0.009-0.045-0.009-0.071s0.003-0.049 0.010-0.072l-0 0.002c0.022-0.042 0.065-0.070 0.115-0.070 0.003 0 0.006 0 0.008 0l-0-0h1.697c0.019-0.006 0.041-0.009 0.064-0.009s0.045 0.003 0.066 0.010l-0.002-0c0.010 0.021 0.017 0.045 0.017 0.071s-0.006 0.050-0.017 0.071l0-0.001c0 0.001 0 0.003 0 0.004 0 0.070-0.027 0.134-0.071 0.182l0-0-1.357 1.99h1.299c0.001 0 0.002-0 0.002-0 0.047 0 0.088 0.023 0.114 0.058l0 0c0.011 0.022 0.017 0.048 0.017 0.076s-0.006 0.054-0.018 0.077l0-0.001c0.006 0.021 0.009 0.045 0.009 0.070s-0.003 0.049-0.010 0.072l0-0.002c-0.017 0.008-0.037 0.013-0.058 0.013s-0.041-0.005-0.059-0.013l0.001 0z"></path>
<path fill="#f4a7ac" style="fill: var(--color2, #f4a7ac)" d="M62.029 30.697c-0.006 0-0.013 0-0.021 0-0.202 0-0.387-0.071-0.532-0.189l0.002 0.001c-0.145-0.135-0.235-0.326-0.235-0.539 0-0.016 0.001-0.033 0.002-0.049l-0 0.002c-0.001-0.015-0.002-0.034-0.002-0.052 0-0.175 0.068-0.333 0.178-0.452l-0 0c0.13-0.121 0.292-0.207 0.473-0.244l0.006-0.001c0.214-0.044 0.46-0.070 0.712-0.070 0.001 0 0.001 0 0.002 0h0.281v-0.123c-0.001-0.127-0.027-0.247-0.073-0.357l0.002 0.006c-0.039-0.11-0.108-0.202-0.197-0.268l-0.002-0.001c-0.095-0.067-0.213-0.106-0.34-0.106-0.012 0-0.024 0-0.035 0.001l0.002-0h-0.328l-0.188 0.093h-0.129c-0 0-0.001 0-0.001 0-0.056 0-0.105-0.033-0.127-0.081l-0-0.001c-0.005-0.025-0.008-0.053-0.008-0.082s0.003-0.057 0.009-0.084l-0 0.003c0.006-0.077 0.058-0.14 0.127-0.164l0.001-0c0.091-0.056 0.197-0.1 0.309-0.127l0.007-0.002h0.386c0.016-0.001 0.036-0.001 0.055-0.001 0.222 0 0.429 0.062 0.606 0.169l-0.005-0.003c0.155 0.103 0.276 0.246 0.349 0.415l0.002 0.006c0.069 0.164 0.109 0.354 0.11 0.554v1.473c0.005 0.019 0.008 0.041 0.008 0.064s-0.003 0.045-0.009 0.066l0-0.002c-0.026 0.010-0.056 0.016-0.088 0.016s-0.062-0.006-0.089-0.017l0.002 0.001c-0.025 0.005-0.053 0.008-0.082 0.008s-0.057-0.003-0.085-0.009l0.003 0c-0.007-0.019-0.011-0.041-0.011-0.064s0.004-0.045 0.011-0.066l-0 0.001v-0.234c-0.105 0.125-0.228 0.23-0.368 0.312l-0.007 0.004c-0.155 0.124-0.353 0.199-0.569 0.199-0.040 0-0.080-0.003-0.119-0.008l0.005 0zM62.181 30.311c0.125-0.002 0.241-0.036 0.342-0.095l-0.003 0.002c0.103-0.067 0.192-0.145 0.269-0.233l0.001-0.002c0.059-0.074 0.097-0.166 0.105-0.267l0-0.002v-0.304h-0.667c-0.138 0.014-0.264 0.060-0.371 0.131l0.003-0.002c-0.077 0.063-0.125 0.158-0.125 0.264 0 0.014 0.001 0.028 0.003 0.042l-0-0.002c-0.001 0.012-0.002 0.026-0.002 0.040 0 0.117 0.048 0.223 0.125 0.299l0 0c0.076 0.066 0.172 0.111 0.279 0.122l0.002 0z"></path>
<path fill="#010101" style="fill: var(--color1, #010101)" d="M54.939 20.407c0 2.668 0 2.738 0.199 2.738s0.199-0.070 0.199-2.738 0-2.727-0.199-2.727-0.199 0.059-0.199 2.727z"></path>
<path fill="#010101" style="fill: var(--color1, #010101)" d="M45.046 19.615c0 1.775 0 2.024 0.071 2.208 0.23 0.802 0.957 1.379 1.819 1.379 0.9 0 1.653-0.629 1.843-1.472l0.002-0.013c0.036-0.142 0.057-0.305 0.057-0.473 0-0.741-0.405-1.388-1.007-1.73l-0.010-0.005c-0.243-0.132-0.531-0.209-0.838-0.209-0.068 0-0.135 0.004-0.202 0.011l0.008-0.001c-0.369 0.002-0.71 0.122-0.986 0.325l0.005-0.003-0.215 0.147v0.34c-0.004 0.051-0.006 0.111-0.006 0.171s0.002 0.12 0.007 0.179l-0.001-0.008c0.066-0.055 0.126-0.113 0.18-0.175l0.002-0.002c0.264-0.323 0.662-0.527 1.108-0.527 0.769 0 1.395 0.607 1.427 1.368l0 0.003c0.003 0.040 0.005 0.088 0.005 0.135 0 0.112-0.009 0.222-0.027 0.329l0.002-0.012c-0.127 0.618-0.633 1.088-1.261 1.158l-0.007 0.001c-0.034 0.003-0.073 0.005-0.113 0.005-0.607 0-1.121-0.392-1.305-0.937l-0.003-0.010c-0.076-0.22-0.080-0.233-0.088-2.202l-0.012-1.978h-0.491z"></path>
<path fill="#010101" style="fill: var(--color1, #010101)" d="M57.115 19.476c-0.7 0.273-1.187 0.943-1.187 1.725 0 0.081 0.005 0.16 0.015 0.238l-0.001-0.009c-0.001 0.016-0.001 0.034-0.001 0.052 0 0.352 0.129 0.674 0.341 0.921l-0.002-0.002c0.281 0.449 0.759 0.751 1.31 0.785l0.005 0c0.078 0.012 0.169 0.019 0.261 0.019 0.855 0 1.572-0.592 1.763-1.389l0.002-0.012c0.152-0.526 0.14-0.537-0.123-0.537s-0.234 0.081-0.34 0.433c-0.169 0.504-0.547 0.898-1.030 1.084l-0.012 0.004c-0.064 0.009-0.138 0.015-0.213 0.015-0.776 0-1.419-0.572-1.53-1.318l-0.001-0.008c-0.022-0.095-0.034-0.204-0.034-0.316s0.012-0.221 0.036-0.326l-0.002 0.010c0.172-0.522 0.579-0.924 1.092-1.085l0.012-0.003c0.092-0.026 0.198-0.041 0.307-0.041 0.301 0 0.575 0.113 0.782 0.3l-0.001-0.001 0.258 0.199-1.104 0.75-1.17 0.761c0.005 0.077 0.045 0.144 0.103 0.186l0.001 0.001c0.105 0.071 0.258 0.082 1.405-0.702l1.299-0.878c0.105-0.093-0.398-0.585-0.773-0.795-0.234-0.116-0.51-0.184-0.802-0.184-0.24 0-0.469 0.046-0.68 0.13l0.012-0.004z"></path>
<path fill="#000" style="fill: var(--color3, #000)" d="M60.375 23.097c-0.004 0-0.008 0-0.012 0-0.054 0-0.103-0.023-0.137-0.059l-0-0c-0.008-0.008-0.014-0.019-0.016-0.030l-0-0c-0.006-0.020-0.009-0.042-0.009-0.065s0.003-0.046 0.009-0.067l-0 0.002v-0.227c0-0 0-0 0-0.001 0-0.014 0.004-0.027 0.011-0.038l-0 0 1.613-2.351c0.008-0.011 0.012-0.024 0.012-0.038 0-0.037-0.029-0.066-0.066-0.066v0h-1.337c-0.054-0.004-0.101-0.032-0.131-0.073l-0-0.001c-0.007-0.029-0.011-0.061-0.011-0.095s0.004-0.067 0.012-0.098l-0.001 0.003c-0.007-0.026-0.011-0.057-0.011-0.088s0.004-0.061 0.012-0.090l-0.001 0.002c0.027-0.052 0.080-0.087 0.142-0.087 0.001 0 0.003 0 0.004 0h2.128c0.023-0.006 0.049-0.010 0.076-0.010 0.017 0 0.033 0.001 0.048 0.004l-0.002-0c0.023 0.004 0.041 0.019 0.048 0.040l0 0c0.005 0.017 0.008 0.036 0.008 0.055 0 0.032-0.008 0.063-0.022 0.089l0.001-0.001c0 0.002 0 0.005 0 0.008 0 0.087-0.033 0.166-0.087 0.225l0-0-1.627 2.382c-0.007 0.010-0.011 0.023-0.011 0.037 0 0.037 0.029 0.067 0.066 0.067h1.498c0.001-0 0.002-0 0.003-0 0.059 0 0.111 0.029 0.143 0.073l0 0.001c0.013 0.037 0.021 0.080 0.021 0.124 0 0.025-0.002 0.049-0.007 0.072l0-0.002c0 0.007 0 0.014 0 0.022 0 0.053-0.005 0.105-0.016 0.154l0.001-0.005c-0.035 0.020-0.076 0.036-0.12 0.045l-0.003 0c-0.006 0-0.014 0.001-0.021 0.001s-0.015-0-0.022-0.001l0.001 0z"></path>
<path fill="#010101" style="fill: var(--color1, #010101)" d="M64.407 19.574c-0.694 0.207-1.192 0.836-1.2 1.583v0.001c-0.005 0.051-0.009 0.111-0.009 0.171 0 0.757 0.494 1.398 1.177 1.619l0.012 0.003c0.155 0.047 0.334 0.075 0.518 0.075 0.335 0 0.648-0.090 0.918-0.246l-0.009 0.005c0.297-0.186 0.301-0.191 0.301-0.53v-0.294l-0.236 0.221c-0.118 0.118-0.251 0.219-0.398 0.3l-0.009 0.005c-0.163 0.084-0.355 0.133-0.558 0.133-0.347 0-0.66-0.142-0.885-0.372l-0-0c-0.161-0.166-0.281-0.373-0.34-0.604l-0.002-0.009c-0.032-0.109-0.050-0.235-0.050-0.364 0-0.608 0.404-1.121 0.959-1.286l0.010-0.002 0.114-0.027c0.070-0.014 0.151-0.023 0.233-0.023 0.591 0 1.083 0.42 1.195 0.978l0.001 0.008c0 0.002 0 0.005 0 0.008s-0 0.006-0 0.008l0-0v0.083c0.033 0.247 0.052 0.533 0.052 0.823 0 0.095-0.002 0.19-0.006 0.284l0-0.013v0.883h0.453v-1.019c0-0.027 0-0.060 0-0.092 0-0.378-0.019-0.751-0.057-1.118l0.004 0.046c-0.161-0.61-0.634-1.081-1.233-1.235l-0.012-0.003c-0.139-0.027-0.298-0.042-0.461-0.042-0.17 0-0.336 0.017-0.497 0.048l0.016-0.003z"></path>
</symbol>
<symbol id="icon-linea" viewBox="0 0 13824 32">
<path fill="none" stroke="#ff9db5" style="stroke: var(--color1, #ff9db5)" stroke-linejoin="miter" stroke-linecap="butt" stroke-miterlimit="4" stroke-width="32" d="M0 16l13824-0.001"></path>
</symbol>
<symbol id="icon-facebook" viewBox="0 0 32 32">
<path d="M30 16.084c0-7.732-6.269-14-14-14s-14 6.267-14 14c0 6.987 5.12 12.779 11.813 13.831v-9.783h-3.557v-4.049h3.555v-3.083c0-3.507 2.091-5.447 5.288-5.447 1.533 0 3.135 0.273 3.135 0.273v3.445h-1.765c-1.739 0-2.283 1.080-2.283 2.187v2.627h3.883l-0.62 4.048h-3.261v9.783c6.693-1.051 11.812-6.841 11.812-13.831z"></path>
</symbol>
<symbol id="icon-tiktok" viewBox="0 0 32 32">
<path d="M25.761 7.416c-0.236-0.123-0.43-0.237-0.616-0.36l0.026 0.016c-0.572-0.381-1.069-0.806-1.511-1.283l-0.005-0.005c-1.132-1.295-1.555-2.608-1.709-3.527h0.005c-0.129-0.764-0.076-1.257-0.067-1.257h-5.153v19.924c0 0.267 0 0.532-0.011 0.793 0 0.032-0.004 0.061-0.005 0.097 0 0.013 0 0.029-0.004 0.044v0.012c-0.116 1.49-0.963 2.759-2.179 3.461l-0.021 0.011c-0.611 0.354-1.345 0.563-2.127 0.563-0.002 0-0.005 0-0.007 0h0c-2.4 0-4.347-1.957-4.347-4.375 0-2.419 1.947-4.376 4.347-4.376 0.455 0 0.907 0.072 1.339 0.213l0.007-5.248c-0.368-0.050-0.793-0.079-1.225-0.079-2.349 0-4.5 0.846-6.166 2.25l0.014-0.012c-0.877 0.764-1.612 1.663-2.18 2.67l-0.026 0.050c-0.217 0.375-1.039 1.883-1.137 4.328-0.063 1.387 0.355 2.827 0.553 3.42v0.013c0.124 0.349 0.609 1.544 1.399 2.551 0.641 0.809 1.376 1.505 2.199 2.085l0.033 0.022v-0.013l0.012 0.013c2.493 1.693 5.26 1.583 5.26 1.583 0.479-0.020 2.083 0 3.904-0.863 2.020-0.957 3.169-2.383 3.169-2.383 0.708-0.817 1.291-1.767 1.704-2.804l0.024-0.067c0.467-1.227 0.621-2.696 0.621-3.283v-10.572c0.063 0.037 0.896 0.588 0.896 0.588s1.2 0.769 3.071 1.269c1.341 0.356 3.151 0.432 3.151 0.432v-5.116c-0.633 0.069-1.92-0.131-3.239-0.787z"></path>
</symbol>
<symbol id="icon-instagram" viewBox="0 0 32 32">
<path d="M21.833 4.333c3.218 0.010 5.823 2.616 5.833 5.832v11.668c-0.010 3.218-2.616 5.823-5.832 5.833h-11.668c-3.217-0.011-5.823-2.616-5.833-5.832v-11.668c0.010-3.218 2.616-5.824 5.832-5.833h11.668zM21.833 2h-11.667c-4.492 0-8.167 3.675-8.167 8.167v11.667c0 4.492 3.675 8.167 8.167 8.167h11.667c4.492 0 8.167-3.675 8.167-8.167v-11.667c0-4.492-3.675-8.167-8.167-8.167z"></path>
<path d="M23.584 10.167c-0.014 0-0.031 0.001-0.048 0.001-0.967 0-1.751-0.784-1.751-1.751s0.784-1.751 1.751-1.751c0.017 0 0.034 0 0.051 0.001l-0.002-0c0.946 0.027 1.702 0.8 1.702 1.75s-0.756 1.723-1.7 1.75l-0.002 0z"></path>
<path d="M16 11.333c2.577 0 4.667 2.089 4.667 4.667s-2.089 4.667-4.667 4.667v0c-2.577 0-4.667-2.089-4.667-4.667s2.089-4.667 4.667-4.667v0zM16 9c-3.866 0-7 3.134-7 7s3.134 7 7 7v0c3.866 0 7-3.134 7-7s-3.134-7-7-7v0z"></path>
</symbol>
</defs>
</svg>
