<svg aria-hidden="true" style="position: absolute; width: 0; height: 0; overflow: hidden;" version="1.1" xmlns="http://www.w3.org/2000/svg" xmlns:xlink="http://www.w3.org/1999/xlink">
<defs>
<symbol id="icon-plus" viewBox="0 0 32 32">
<path d="M14.675 0.087c-0.794 0.219-1.406 0.931-1.55 1.794-0.037 0.256-0.063 2.388-0.063 5.787v5.394h-5.388c-3.406 0-5.537 0.025-5.794 0.063-0.75 0.125-1.344 0.563-1.675 1.238-0.175 0.356-0.175 0.363-0.175 1.637s0 1.281 0.175 1.637c0.331 0.675 0.925 1.113 1.675 1.238 0.256 0.038 2.388 0.063 5.794 0.063h5.388v5.387c0 3.406 0.025 5.537 0.063 5.794 0.125 0.744 0.569 1.35 1.25 1.681 0.338 0.169 0.356 0.169 1.625 0.169 1.275 0 1.281 0 1.637-0.175 0.675-0.331 1.113-0.925 1.238-1.675 0.038-0.256 0.063-2.387 0.063-5.794v-5.387h5.394c3.4 0 5.531-0.025 5.787-0.063 0.762-0.125 1.337-0.556 1.675-1.238 0.175-0.356 0.175-0.363 0.175-1.637s0-1.281-0.175-1.637c-0.337-0.681-0.913-1.113-1.675-1.238-0.256-0.037-2.387-0.063-5.788-0.063h-5.394v-5.394c0-3.4-0.025-5.531-0.063-5.787-0.125-0.75-0.563-1.344-1.238-1.675-0.344-0.169-0.387-0.175-1.512-0.188-0.8-0.013-1.244 0.006-1.45 0.069z"></path>
</symbol>
<symbol id="icon-minus" viewBox="0 0 32 32">
<path d="M2.331 13.25c-1.431 0.213-2.519 1.719-2.281 3.163 0.2 1.219 1.125 2.144 2.325 2.331 0.563 0.094 26.688 0.094 27.25 0 1.506-0.238 2.569-1.681 2.325-3.156-0.2-1.219-1.125-2.144-2.325-2.331-0.475-0.081-26.775-0.081-27.294-0.006z"></path>
</symbol>
</defs>
</svg>
